<svg width="30" height="30" viewBox="0 0 30 30" fill="none" xmlns="http://www.w3.org/2000/svg">
    <path
        d="M26.8146 18.5549C27.611 18.5549 28.4073 18.2948 28.9382 17.6879C29.5576 17.1677 29.9115 16.3873 30 15.5203C30 13.8729 28.8497 12.5723 27.257 12.3122C28.5843 11.3584 29.0267 9.71099 28.3188 8.237C27.8764 7.54336 27.257 6.93643 26.4606 6.67632C25.6643 6.4162 24.7795 6.50289 24.0716 6.93642C23.9831 6.93642 23.8061 7.10983 23.4522 7.36995C23.6881 7.08093 23.8356 6.87861 23.8946 6.763C24.7794 5.28901 24.3371 3.29479 22.8328 2.42774C22.125 1.99421 21.3286 1.8208 20.4438 1.99421C19.6474 2.25433 18.9395 2.68786 18.4971 3.46821C18.4971 3.46821 18.4087 3.64162 18.3202 3.81503C18.3792 3.58381 18.4086 3.38152 18.4086 3.20811C18.4086 1.474 17.0814 0 15.3117 0C14.4269 0 13.6305 0.260116 13.0111 0.867053C12.4802 1.38728 12.2148 2.08094 12.1263 2.77458C11.6839 2.16764 11.1529 1.73412 10.4451 1.474C9.64872 1.21388 8.76393 1.30058 8.05606 1.73411C6.46335 2.51445 5.84396 4.42196 6.7288 5.98266C6.7288 6.04046 6.75827 6.09828 6.81726 6.15608C6.69928 6.09828 6.64023 6.06937 6.64023 6.06937C5.93236 5.54914 5.13604 5.46243 4.2512 5.63584C3.45485 5.80925 2.74702 6.32949 2.3046 7.02313C1.33128 8.49712 1.77368 10.4913 3.2779 11.3584C3.33689 11.4162 3.39584 11.474 3.45483 11.5318C3.33685 11.474 3.2779 11.4451 3.2779 11.4451C2.39306 11.4451 1.68519 11.7052 1.06581 12.3122C0.446418 12.8324 0.00393347 13.6127 0.00393347 14.4798C-0.0845504 16.2139 1.33119 17.6879 3.10087 17.7746C3.15986 17.7746 3.21891 17.7746 3.2779 17.7746C3.15992 17.7746 3.0714 17.8035 3.01241 17.8613C1.50818 18.6416 0.888794 20.5491 1.68515 22.1098C2.12757 22.8902 2.74693 23.4104 3.54329 23.6705C3.89723 23.7861 4.22175 23.8439 4.5167 23.8439C5.0476 23.8439 5.5195 23.7283 5.93242 23.4971C6.0209 23.4104 6.19783 23.3237 6.55176 23.0636C6.31581 23.2948 6.16833 23.4682 6.10935 23.5838C5.22451 25.1445 5.6669 27.052 7.08265 28.0058C7.61355 28.2948 8.17397 28.4393 8.76386 28.4393C8.99982 28.4393 9.23582 28.4104 9.47178 28.3526C10.3566 28.1792 11.0644 27.659 11.5068 26.9653C11.5068 26.9653 11.5069 26.7919 11.5954 26.7052C11.5954 26.7052 11.5954 26.7341 11.5954 26.7919C11.5954 28.5261 12.9227 30 14.6923 30C14.6923 30 14.7218 30 14.7808 30C15.5772 30 16.3735 29.7399 16.9044 29.1329C17.4354 28.6127 17.7893 28.0058 17.8777 27.2255C18.3202 27.8324 18.8511 28.2659 19.559 28.5261C19.8539 28.6417 20.1783 28.6994 20.5323 28.6994C21.0042 28.6994 21.4761 28.5549 21.948 28.2659C23.5407 27.4855 24.0716 25.5781 23.2752 24.0174C23.2752 23.9596 23.2458 23.9018 23.1868 23.8439C23.2458 23.9018 23.3047 23.9596 23.3637 24.0174C23.8061 24.2775 24.4255 24.4509 25.0449 24.4509C25.2809 24.4509 25.5169 24.422 25.7528 24.3642C26.5492 24.1907 27.257 23.6705 27.6994 22.9769C28.5843 21.5029 28.1419 19.5954 26.7261 18.6416C26.6672 18.5838 26.6081 18.5549 26.5491 18.5549C26.6671 18.5549 26.7261 18.5549 26.7261 18.5549C26.7261 18.5549 26.7556 18.5549 26.8146 18.5549ZM24.337 7.54337C24.6909 7.36996 25.0744 7.28324 25.4873 7.28324C25.7233 7.28324 25.9593 7.31214 26.1953 7.36995C26.8146 7.54336 27.3455 7.97688 27.611 8.58382C28.3189 9.79769 27.788 11.2717 26.6377 11.8786C26.3722 12.052 25.8412 12.2254 25.2218 12.3988C23.2752 12.659 20.0013 13.2659 17.7007 13.7862C17.6417 13.7284 17.6123 13.6705 17.6123 13.6127C18.6741 12.5723 19.8244 11.3584 20.9747 10.1445C22.4789 8.84395 23.8946 7.80348 24.337 7.54337ZM19.1165 3.81503C19.4705 3.20809 20.0013 2.86128 20.6207 2.68787C20.8567 2.68787 21.0631 2.68787 21.2401 2.68787C21.653 2.68787 22.0659 2.80347 22.4789 3.03468C23.6292 3.72833 23.9831 5.20231 23.2752 6.41618C22.9213 6.93642 21.6825 8.32369 20.2668 9.79768C19.1165 10.7514 17.8777 11.7919 16.8159 12.7457C16.6979 12.6301 16.5504 12.5144 16.3735 12.3988C16.5504 11.7052 16.7864 10.8381 17.0814 9.79768C17.2583 9.10404 17.4353 8.32369 17.6123 7.63005C18.2316 5.80924 18.8511 4.24855 19.1165 3.81503ZM13.542 1.38729C13.9844 0.953763 14.6038 0.693632 15.2232 0.693632C15.2822 0.693632 15.3117 0.693632 15.3117 0.693632C16.639 0.780337 17.7007 1.82082 17.7007 3.20811C17.7007 3.90175 17.2583 5.72255 16.8159 7.80347C16.285 9.19076 15.7541 10.7515 15.3117 12.1387C15.1937 12.0809 15.0757 12.0521 14.9577 12.0521C14.5153 9.97113 13.719 7.36994 13.0996 5.46242C12.9226 4.33525 12.8341 3.46822 12.8341 3.12139C12.8341 2.42775 13.0996 1.82082 13.542 1.38729ZM8.4099 2.34105C8.76384 2.16764 9.11784 2.08092 9.47178 2.08092C9.70773 2.08092 9.94363 2.10983 10.1796 2.16763C10.799 2.34104 11.3299 2.77456 11.6839 3.3815C11.8608 3.72832 12.1263 4.59538 12.4803 5.63584C12.7457 7.54336 13.2765 10.2312 13.7189 12.3122C13.66 12.37 13.5715 12.4278 13.4536 12.4856C12.3917 11.2717 10.9759 9.97111 9.73716 8.75724C8.58687 7.36995 7.61359 6.15607 7.34814 5.63584C6.72875 4.42197 7.17113 2.94799 8.4099 2.34105ZM2.92395 7.36995C3.27788 6.84972 3.80874 6.50288 4.42813 6.32947C4.6051 6.27167 4.78215 6.24279 4.95912 6.24279C5.43103 6.24279 5.87345 6.3873 6.28638 6.67632C6.7288 6.93643 7.7906 7.89017 8.94089 9.01734C10.0912 10.4046 11.5069 12.052 12.6572 13.2659C12.5392 13.3815 12.4507 13.4971 12.3917 13.6127C10.8875 13.0925 8.94087 12.659 7.25968 12.3122C5.57848 11.6185 4.16274 11.0983 3.72032 10.7515C2.57003 10.0578 2.21607 8.58382 2.92395 7.36995ZM3.18944 17.0809C3.13045 17.0809 3.10087 17.0809 3.10087 17.0809C1.77361 16.9942 0.711848 15.8671 0.711848 14.5665C0.800332 13.8728 1.06581 13.2659 1.50822 12.8324C1.95064 12.3988 2.57005 12.1387 3.18944 12.1387C3.18944 12.1387 3.21891 12.1387 3.2779 12.1387C3.80881 12.2254 5.13609 12.4855 6.7288 12.8324C8.49848 13.4393 10.4451 14.2197 12.0378 14.6532C12.0378 14.7688 12.0378 14.8844 12.0378 15C12.0378 15.0578 12.0378 15.1156 12.0378 15.1734C10.5336 15.5202 8.76393 16.0405 7.17122 16.474C5.31305 16.8208 3.72034 17.0809 3.18944 17.0809ZM5.66693 22.8035C5.04754 23.1503 4.42817 23.1503 3.80879 22.9769C3.1894 22.8035 2.65854 22.3699 2.3046 21.763C1.68521 20.5491 2.21607 19.0751 3.36637 18.4682C3.89727 18.2081 5.48998 17.6879 7.34814 17.1676C8.94085 16.9075 10.799 16.5607 12.3032 16.2139C12.3622 16.3873 12.4507 16.5318 12.5687 16.6474C11.4184 17.6879 10.1796 18.9885 9.02936 20.2891C7.52513 21.5029 6.10935 22.5434 5.66693 22.8035ZM10.8875 26.5318C10.5336 27.1387 10.0026 27.4856 9.29474 27.659C8.67536 27.8324 8.05597 27.7457 7.52507 27.3988C6.37477 26.6185 6.02093 25.1445 6.7288 24.0174C7.08273 23.4104 8.32142 22.0231 9.73716 20.5492C10.9759 19.5954 12.3033 18.4682 13.3651 17.4277C13.4241 17.4855 13.5125 17.5434 13.6305 17.6012C13.0996 19.3353 12.5687 21.5029 12.2148 23.3237C11.5954 24.8844 11.1529 26.0983 10.8875 26.5318ZM16.462 28.6127C15.9901 29.0752 15.4002 29.3064 14.6923 29.3064C13.3651 29.3064 12.3032 28.1792 12.3032 26.7919C12.3032 26.2717 12.5687 24.7977 12.9227 23.1503C13.6305 21.5029 14.3384 19.5087 14.7808 17.948C14.8398 17.948 14.8987 17.948 14.9577 17.948C15.0167 17.948 15.0462 17.948 15.0462 17.948C15.4886 20.0289 16.2851 22.6301 16.9044 24.5376C17.0814 25.6647 17.1698 26.5318 17.1698 26.8786C17.1698 27.5723 16.9044 28.1792 16.462 28.6127ZM21.594 27.659C21.0631 28.0058 20.4437 28.0058 19.8244 27.8324C19.1165 27.659 18.6741 27.2255 18.3202 26.6185C18.1432 26.3584 17.9662 25.6647 17.6123 24.7977C17.3468 22.7168 16.7274 19.8555 16.1965 17.6879C16.3145 17.6301 16.403 17.5723 16.462 17.5145C17.6123 18.7283 19.028 20.0289 20.2668 21.2428C21.4171 22.6301 22.3905 23.9306 22.6559 24.3642C23.2753 25.578 22.8328 27.0521 21.594 27.659ZM27.0801 22.6301C26.7262 23.1503 26.1952 23.5838 25.5758 23.6705C24.9564 23.8439 24.2486 23.7572 23.7177 23.4104C23.2752 23.0636 22.2134 22.1965 21.0631 21.0694C19.9129 19.5954 18.4972 18.0347 17.3469 16.7341C17.4059 16.6185 17.4648 16.5029 17.5238 16.3873C19.1165 16.9075 21.0632 17.3411 22.7444 17.7746C24.4256 18.3815 25.8413 18.9018 26.2837 19.2486C27.434 19.9422 27.788 21.5029 27.0801 22.6301ZM23.2752 17.1676C21.5941 16.5607 19.5589 15.8671 17.8777 15.3468C17.8777 15.289 17.9072 15.2312 17.9662 15.1734C20.3553 14.6532 23.4522 13.6994 25.3989 13.0925C26.1068 13.0058 26.6376 12.9191 26.9031 12.9191C28.2303 13.0058 29.2922 14.133 29.2922 15.5203C29.2037 16.1272 28.9382 16.7341 28.4958 17.2544C27.9649 17.6879 27.3455 17.8613 26.7261 17.8613C26.1952 17.8613 24.868 17.6012 23.2752 17.1676Z"
        fill="#414535" />
</svg>