<svg xmlns="http://www.w3.org/2000/svg" width="120" height="310" viewBox="0 0 120 310" fill="none">
    <g clip-path="url(#clip0_771_70)">
        <path
            d="M0 192.199C0 239.084 10.7872 254.202 44.2401 254.202C77.6929 254.202 88.4801 239.084 88.4801 192.199C88.4801 145.313 77.6929 130.196 44.2401 130.196C10.7872 130.196 0 145.313 0 192.199Z"
            fill="#B26445" />
        <path
            d="M116.882 238.357H102.946V229.258C102.946 228.191 102.073 227.324 100.998 227.324H83.9127C83.5542 227.324 83.258 227.618 83.258 227.974V238.357H62.2603V229.258C62.2603 228.191 61.3874 227.324 60.3118 227.324H43.2268C42.8683 227.324 42.5721 227.618 42.5721 227.974V238.357H26.0327C25.6742 238.357 25.378 238.651 25.378 239.007V242.953C25.378 244.02 26.251 244.887 27.3266 244.887H42.5721V249.467C42.5721 250.535 43.445 251.401 44.5207 251.401H57.007L56.0873 252.314C48.0436 260.299 38.2697 266.318 27.5136 269.908C26.5939 270.217 26.6719 271.532 27.6072 271.749L35.7132 273.699C35.9158 273.699 36.1185 273.699 36.3211 273.699L38.6282 273.157C48.1995 270.929 57.1473 266.751 64.9727 260.948L75.2767 263.146C71.9875 265.591 68.6048 267.896 65.1442 270.093C63.1177 266.782 58.7841 265.668 55.3858 267.602C51.9875 269.552 50.7872 273.823 52.6422 277.227C47.9657 279.61 43.1645 281.776 38.2697 283.679L26.9369 288.105C26.0639 288.445 26.1263 289.683 27.0304 289.931L38.2385 292.964C38.4879 293.025 38.7685 293.025 39.0179 292.933L42.5721 291.679V308.066C42.5721 309.134 43.445 310 44.5207 310H61.6056C61.9641 310 62.2603 309.706 62.2603 309.35V307.385H88.5113V308.066C88.5113 309.134 89.3843 310 90.4599 310H107.545C107.903 310 108.2 309.706 108.2 309.35V280.058C108.2 278.991 107.327 278.124 106.251 278.124H89.166C88.8075 278.124 88.5113 278.418 88.5113 278.774V283.339H64.8636C76.3367 278.294 87.1707 271.919 97.1161 264.306C98.41 263.316 97.9111 261.289 96.3211 260.948L92.8293 260.206L71.286 255.625C71.7381 255.208 72.1902 254.774 72.6267 254.341L72.7514 254.217C73.8581 253.119 73.2658 251.231 71.7225 250.952L62.2447 249.235V244.856H83.2424V249.436C83.2424 250.504 84.1154 251.37 85.191 251.37H102.276C102.634 251.37 102.931 251.076 102.931 250.72V244.856H118.161C118.519 244.856 118.815 244.562 118.815 244.206V240.26C118.815 239.192 117.942 238.326 116.867 238.326L116.882 238.357ZM88.5113 289.869V300.886H62.2603V289.869H88.5113Z"
            fill="#231815" />
        <g style="mix-blend-mode:multiply">
            <path
                d="M46.3289 96.3702V96.3238C46.3601 96.2155 46.3913 96.0607 46.4224 95.8905C46.4536 95.7048 46.4692 95.5501 46.4692 95.4263C46.4692 94.993 46.3757 94.6836 46.173 94.4824C45.986 94.2812 45.6274 94.1884 45.1286 94.1884H44.926V95.9988H44.0686V94.2193H38.8932V93.2136H44.0686V92.5327H44.926V93.2136H45.1286C45.8457 93.2136 46.3913 93.3838 46.781 93.7397C47.1707 94.0956 47.3578 94.6062 47.3578 95.2716C47.3578 95.5037 47.3578 95.7048 47.3266 95.875C47.311 96.0607 47.2798 96.2155 47.2486 96.3702H46.3289Z"
                fill="#231815" />
            <path
                d="M43.8348 100.749V100.703C43.8659 100.548 43.8971 100.409 43.9127 100.27C43.9283 100.13 43.9439 99.9601 43.9439 99.7744C43.9439 99.4649 43.8815 99.1709 43.7412 98.8769C43.6009 98.5829 43.4295 98.3044 43.2112 98.0413H38.9244V97.0355H44.9571V98.0413H44.0686C44.3959 98.4436 44.6298 98.7995 44.7545 99.0935C44.8948 99.403 44.9571 99.7125 44.9571 100.022C44.9571 100.192 44.9571 100.316 44.9571 100.409C44.9571 100.486 44.926 100.61 44.9104 100.765H43.8659L43.8348 100.749Z"
                fill="#231815" />
            <path
                d="M41.9174 106.799C40.9353 106.799 40.1559 106.552 39.5947 106.057C39.0335 105.562 38.7373 104.881 38.7373 104.045C38.7373 103.21 39.0179 102.529 39.5947 102.034C40.1715 101.538 40.9353 101.291 41.9174 101.291C42.8995 101.291 43.6789 101.538 44.2401 102.034C44.8168 102.529 45.0974 103.21 45.0974 104.045C45.0974 104.881 44.8168 105.562 44.2401 106.057C43.6633 106.552 42.8995 106.799 41.9174 106.799ZM41.9174 105.763C42.6968 105.763 43.2736 105.608 43.6633 105.314C44.0374 105.004 44.2401 104.587 44.2401 104.045C44.2401 103.504 44.053 103.07 43.6633 102.776C43.2892 102.467 42.6968 102.328 41.9174 102.328C41.138 102.328 40.5924 102.482 40.2027 102.776C39.8129 103.086 39.6103 103.504 39.6103 104.045C39.6103 104.587 39.7974 105.004 40.1871 105.314C40.5768 105.623 41.1535 105.778 41.9174 105.778V105.763Z"
                fill="#231815" />
            <path
                d="M38.9088 117.089V116.084H42.3383C42.6033 116.084 42.8527 116.084 43.0865 116.053C43.3203 116.022 43.523 115.975 43.6633 115.898C43.8192 115.821 43.9283 115.697 44.0218 115.542C44.1154 115.387 44.1465 115.171 44.1465 114.877C44.1465 114.583 44.0686 114.32 43.9283 114.026C43.788 113.747 43.6009 113.469 43.3827 113.175C43.3048 113.175 43.2112 113.19 43.1021 113.206C42.993 113.206 42.8839 113.206 42.7747 113.206H38.9088V112.2H42.3383C42.6033 112.2 42.8527 112.2 43.1021 112.169C43.3359 112.153 43.5386 112.091 43.6789 112.014C43.8348 111.937 43.9439 111.813 44.0218 111.658C44.0998 111.503 44.1465 111.287 44.1465 110.993C44.1465 110.699 44.0842 110.436 43.9439 110.173C43.8036 109.894 43.6321 109.616 43.4139 109.337H38.9088V108.331H44.9415V109.337H44.2712C44.5362 109.647 44.7389 109.972 44.8792 110.281C45.0195 110.59 45.0974 110.931 45.0974 111.287C45.0974 111.689 45.0195 112.045 44.8324 112.324C44.6609 112.602 44.4271 112.819 44.1154 112.958C44.4583 113.36 44.7077 113.732 44.8636 114.072C45.0195 114.412 45.0974 114.768 45.0974 115.155C45.0974 115.805 44.8948 116.3 44.4895 116.61C44.0842 116.919 43.523 117.074 42.8059 117.074H38.8932L38.9088 117.089Z"
                fill="#231815" />
            <path d="M45.986 128.648V125.801H38.8932V124.734H45.986V121.886H46.9369V128.648H45.986Z"
                fill="#231815" />
            <path
                d="M38.9088 135.379V134.25L41.1535 133.461V130.01L38.9088 129.221V128.138L46.9524 131.047V132.455L38.9088 135.364V135.379ZM42.0577 133.136L46.0016 131.743L42.0577 130.335V133.136Z"
                fill="#231815" />
            <path
                d="M38.9088 139.402V136.246H39.735V137.298H46.1263V136.246H46.9524V139.402H46.1263V138.35H39.735V139.402H38.9088Z"
                fill="#231815" />
            <path
                d="M46.9369 150.482L38.8932 148.408V147.217L45.5651 145.546L38.8932 143.905V142.745L46.9369 140.64V141.724L40.2494 143.395L46.9369 145.05V146.134L40.1871 147.805L46.9369 149.476V150.513V150.482Z"
                fill="#231815" />
            <path
                d="M38.9088 158.079V156.95L41.1535 156.161V152.71L38.9088 151.921V150.838L46.9524 153.747V155.155L38.9088 158.064V158.079ZM42.0577 155.836L46.0016 154.443L42.0577 153.035V155.836Z"
                fill="#231815" />
            <path
                d="M38.9088 165.367V164.052L46.0951 160.277H38.9088V159.286H46.9524V160.926L40.3897 164.377H46.9524V165.367H38.9088Z"
                fill="#231815" />
        </g>
        <g style="mix-blend-mode:multiply">
            <path
                d="M57.007 98.4591C56.6485 98.4591 56.3211 98.3972 56.0093 98.2734C55.6976 98.1496 55.4481 97.9794 55.2143 97.7628C54.9337 97.4843 54.7311 97.1593 54.5908 96.788C54.4505 96.4166 54.3881 95.9369 54.3881 95.3644V94.2967H51.3951V93.229H59.4388V95.3953C59.4388 95.875 59.392 96.2773 59.3141 96.6177C59.2361 96.9427 59.1114 97.2367 58.94 97.4997C58.7373 97.8092 58.4723 98.0413 58.1761 98.1961C57.8644 98.3663 57.4902 98.4436 57.0226 98.4436L57.007 98.4591ZM56.9758 97.345C57.2564 97.345 57.4902 97.2986 57.6929 97.2057C57.8955 97.1129 58.067 96.9582 58.1917 96.7725C58.3008 96.6023 58.3788 96.4011 58.4255 96.1845C58.4723 95.9678 58.5035 95.6893 58.5035 95.3489V94.2967H55.2923V95.1942C55.2923 95.6274 55.3234 95.9678 55.4014 96.2464C55.4793 96.5094 55.604 96.7261 55.7755 96.8963C55.947 97.0665 56.134 97.1903 56.3211 97.2522C56.5082 97.3141 56.7264 97.3605 56.9602 97.3605L56.9758 97.345Z"
                fill="#231815" />
            <path
                d="M51.3951 106.459V105.082L54.5908 102.42V100.919H51.3951V99.8517H59.4388V102.08C59.4388 102.56 59.4076 102.962 59.3453 103.287C59.2829 103.612 59.1738 103.89 59.0023 104.153C58.8152 104.447 58.5814 104.664 58.3008 104.834C58.0202 104.989 57.6617 105.082 57.2408 105.082C56.664 105.082 56.1808 104.943 55.7911 104.649C55.4014 104.355 55.1052 103.968 54.9025 103.457L51.3951 106.459ZM57.1785 103.968C57.4123 103.968 57.6149 103.921 57.7864 103.844C57.9579 103.767 58.1138 103.627 58.2385 103.442C58.3476 103.287 58.4099 103.101 58.4567 102.9C58.5035 102.683 58.5191 102.436 58.5191 102.157V100.904H55.4793V101.972C55.4793 102.312 55.5105 102.606 55.5729 102.854C55.6352 103.101 55.7443 103.318 55.9002 103.488C56.0561 103.643 56.2276 103.767 56.4146 103.844C56.6173 103.921 56.8667 103.952 57.1629 103.952L57.1785 103.968Z"
                fill="#231815" />
            <path
                d="M58.5191 113.422C58.1605 113.747 57.724 113.995 57.194 114.165C56.6796 114.335 56.0873 114.428 55.417 114.428C54.7467 114.428 54.1699 114.335 53.6399 114.165C53.1099 113.995 52.6734 113.747 52.3304 113.422C51.9719 113.097 51.6913 112.71 51.5043 112.262C51.3172 111.813 51.2237 111.302 51.2237 110.73C51.2237 110.157 51.3172 109.662 51.5043 109.198C51.6913 108.734 51.9719 108.347 52.3149 108.022C52.6734 107.697 53.1099 107.449 53.6243 107.279C54.1387 107.109 54.7311 107.016 55.4014 107.016C56.0717 107.016 56.6484 107.109 57.1629 107.279C57.6773 107.449 58.1293 107.697 58.5035 108.022C58.862 108.331 59.127 108.734 59.3141 109.198C59.5011 109.662 59.5947 110.173 59.5947 110.714C59.5947 111.256 59.5011 111.797 59.3141 112.262C59.127 112.726 58.862 113.097 58.5035 113.422H58.5191ZM55.417 113.329C56.4614 113.329 57.272 113.097 57.8332 112.633C58.3944 112.169 58.6749 111.534 58.6749 110.73C58.6749 109.925 58.3944 109.275 57.8332 108.827C57.272 108.362 56.4614 108.13 55.417 108.13C54.3725 108.13 53.5619 108.362 53.0007 108.842C52.4396 109.306 52.159 109.941 52.159 110.745C52.159 111.55 52.4396 112.169 53.0007 112.633C53.5619 113.097 54.3725 113.345 55.417 113.345V113.329Z"
                fill="#231815" />
            <path
                d="M51.9875 126.142C51.894 125.94 51.816 125.77 51.7381 125.615C51.6601 125.461 51.5822 125.244 51.5043 124.996C51.4419 124.78 51.3795 124.548 51.3328 124.285C51.286 124.022 51.2548 123.743 51.2548 123.434C51.2548 122.861 51.3328 122.335 51.5043 121.855C51.6601 121.376 51.9251 120.973 52.2681 120.617C52.611 120.277 53.0475 120.014 53.5775 119.813C54.1075 119.627 54.7155 119.519 55.417 119.519C56.1184 119.519 56.664 119.612 57.194 119.797C57.724 119.983 58.1605 120.246 58.5191 120.602C58.862 120.942 59.127 121.345 59.3141 121.824C59.5011 122.304 59.5947 122.846 59.5947 123.418C59.5947 123.851 59.5479 124.269 59.4388 124.702C59.3297 125.136 59.1582 125.6 58.8932 126.126H57.6305V126.049C58.0046 125.615 58.2696 125.167 58.4411 124.733C58.6126 124.3 58.6905 123.836 58.6905 123.341C58.6905 122.938 58.6282 122.567 58.4879 122.258C58.3632 121.933 58.1605 121.639 57.8799 121.391C57.6149 121.144 57.272 120.958 56.8511 120.819C56.4458 120.679 55.9626 120.617 55.417 120.617C54.8714 120.617 54.3725 120.695 53.9672 120.85C53.5619 121.004 53.2346 121.19 52.9696 121.438C52.7046 121.685 52.5019 121.979 52.3772 122.32C52.2525 122.66 52.1901 123 52.1901 123.372C52.1901 123.882 52.2837 124.362 52.4551 124.811C52.6266 125.26 52.8916 125.677 53.2502 126.064V126.142H52.0031H51.9875Z"
                fill="#231815" />
            <path
                d="M51.3951 133.739V132.671H55.3234V128.695H51.3951V127.627H59.4388V128.695H56.2899V132.671H59.4388V133.739H51.3951Z"
                fill="#231815" />
            <path
                d="M51.3951 138.691V135.534H52.2213V136.586H58.6126V135.534H59.4388V138.691H58.6126V137.638H52.2213V138.691H51.3951Z"
                fill="#231815" />
            <path
                d="M51.3951 146.582V145.267L58.5814 141.491H51.3951V140.501H59.4388V142.141L52.876 145.592H59.4388V146.582H51.3951Z"
                fill="#231815" />
            <path
                d="M52.0031 155.356C51.8004 154.923 51.629 154.443 51.4731 153.932C51.3172 153.422 51.2548 152.911 51.2548 152.431C51.2548 151.812 51.3484 151.24 51.5198 150.729C51.6913 150.203 51.9563 149.77 52.2993 149.398C52.6422 149.027 53.0787 148.749 53.6087 148.547C54.1387 148.346 54.7467 148.253 55.4481 148.253C56.7264 148.253 57.7396 148.625 58.4879 149.368C59.2361 150.11 59.5947 151.132 59.5947 152.431C59.5947 152.88 59.5323 153.344 59.4232 153.824C59.3141 154.304 59.127 154.814 58.862 155.356H57.5993V155.263C57.6773 155.155 57.802 154.984 57.9423 154.783C58.0826 154.567 58.2073 154.366 58.3008 154.164C58.4099 153.917 58.5035 153.638 58.5814 153.329C58.6594 153.019 58.6905 152.663 58.6905 152.261C58.6905 151.364 58.3944 150.667 57.8176 150.141C57.2408 149.615 56.4614 149.368 55.4793 149.368C54.4349 149.368 53.6243 149.646 53.0475 150.188C52.4707 150.729 52.1746 151.472 52.1746 152.4C52.1746 152.741 52.2057 153.081 52.2837 153.422C52.346 153.762 52.4396 154.056 52.5487 154.319H54.5128V152.184H55.4481V155.371H52.0031V155.356Z"
                fill="#231815" />
            <path
                d="M51.9875 167.24C51.894 167.039 51.816 166.868 51.7381 166.714C51.6601 166.559 51.5822 166.342 51.5043 166.095C51.4419 165.878 51.3795 165.646 51.3328 165.383C51.286 165.12 51.2548 164.841 51.2548 164.532C51.2548 163.959 51.3328 163.433 51.5043 162.953C51.6601 162.474 51.9251 162.071 52.2681 161.716C52.611 161.375 53.0475 161.112 53.5775 160.911C54.1075 160.725 54.7155 160.617 55.417 160.617C56.1184 160.617 56.664 160.71 57.194 160.895C57.724 161.081 58.1605 161.344 58.5191 161.7C58.862 162.041 59.127 162.443 59.3141 162.923C59.5011 163.402 59.5947 163.944 59.5947 164.516C59.5947 164.95 59.5479 165.367 59.4388 165.801C59.3297 166.234 59.1582 166.698 58.8932 167.224H57.6305V167.147C58.0046 166.714 58.2696 166.265 58.4411 165.832C58.6126 165.398 58.6905 164.934 58.6905 164.439C58.6905 164.037 58.6282 163.665 58.4879 163.356C58.3632 163.031 58.1605 162.737 57.8799 162.489C57.6149 162.242 57.272 162.056 56.8511 161.917C56.4458 161.777 55.9626 161.716 55.417 161.716C54.8714 161.716 54.3725 161.793 53.9672 161.948C53.5619 162.102 53.2346 162.288 52.9696 162.536C52.7046 162.783 52.5019 163.077 52.3772 163.418C52.2525 163.758 52.1901 164.099 52.1901 164.47C52.1901 164.981 52.2837 165.46 52.4551 165.909C52.6266 166.358 52.8916 166.775 53.2502 167.162V167.24H52.0031H51.9875Z"
                fill="#231815" />
            <path
                d="M51.3951 174.837V173.77H55.3234V169.793H51.3951V168.725H59.4388V169.793H56.2899V173.77H59.4388V174.837H51.3951Z"
                fill="#231815" />
            <path
                d="M51.3951 183.27V182.141L53.6399 181.352V177.901L51.3951 177.112V176.029L59.4388 178.938V180.346L51.3951 183.255V183.27ZM54.5596 181.027L58.5035 179.634L54.5596 178.226V181.027Z"
                fill="#231815" />
            <path
                d="M53.7022 194.133C53.3905 194.133 53.0787 194.056 52.7669 193.916C52.4551 193.777 52.2057 193.576 51.9875 193.313C51.7537 193.034 51.5822 192.694 51.4419 192.307C51.3172 191.92 51.2548 191.472 51.2548 190.93C51.2548 190.357 51.3172 189.831 51.4107 189.383C51.5198 188.918 51.6757 188.454 51.894 187.974H53.2346V188.052C52.8916 188.454 52.6422 188.918 52.4551 189.444C52.2681 189.971 52.1746 190.466 52.1746 190.93C52.1746 191.58 52.2993 192.106 52.5487 192.462C52.7981 192.833 53.1254 193.019 53.5463 193.019C53.9049 193.019 54.1699 192.926 54.3258 192.756C54.4972 192.586 54.6219 192.323 54.7155 191.967C54.7934 191.704 54.8402 191.41 54.8869 191.1C54.9337 190.791 54.9961 190.45 55.0584 190.11C55.2143 189.398 55.4637 188.872 55.8378 188.532C56.1964 188.191 56.6796 188.021 57.272 188.021C57.9423 188.021 58.5035 188.299 58.9244 188.872C59.3608 189.429 59.5635 190.156 59.5635 191.023C59.5635 191.58 59.5167 192.09 59.4076 192.57C59.2985 193.034 59.1582 193.452 59.0023 193.808H57.7396V193.731C58.0046 193.421 58.2073 193.034 58.3788 192.539C58.5502 192.044 58.6282 191.533 58.6282 191.023C58.6282 190.45 58.5035 190.002 58.2696 189.661C58.0358 189.321 57.724 189.15 57.3499 189.15C57.0226 189.15 56.7576 189.243 56.5549 189.414C56.3678 189.584 56.212 189.893 56.1184 190.326C56.0717 190.559 56.0093 190.884 55.9314 191.301C55.8534 191.719 55.7911 192.075 55.7131 192.369C55.5573 192.957 55.3234 193.406 54.9961 193.715C54.6687 194.009 54.2322 194.164 53.6555 194.164L53.7022 194.133Z"
                fill="#231815" />
            <path
                d="M51.3951 201.947V200.88H55.3234V196.903H51.3951V195.835H59.4388V196.903H56.2899V200.88H59.4388V201.947H51.3951Z"
                fill="#231815" />
            <path
                d="M58.5191 210.04C58.1605 210.365 57.724 210.612 57.194 210.783C56.6796 210.953 56.0873 211.046 55.417 211.046C54.7467 211.046 54.1699 210.953 53.6399 210.783C53.1099 210.612 52.6734 210.365 52.3304 210.04C51.9719 209.715 51.6913 209.328 51.5043 208.879C51.3172 208.431 51.2237 207.92 51.2237 207.347C51.2237 206.775 51.3172 206.28 51.5043 205.816C51.6913 205.351 51.9719 204.965 52.3149 204.64C52.6734 204.315 53.1099 204.067 53.6243 203.897C54.1387 203.727 54.7311 203.634 55.4014 203.634C56.0717 203.634 56.6484 203.727 57.1629 203.897C57.6773 204.067 58.1293 204.315 58.5035 204.64C58.862 204.949 59.127 205.351 59.3141 205.816C59.5011 206.28 59.5947 206.79 59.5947 207.332C59.5947 207.874 59.5011 208.415 59.3141 208.879C59.127 209.328 58.862 209.715 58.5035 210.04H58.5191ZM55.417 209.932C56.4614 209.932 57.272 209.699 57.8332 209.235C58.3944 208.771 58.6749 208.137 58.6749 207.332C58.6749 206.527 58.3944 205.877 57.8332 205.429C57.272 204.965 56.4614 204.732 55.417 204.732C54.3725 204.732 53.5619 204.965 53.0007 205.444C52.4396 205.908 52.159 206.543 52.159 207.347C52.159 208.152 52.4396 208.771 53.0007 209.235C53.5619 209.699 54.3725 209.947 55.417 209.947V209.932Z"
                fill="#231815" />
            <path
                d="M57.007 217.947C56.6485 217.947 56.3211 217.885 56.0093 217.761C55.6976 217.638 55.4481 217.467 55.2143 217.251C54.9337 216.972 54.7311 216.647 54.5908 216.276C54.4505 215.905 54.3881 215.425 54.3881 214.852V213.785H51.3951V212.717H59.4388V214.883C59.4388 215.363 59.392 215.765 59.3141 216.106C59.2361 216.431 59.1114 216.725 58.94 216.988C58.7373 217.297 58.4723 217.529 58.1761 217.684C57.8644 217.854 57.4902 217.932 57.0226 217.932L57.007 217.947ZM56.9758 216.833C57.2564 216.833 57.4902 216.786 57.6929 216.694C57.8955 216.601 58.067 216.446 58.1917 216.26C58.3008 216.09 58.3788 215.889 58.4255 215.672C58.4723 215.456 58.5035 215.177 58.5035 214.837V213.785H55.2923V214.682C55.2923 215.115 55.3234 215.456 55.4014 215.734C55.4793 215.997 55.604 216.214 55.7755 216.384C55.947 216.554 56.134 216.678 56.3211 216.74C56.5082 216.802 56.7264 216.848 56.9602 216.848L56.9758 216.833Z"
                fill="#231815" />
        </g>
        <g style="mix-blend-mode:multiply">
            <path
                d="M28.6983 99.0317C28.3866 99.0317 28.0748 98.9543 27.763 98.8151C27.4513 98.6758 27.2019 98.4746 26.9836 98.2116C26.7498 97.9331 26.5783 97.5926 26.438 97.2058C26.3133 96.819 26.251 96.3702 26.251 95.8286C26.251 95.2561 26.3133 94.73 26.4068 94.2813C26.516 93.8171 26.6718 93.3529 26.8901 92.8732H28.2307V92.9505C27.8878 93.3529 27.6383 93.8171 27.4513 94.3432C27.2642 94.8693 27.1707 95.3644 27.1707 95.8286C27.1707 96.4785 27.2954 97.0046 27.5448 97.3605C27.7942 97.7319 28.1216 97.9176 28.5425 97.9176C28.901 97.9176 29.166 97.8248 29.3219 97.6545C29.4934 97.4843 29.6181 97.2213 29.7116 96.8654C29.7895 96.6023 29.8363 96.3083 29.8831 95.9989C29.9298 95.6894 29.9922 95.349 30.0545 95.0085C30.2104 94.2968 30.4598 93.7706 30.834 93.4302C31.1925 93.0898 31.6757 92.9196 32.2681 92.9196C32.9384 92.9196 33.4996 93.1981 33.9205 93.7706C34.357 94.3277 34.5596 95.055 34.5596 95.9215C34.5596 96.4785 34.5128 96.9892 34.4037 97.4689C34.2946 97.9331 34.1543 98.3509 33.9984 98.7068H32.7358V98.6294C33.0008 98.3199 33.2034 97.9331 33.3749 97.4379C33.5464 96.9428 33.6399 96.4321 33.6399 95.9215C33.6399 95.349 33.5152 94.9002 33.2814 94.5598C33.0475 94.2194 32.7358 94.0492 32.3616 94.0492C32.0343 94.0492 31.7693 94.142 31.5666 94.3122C31.3796 94.4824 31.2237 94.7919 31.1301 95.2252C31.0834 95.4573 31.021 95.7822 30.9431 96.2C30.8651 96.6178 30.8028 96.9737 30.7248 97.2677C30.569 97.8557 30.3351 98.3044 30.0078 98.6139C29.6804 98.9079 29.2439 99.0626 28.6672 99.0626L28.6983 99.0317Z"
                fill="#231815" />
            <path
                d="M26.4068 103.55V100.393H27.233V101.446H33.6243V100.393H34.4505V103.55H33.6243V102.498H27.233V103.55H26.4068Z"
                fill="#231815" />
            <path
                d="M26.4068 111.442V110.126L33.5931 106.351H26.4068V105.36H34.4505V107.001L27.8877 110.451H34.4505V111.442H26.4068Z"
                fill="#231815" />
            <path
                d="M26.9836 119.72C26.8901 119.519 26.8121 119.349 26.7342 119.194C26.6563 119.039 26.5783 118.823 26.5004 118.575C26.438 118.358 26.3757 118.126 26.3289 117.863C26.2821 117.616 26.251 117.322 26.251 117.012C26.251 116.44 26.3289 115.914 26.5004 115.434C26.6563 114.954 26.9213 114.552 27.2642 114.196C27.6072 113.856 28.0436 113.592 28.5736 113.391C29.1036 113.206 29.7116 113.097 30.4131 113.097C31.1146 113.097 31.6602 113.19 32.1902 113.376C32.7046 113.562 33.1567 113.825 33.5152 114.18C33.8581 114.521 34.1231 114.923 34.3102 115.403C34.4973 115.883 34.5908 116.424 34.5908 116.997C34.5908 117.43 34.544 117.848 34.4349 118.281C34.3258 118.714 34.1543 119.178 33.8893 119.705H32.6266V119.627C33.0008 119.194 33.2658 118.745 33.4372 118.312C33.6087 117.879 33.6867 117.414 33.6867 116.919C33.6867 116.517 33.6243 116.146 33.484 115.836C33.3593 115.511 33.1567 115.217 32.8761 114.97C32.6111 114.722 32.2681 114.536 31.8472 114.397C31.4419 114.258 30.9587 114.196 30.4131 114.196C29.8675 114.196 29.3687 114.273 28.9634 114.428C28.5581 114.583 28.2307 114.768 27.9657 115.016C27.7007 115.264 27.498 115.558 27.3733 115.898C27.2486 116.238 27.1863 116.579 27.1863 116.95C27.1863 117.461 27.2798 117.941 27.4513 118.389C27.6227 118.838 27.8878 119.256 28.2463 119.643V119.72H26.9992H26.9836Z"
                fill="#231815" />
            <path
                d="M26.4068 126.482V121.221H34.4505V126.482H33.4996V122.289H31.3016V126.482H30.3507V122.289H27.3577V126.482H26.4068Z"
                fill="#231815" />
            <path
                d="M26.4068 136.757V132.439H27.233V134.095H32.6266V132.439H33.3593C33.3593 132.672 33.3749 132.904 33.4217 133.167C33.4528 133.43 33.5152 133.615 33.5931 133.755C33.6867 133.925 33.7958 134.049 33.9361 134.142C34.0764 134.234 34.2634 134.296 34.4973 134.312V135.147H27.2486V136.772H26.4224L26.4068 136.757Z"
                fill="#231815" />
            <path
                d="M30.9119 144.184C30.2104 144.184 29.5713 144.107 28.9945 143.952C28.4178 143.797 27.9345 143.549 27.5292 143.225C27.1239 142.9 26.7966 142.497 26.5783 142.002C26.3601 141.507 26.251 140.934 26.251 140.285C26.251 140.099 26.251 139.929 26.2821 139.758C26.2977 139.588 26.3289 139.449 26.3757 139.325H27.4045V139.372C27.3422 139.48 27.2954 139.619 27.2486 139.805C27.2019 139.991 27.1707 140.207 27.1707 140.439C27.1707 141.228 27.4045 141.847 27.8877 142.296C28.371 142.745 29.0257 143.008 29.8675 143.07C29.6648 142.745 29.5245 142.42 29.431 142.126C29.3375 141.832 29.3063 141.507 29.3063 141.167C29.3063 140.842 29.3375 140.548 29.3998 140.269C29.4622 140.006 29.5869 139.743 29.774 139.464C29.9922 139.155 30.2728 138.907 30.6157 138.753C30.9587 138.598 31.364 138.521 31.8316 138.521C32.6578 138.521 33.3281 138.784 33.8425 139.325C34.357 139.867 34.622 140.517 34.622 141.29C34.622 141.677 34.5596 142.033 34.4349 142.358C34.3102 142.683 34.1387 142.977 33.8893 143.225C33.5931 143.534 33.2034 143.766 32.7358 143.921C32.2681 144.091 31.6602 144.168 30.9119 144.168V144.184ZM31.1301 143.101C31.6913 143.101 32.1434 143.039 32.4708 142.931C32.8137 142.822 33.0787 142.652 33.2658 142.466C33.4217 142.296 33.5464 142.11 33.6087 141.925C33.6711 141.739 33.7178 141.522 33.7178 141.29C33.7178 140.78 33.5619 140.377 33.2346 140.068C32.9072 139.774 32.4552 139.619 31.8628 139.619C31.5199 139.619 31.2393 139.666 31.021 139.758C30.8028 139.851 30.6157 140.021 30.4598 140.254C30.3507 140.408 30.2728 140.594 30.2416 140.78C30.2104 140.965 30.1793 141.182 30.1793 141.43C30.1793 141.708 30.2104 141.987 30.2884 142.281C30.3663 142.559 30.4754 142.838 30.6157 143.085C30.6937 143.085 30.7716 143.085 30.834 143.085C30.9119 143.085 31.0054 143.085 31.1146 143.085L31.1301 143.101Z"
                fill="#231815" />
            <path
                d="M30.9119 151.147C30.2104 151.147 29.5713 151.07 28.9945 150.915C28.4178 150.76 27.9345 150.513 27.5292 150.188C27.1239 149.863 26.7966 149.461 26.5783 148.965C26.3601 148.47 26.251 147.898 26.251 147.248C26.251 147.062 26.251 146.892 26.2821 146.722C26.2977 146.551 26.3289 146.412 26.3757 146.288H27.4045V146.335C27.3422 146.443 27.2954 146.582 27.2486 146.768C27.2019 146.954 27.1707 147.17 27.1707 147.403C27.1707 148.192 27.4045 148.811 27.8877 149.259C28.371 149.708 29.0257 149.971 29.8675 150.033C29.6648 149.708 29.5245 149.383 29.431 149.089C29.3375 148.795 29.3063 148.47 29.3063 148.13C29.3063 147.805 29.3375 147.511 29.3998 147.232C29.4622 146.969 29.5869 146.706 29.774 146.428C29.9922 146.118 30.2728 145.871 30.6157 145.716C30.9587 145.561 31.364 145.484 31.8316 145.484C32.6578 145.484 33.3281 145.747 33.8425 146.288C34.357 146.83 34.622 147.48 34.622 148.254C34.622 148.64 34.5596 148.996 34.4349 149.321C34.3102 149.646 34.1387 149.94 33.8893 150.188C33.5931 150.497 33.2034 150.729 32.7358 150.884C32.2681 151.054 31.6602 151.132 30.9119 151.132V151.147ZM31.1301 150.064C31.6913 150.064 32.1434 150.002 32.4708 149.894C32.8137 149.785 33.0787 149.615 33.2658 149.43C33.4217 149.259 33.5464 149.074 33.6087 148.888C33.6711 148.702 33.7178 148.486 33.7178 148.254C33.7178 147.743 33.5619 147.341 33.2346 147.031C32.9072 146.737 32.4552 146.582 31.8628 146.582C31.5199 146.582 31.2393 146.629 31.021 146.722C30.8028 146.815 30.6157 146.985 30.4598 147.217C30.3507 147.372 30.2728 147.557 30.2416 147.743C30.2104 147.929 30.1793 148.145 30.1793 148.393C30.1793 148.671 30.2104 148.95 30.2884 149.244C30.3663 149.522 30.4754 149.801 30.6157 150.049C30.6937 150.049 30.7716 150.049 30.834 150.049C30.9119 150.049 31.0054 150.049 31.1146 150.049L31.1301 150.064Z"
                fill="#231815" />
            <path
                d="M28.6672 158.327V157.135H26.4068V156.114H28.6672V152.292H29.9142L34.4505 156.161V157.151H29.5401V158.342H28.6828L28.6672 158.327ZM29.5245 156.114H33.1566L29.5245 153.019V156.114Z"
                fill="#231815" />
        </g>
        <g style="mix-blend-mode:multiply">
            <path
                d="M101.169 125.817V125.786C101.278 125.383 101.403 125.058 101.528 124.826C101.902 124.114 102.479 124.022 104.084 123.387C105.472 122.908 107.529 122.211 110.304 121.283C111.161 120.989 112.003 120.71 112.86 120.416C113.718 120.122 114.466 119.859 115.121 119.643C115.776 119.426 116.352 119.209 116.882 119.039C117.397 118.853 117.802 118.714 118.067 118.621L118.504 118.451C118.55 118.343 118.566 117.925 118.535 117.213C118.535 117.105 118.535 117.028 118.504 116.997C118.426 116.935 115.776 116.022 110.569 114.273C107.373 113.206 105.113 112.447 103.772 111.999C102.557 111.534 101.699 111.318 101.45 110.9C101.325 110.683 101.231 110.343 101.185 109.848V109.817C101.154 109.306 101.013 109.059 100.779 109.059C100.514 109.059 100.39 109.291 100.39 109.77C100.39 109.801 100.421 110.142 100.468 110.761C100.514 111.38 100.499 112.463 100.436 113.298C100.374 114.134 100.327 114.521 100.327 114.459C100.327 114.846 100.452 115.047 100.701 115.047C100.998 115.047 101.2 114.629 101.325 113.809C101.341 113.701 101.356 113.608 101.372 113.561C101.465 112.912 101.59 112.633 102.042 112.633C102.432 112.633 102.962 112.803 104.084 113.19C105.16 113.546 105.752 113.747 105.861 113.84C106.157 114.01 106.313 114.412 106.345 115.016V117.074C106.345 118.652 106.329 119.519 106.298 119.674C106.22 120.045 105.97 120.308 105.581 120.463C105.534 120.478 105.019 120.648 104.037 120.958C103.507 121.128 103.102 121.252 102.759 121.345C102.401 121.438 102.073 121.499 101.917 121.499C101.45 121.499 101.403 121.205 101.325 120.385C101.325 120.323 101.309 120.262 101.309 120.215C101.263 119.457 101.029 119.086 100.748 119.086C100.468 119.086 100.343 119.333 100.343 119.813L100.421 121.252C100.468 122.18 100.468 123.124 100.421 124.084C100.374 125.027 100.343 125.569 100.343 125.693C100.343 126.157 100.483 126.389 100.779 126.389C100.92 126.389 101.044 126.203 101.154 125.848L101.169 125.817ZM107.482 119.364C107.373 119.163 107.358 117.956 107.436 115.759C107.451 115.124 107.482 114.768 107.514 114.706C107.592 114.567 107.701 114.505 107.857 114.521C108.122 114.536 109.306 114.892 111.364 115.573C113.468 116.269 114.606 116.672 114.778 116.764C115.136 116.95 115.105 117.151 114.684 117.368C114.482 117.461 113.375 117.848 111.364 118.513C109.119 119.24 107.903 119.596 107.701 119.581C107.623 119.55 107.545 119.472 107.482 119.364Z"
                fill="#231815" />
            <path
                d="M101.278 148.284C101.294 147.99 101.325 147.774 101.356 147.635C101.45 147.17 101.59 147.016 101.777 146.861C101.98 146.66 102.447 146.551 103.18 146.536H103.258C106.578 146.459 110.678 146.474 115.573 146.582C116.352 146.598 116.789 146.613 116.851 146.629C117.069 146.737 117.21 146.923 117.256 147.186C117.303 147.371 117.35 147.65 117.381 147.99C117.444 148.609 117.459 148.841 117.599 148.95C117.709 149.027 117.786 149.043 117.958 149.043C117.958 149.043 118.176 149.043 118.27 148.934C118.363 148.811 118.363 148.424 118.363 148.424V146.52C118.379 146.242 118.379 145.994 118.379 145.762V145.159C118.379 144.989 118.379 144.834 118.379 144.695C118.379 144.555 118.379 144.431 118.379 144.354C118.379 144.277 118.379 144.091 118.27 143.983C118.129 143.828 118.145 143.859 117.755 143.704C117.459 143.58 117.054 143.426 116.524 143.225C114.497 142.451 112.845 141.801 111.535 141.321C106.828 139.511 104.365 138.521 104.131 138.366C104.037 138.273 104.006 138.18 104.053 138.072C104.1 137.963 104.786 137.639 106.095 137.097C106.968 136.726 108.73 136.014 111.395 134.946C112.112 134.652 112.845 134.374 113.562 134.08C114.279 133.786 114.918 133.523 115.464 133.306C116.009 133.089 116.508 132.888 116.945 132.702C117.381 132.532 117.724 132.377 117.974 132.269C117.974 132.269 118.176 132.176 118.254 132.052C118.394 131.851 118.379 131.851 118.394 131.387C118.426 130.722 118.426 129.623 118.394 128.076C118.379 127.565 118.394 127.395 118.301 127.287C118.129 127.163 117.709 127.178 117.615 127.271C117.553 127.318 117.521 127.379 117.49 127.503C117.459 127.658 117.428 127.906 117.397 128.231C117.288 128.973 117.163 129.422 117.007 129.546C116.96 129.561 116.929 129.577 116.913 129.592C116.695 129.685 113.032 129.7 105.97 129.639C104.786 129.639 103.882 129.623 103.227 129.608C101.98 129.53 101.387 129.298 101.387 128.571V127.828C101.387 127.41 101.216 127.209 100.889 127.209C100.53 127.209 100.343 127.534 100.343 128.2C100.343 128.292 100.359 128.664 100.39 129.345C100.421 130.025 100.421 130.103 100.39 130.846C100.359 131.588 100.343 132.006 100.343 132.083C100.343 132.811 100.53 133.182 100.889 133.182C101.216 133.182 101.387 132.919 101.387 132.377V132.068C101.387 132.068 101.387 131.434 101.808 131.186C102.12 131 102.744 130.923 103.507 130.907C104.162 130.907 105.347 130.892 107.108 130.877C108.106 130.877 109.306 130.876 110.74 130.846C113.203 130.83 114.466 130.846 114.513 130.892L114.544 130.923C114.544 130.923 114.575 130.923 114.591 130.954C114.716 131.031 114.7 131.124 114.544 131.217C114.217 131.403 111.847 132.408 107.405 134.203H107.358L107.327 134.234H107.295L107.264 134.265H107.233C102.712 136.107 100.436 137.066 100.405 137.112C100.327 137.221 100.312 137.515 100.374 137.994C100.39 138.056 100.405 138.103 100.421 138.134C100.468 138.18 102.712 139.062 107.14 140.78C111.863 142.606 114.357 143.642 114.653 143.859C114.809 143.983 114.762 144.076 114.482 144.122C114.435 144.137 114.373 144.153 114.295 144.168C113.843 144.246 110.382 144.246 103.897 144.168H103.133C102.354 144.168 101.839 144.045 101.621 143.797C101.403 143.549 101.294 143.209 101.294 142.373C101.294 141.987 101.154 141.801 100.857 141.801C100.53 141.801 100.374 142.064 100.374 142.59C100.374 142.621 100.405 143.101 100.468 144.014C100.53 144.942 100.53 146.025 100.468 146.907C100.405 147.789 100.374 148.253 100.374 148.3C100.374 148.811 100.53 149.074 100.857 149.074C101.122 149.074 101.263 148.811 101.294 148.3L101.278 148.284Z"
                fill="#231815" />
            <path
                d="M101.309 158.095C101.325 157.785 101.356 157.6 101.387 157.522C101.496 157.058 101.652 156.532 101.839 156.424C102.042 156.3 102.541 156.238 103.336 156.238H115.963C116.415 156.269 116.711 156.315 116.851 156.393C117.054 156.501 117.21 156.795 117.303 157.244C117.303 157.259 117.319 157.553 117.319 157.584C117.366 157.878 117.381 158.048 117.381 158.095V158.126C117.443 158.559 117.599 158.776 117.849 158.776C118.192 158.776 118.363 158.543 118.363 158.079L118.27 156.764C118.207 156.099 118.176 155.681 118.176 155.015C118.176 154.211 118.239 153.19 118.363 151.967C118.363 151.503 118.192 151.271 117.849 151.271C117.553 151.271 117.397 151.487 117.381 151.936C117.366 152.246 117.334 152.431 117.303 152.509C117.194 152.973 117.038 153.499 116.851 153.607C116.648 153.731 116.15 153.793 115.355 153.793H103.071C102.432 153.793 102.011 153.731 101.824 153.623C101.621 153.515 101.465 153.221 101.372 152.772C101.372 152.756 101.356 152.462 101.356 152.431C101.309 152.137 101.294 151.967 101.294 151.921V151.89C101.231 151.457 101.076 151.24 100.826 151.24C100.483 151.24 100.312 151.472 100.312 151.936L100.405 153.251C100.468 153.917 100.499 154.335 100.499 155C100.499 155.805 100.436 156.826 100.312 158.048C100.312 158.513 100.483 158.745 100.826 158.745C101.122 158.745 101.278 158.528 101.294 158.079L101.309 158.095Z"
                fill="#231815" />
            <path
                d="M118.394 177.514C118.394 177.514 118.379 177.158 118.348 176.586C118.316 176.013 118.301 175.595 118.301 175.332C118.301 175.116 118.316 174.683 118.348 174.048C118.379 173.414 118.394 173.027 118.394 172.903C118.394 172.3 118.239 172.006 117.911 172.006C117.584 172.006 117.443 172.207 117.443 172.625C117.443 173.801 117.178 174.683 116.633 174.806C116.539 174.822 116.383 174.853 116.228 174.868C115.121 174.93 112.595 174.946 108.652 174.93C106.641 174.93 105.581 174.899 105.456 174.853C105.3 174.775 105.222 174.713 105.238 174.683C105.238 174.543 106.079 173.847 107.763 172.625C108.324 172.222 109.758 171.201 112.065 169.545C112.549 169.205 113.016 168.864 113.484 168.524C113.952 168.184 114.388 167.874 114.778 167.58C115.183 167.286 115.557 167.008 115.931 166.745C116.306 166.466 116.633 166.234 116.913 166.033C117.21 165.832 117.459 165.646 117.662 165.491C117.802 165.383 117.896 165.305 118.005 165.228C118.301 164.981 118.363 164.609 118.363 164.609C118.363 164.269 118.379 163.727 118.379 162.923V161.251H118.348C118.348 161.251 118.348 160.895 117.942 160.895C117.537 160.895 117.428 161.251 117.412 161.391C117.319 162.257 117.147 162.752 116.882 162.892C116.836 162.923 116.789 162.953 116.758 162.969C116.493 163.062 104.723 163.015 104.723 163.015C104.583 163.015 104.443 163.015 104.318 163.015C103.055 163 102.229 162.907 101.839 162.721C101.419 162.52 101.325 162.319 101.325 161.7V161.391C101.325 160.973 101.169 160.756 100.873 160.756C100.499 160.756 100.312 161.035 100.312 161.607C100.312 161.716 100.327 162.056 100.374 162.629C100.421 163.201 100.436 163.588 100.436 163.789C100.436 164.021 100.421 164.454 100.374 165.073C100.327 165.692 100.312 166.048 100.312 166.157C100.312 166.76 100.499 167.069 100.873 167.069C101.169 167.069 101.325 166.853 101.325 166.404V165.955C101.325 165.321 101.512 164.656 101.886 164.454C102.26 164.269 103.118 164.16 104.427 164.16C104.832 164.16 106.033 164.16 107.03 164.16H109.026C112.502 164.16 114.341 164.207 114.544 164.3C114.622 164.346 114.622 164.439 114.544 164.594C114.497 164.702 114.139 165.011 113.468 165.507C112.938 165.893 110.896 167.363 107.327 169.948C103.445 172.748 101.216 174.358 100.577 174.822C100.577 174.822 100.514 174.868 100.499 174.884C100.374 174.977 100.187 175.178 100.187 175.518C100.187 176.013 100.67 176.029 100.701 176.029C101.652 176.044 104.24 176.06 108.511 176.06C111.224 176.06 113.281 176.075 114.669 176.106C115.729 176.137 116.461 176.214 116.836 176.385C117.225 176.555 117.428 176.864 117.428 177.437V177.87C117.428 178.164 117.568 178.319 117.864 178.319C118.207 178.319 118.379 178.056 118.379 177.53L118.394 177.514Z"
                fill="#231815" />
            <path
                d="M108.917 196.114C108.917 196.114 108.901 195.974 108.87 195.758C108.73 194.876 108.714 191.905 108.792 191.131C108.87 190.357 108.917 190.002 108.917 190.063C108.917 189.738 108.776 189.584 108.496 189.584C108.215 189.584 108.044 189.816 108.028 190.296C108.028 190.512 107.981 191.363 107.935 191.595C107.857 191.982 107.732 192.214 107.56 192.307C107.389 192.4 107.015 192.446 106.438 192.446H105.472C103.819 192.446 102.416 192.446 102.073 192.323C101.73 192.214 101.512 191.951 101.403 191.564C101.387 191.456 101.356 191.286 101.309 191.069C100.795 188.532 101.341 186.489 102.946 184.926C104.162 183.766 105.83 183.054 107.935 182.806C110.74 182.466 113.094 182.961 114.981 184.261C116.68 185.421 117.584 186.969 117.693 188.887C117.724 189.506 117.662 190.125 117.521 190.744C117.366 191.502 117.163 191.982 116.913 192.183C116.633 192.369 115.947 192.586 114.84 192.802C114.528 192.864 114.295 192.926 114.108 192.972C113.905 193.034 113.515 193.236 113.515 193.777C113.515 194.319 113.983 194.412 114.248 194.427C114.528 194.427 114.871 194.427 115.339 194.427H115.526C116.742 194.412 117.397 194.381 117.506 194.334C117.584 194.272 117.677 194.133 117.771 193.932C118.613 192.276 118.94 190.388 118.784 188.268C118.753 187.851 118.691 187.464 118.613 187.077C118.067 184.431 116.648 182.481 114.373 181.197C112.33 180.067 110.086 179.711 107.654 180.129C105.207 180.547 103.274 181.63 101.871 183.379C100.764 184.74 100.14 186.365 100.016 188.222C99.9221 189.738 100.14 191.332 100.686 193.019C100.842 193.499 101.013 193.87 101.185 194.195C101.341 194.396 101.73 194.814 102.494 194.814H106.407C106.984 194.814 107.373 194.845 107.529 194.953C107.997 195.232 107.997 195.711 107.997 195.912C108.012 196.33 108.168 196.547 108.465 196.547C108.761 196.547 108.885 196.408 108.885 196.114H108.917Z"
                fill="#231815" />
            <path
                d="M113.702 108.455C116.306 107.264 117.833 105.02 118.316 101.724C118.348 101.585 118.363 101.152 118.379 100.471C118.379 100.037 118.426 99.2793 118.332 98.1806C118.254 97.082 118.207 96.4476 118.207 96.2464C118.207 95.9988 118.239 95.5191 118.301 94.8228C118.363 94.1265 118.457 93.7087 118.457 93.554C118.457 93.0898 118.254 92.8577 117.974 92.8577C117.771 92.8577 117.521 93.0743 117.459 93.5076V93.5385C117.459 93.5385 117.443 93.9872 117.412 94.2812C117.412 94.3122 117.412 94.3431 117.412 94.3586C117.334 94.8074 117.21 95.0395 117.054 95.1632C116.882 95.2716 116.477 95.3954 115.822 95.3954C115.729 95.3954 115.651 95.3954 115.542 95.3954C114.887 95.4108 113.889 95.4263 112.533 95.4263C111.38 95.4263 110.366 95.4263 109.4 95.4263C108.433 95.4263 107.42 95.4263 106.267 95.4263C104.926 95.4263 103.913 95.4263 103.258 95.3954C103.149 95.3954 103.071 95.3954 102.977 95.3799C102.323 95.3799 101.917 95.2716 101.746 95.1632C101.574 95.0549 101.465 94.8228 101.387 94.3586C101.387 94.3431 101.387 94.3122 101.387 94.2812C101.356 93.9872 101.341 93.5849 101.341 93.5385V93.5076C101.294 93.0743 101.029 92.8577 100.826 92.8577C100.546 92.8577 100.343 93.0898 100.343 93.554C100.343 93.6932 100.436 94.111 100.499 94.8228C100.561 95.5191 100.592 95.9988 100.592 96.2464C100.592 96.4476 100.546 97.082 100.468 98.1806C100.39 99.2793 100.421 100.037 100.421 100.471C100.436 101.152 100.468 101.585 100.483 101.724C100.966 105.02 102.51 107.264 105.097 108.455C106.345 109.028 107.779 109.322 109.4 109.322C111.021 109.322 112.455 109.043 113.702 108.455ZM101.574 101.6C101.481 101.198 101.45 100.78 101.419 100.362C101.419 99.4649 101.559 98.5829 101.902 98.2735C102.245 97.964 102.899 97.8402 103.882 97.8402C105.16 97.8093 106.999 97.8092 109.4 97.8092C111.8 97.8092 113.64 97.8093 114.918 97.8402C115.9 97.8402 116.555 97.964 116.898 98.2735C117.241 98.5829 117.381 99.4649 117.381 100.362C117.366 100.78 117.319 101.198 117.225 101.6C116.493 104.881 113.889 106.521 109.4 106.536C104.926 106.521 102.323 104.865 101.574 101.6Z"
                fill="#231815" />
        </g>
        <g style="mix-blend-mode:multiply">
            <path d="M67.7631 91.7437V218.024" stroke="#231815" stroke-width="0.25"
                stroke-miterlimit="10" />
        </g>
        <g style="mix-blend-mode:multiply">
            <path
                d="M84.1621 111.689C84.0686 111.612 84.0374 111.318 84.0686 110.838C84.1465 109.77 84.1777 108.997 84.1777 108.532C84.1777 107.913 84.0842 107.558 83.8815 107.465C83.8348 107.465 83.7412 107.449 83.6009 107.449C82.3694 107.403 81.3874 107.418 80.6703 107.511L80.265 107.573L80.1559 107.449C80.1559 107.449 80.0935 107.372 80.0468 107.294C79.7817 106.846 79.6726 106.614 79.7194 106.583H79.8753C79.8753 106.583 79.9688 106.583 80.0312 106.583C80.0935 106.583 80.1559 106.583 80.2182 106.598C80.2962 106.598 80.3585 106.614 80.4365 106.629C82.728 106.908 83.975 106.908 84.1465 106.614C84.1777 106.552 84.1933 106.211 84.1933 105.577C84.2556 102.962 84.24 101.523 84.1465 101.291C84.1465 101.291 84.1465 101.26 84.1309 101.229C84.0218 100.997 83.7412 101.182 83.3047 101.786C81.5744 104.122 79.392 106.057 76.7264 107.588C76.7264 107.588 76.6952 107.588 76.6796 107.604C75.9626 108.006 75.5573 108.192 75.4793 108.13C75.3858 108.053 75.5105 107.867 75.869 107.573C76.3835 107.186 76.9135 106.737 77.4435 106.227C79.5479 104.184 81.2003 101.848 82.4006 99.2018C82.4786 99.047 82.5253 98.8923 82.5721 98.7685C82.6812 98.4281 82.65 98.2114 82.463 98.1031C82.385 98.0567 81.9485 98.0412 81.1847 98.0257C78.7529 97.9793 77.1005 98.0257 76.2276 98.1495H76.212C76.0561 98.1805 75.947 98.165 75.8846 98.1341C75.8223 98.1031 75.7287 97.9639 75.604 97.7317C75.4793 97.4996 75.4014 97.3449 75.3858 97.2675C75.3858 97.2056 75.417 97.1747 75.5105 97.1902C75.8067 97.2521 76.477 97.3294 77.5214 97.4223C77.7552 97.4223 78.1605 97.4532 78.7529 97.4687C81.9797 97.5615 83.6789 97.577 83.8659 97.4842C83.9439 97.4377 84.0218 97.4068 84.0842 97.3604C84.1777 97.2521 84.2089 96.432 84.2089 94.9155C84.2089 93.3991 84.2089 92.6719 84.2556 92.5945C84.2556 92.5945 84.3803 92.5945 84.6142 92.5945C84.8636 92.5945 85.1286 92.6254 85.4404 92.6409C85.7365 92.6564 86.0483 92.6873 86.3445 92.7183C86.6407 92.7492 86.8589 92.7802 86.9992 92.8111C87.0304 92.8111 87.0616 92.8575 87.1083 92.8885C87.1395 93.0432 87.0148 93.1825 86.7186 93.3372C86.5939 93.3991 86.4848 93.4765 86.4224 93.5384C86.3133 93.6931 86.251 94.3275 86.251 95.4571C86.251 96.0761 86.251 96.4939 86.2666 96.726C86.2666 97.0664 86.3601 97.283 86.5004 97.3604L86.6563 97.4687H91.1613L91.3796 97.3604C91.5043 97.2985 91.7381 97.0664 92.0655 96.6331C92.3149 96.3391 92.4708 96.138 92.5643 96.0451C92.6578 95.9213 92.7513 95.8749 92.8293 95.9059L92.8916 95.9523C92.8916 95.9523 92.9852 96.0296 93.0475 96.0915C93.1099 96.138 93.1722 96.1999 93.2502 96.2617C93.3281 96.3236 93.4061 96.3855 93.4996 96.4629C93.5931 96.5403 93.6711 96.6176 93.7646 96.6795C93.8581 96.7569 93.9517 96.8343 94.0608 96.9116C94.1543 96.989 94.2478 97.0509 94.3414 97.1283C94.4193 97.1902 94.5128 97.2675 94.5752 97.314C94.6531 97.3759 94.7155 97.4223 94.7623 97.4687C94.9181 97.6234 95.0117 97.7472 95.0273 97.8401C94.9961 97.9639 94.809 98.0257 94.4817 98.0567C94.1387 98.0722 92.9852 98.0876 91.021 98.0876H88.5425C87.5136 98.0876 86.968 98.196 86.9213 98.3662C86.8901 98.4435 87.0304 98.7221 87.3266 99.1863C87.6851 99.7433 88.0904 100.3 88.5269 100.857C90.3196 103.055 92.4552 104.726 94.9026 105.871C94.9961 105.917 95.0896 105.964 95.1676 106.01C95.417 106.149 95.3858 106.273 95.074 106.382C95.074 106.382 95.0273 106.382 94.9961 106.397C94.3414 106.645 93.8737 107.109 93.5775 107.79C93.5775 107.836 93.5464 107.867 93.5152 107.913C93.4372 107.991 93.2658 107.944 93.0008 107.743C90.5066 105.995 88.5425 103.472 87.0772 100.177C86.9524 99.8826 86.8433 99.6505 86.7498 99.5112C86.5939 99.2327 86.4536 99.1863 86.3445 99.4029C86.3133 99.4957 86.2977 100.084 86.2821 101.182C86.2354 104.664 86.2821 106.474 86.3757 106.629C86.4068 106.691 86.4536 106.737 86.5004 106.784C86.9057 107.171 87.4824 106.877 88.2307 105.886C88.4489 105.592 88.5892 105.422 88.6672 105.391C88.7451 105.391 88.9478 105.53 89.2907 105.84C89.7116 106.196 89.961 106.412 90.0701 106.505C90.569 106.954 90.756 107.233 90.6313 107.325C90.5222 107.403 89.8051 107.449 88.5113 107.465C87.6851 107.465 87.2174 107.465 87.0616 107.48C86.6251 107.527 86.3757 107.666 86.3133 107.929C86.2665 108.084 86.2821 108.718 86.3601 109.848C86.3913 110.327 86.4068 110.668 86.4068 110.884V111.256L86.251 111.38C86.1107 111.488 85.908 111.596 85.6742 111.689C85.0195 111.937 84.5674 111.968 84.318 111.813C84.2712 111.782 84.2401 111.751 84.2089 111.735L84.1621 111.689Z"
                fill="#231815" />
            <path
                d="M77.9579 132.965C77.88 132.873 77.88 132.331 77.9579 131.341C78.0047 130.629 78.0358 129.716 78.067 128.571C78.1605 124.826 78.1605 122.83 78.0202 122.583C77.9891 122.521 77.9423 122.474 77.8955 122.443C77.7864 122.397 77.4591 122.66 76.9446 123.201C76.8511 123.31 76.7576 123.418 76.6641 123.511C75.9158 124.3 75.4793 124.625 75.3546 124.517C75.3234 124.47 75.4482 124.223 75.6976 123.743C75.8379 123.511 75.9938 123.248 76.1652 122.969C77.6305 120.432 78.7529 117.631 79.5479 114.598C79.657 114.18 79.735 113.948 79.7662 113.933C79.7662 113.933 79.8285 113.933 79.9688 113.964C80.1091 113.995 80.265 114.041 80.4676 114.103C80.6547 114.165 80.8729 114.211 81.1068 114.273C81.3406 114.335 81.5588 114.397 81.7615 114.459C81.9641 114.521 82.1356 114.567 82.2759 114.629C82.4162 114.675 82.4941 114.706 82.5097 114.722C82.5409 114.753 82.5253 114.799 82.4941 114.861C82.385 115.016 82.2291 115.093 82.0577 115.093C82.0577 115.093 82.0265 115.093 82.0109 115.109C81.8394 115.202 81.6835 115.418 81.5432 115.759C81.2471 116.532 80.8418 117.383 80.3585 118.327C80.1091 118.822 79.9844 119.147 79.9688 119.302C79.9688 119.488 80.0935 119.643 80.4053 119.766C80.4832 119.797 80.53 119.828 80.5612 119.844C80.7638 119.998 80.7015 120.107 80.3897 120.184C80.3273 120.231 80.265 120.292 80.2026 120.416C80.2026 120.478 80.1715 120.819 80.1559 121.468C80.0623 125.198 80.0623 127.998 80.1559 129.886V130.257C80.187 130.49 80.2026 130.644 80.2026 130.753C80.2026 130.861 80.2026 130.985 80.2026 131.155C80.2026 131.325 80.2026 131.48 80.2026 131.604L80.265 132.517L80.1091 132.625C79.9844 132.733 79.7973 132.842 79.5635 132.934C78.9088 133.197 78.4567 133.259 78.1605 133.136C78.067 133.089 78.0047 133.058 77.9423 133.012L77.9579 132.965ZM80.8418 131.48C80.8418 131.387 81.0912 131.372 81.5588 131.433C81.6679 131.433 81.8706 131.464 82.1356 131.495C82.4162 131.526 82.6033 131.542 82.6812 131.557C83.1333 131.604 84.053 131.619 85.4248 131.619C86.4536 131.619 87.1395 131.619 87.4669 131.619C87.841 131.619 88.0904 131.542 88.1995 131.418C88.2463 131.356 88.3086 131.139 88.4178 130.753C88.9478 128.679 89.5245 125.677 90.1169 121.762C90.2728 120.772 90.3663 120.246 90.3975 120.2L90.6157 120.246C90.756 120.246 90.9431 120.292 91.1613 120.339C91.3796 120.385 91.6134 120.432 91.8472 120.494C92.0966 120.555 92.3149 120.602 92.5331 120.664C92.7358 120.726 92.9228 120.757 93.0631 120.803C93.2034 120.834 93.2814 120.865 93.2969 120.88C93.3593 120.973 93.2502 121.097 93.0008 121.221C92.8605 121.283 92.7358 121.329 92.6578 121.407C92.5643 121.499 92.3616 121.995 92.081 122.892C91.9875 123.201 91.8784 123.542 91.7537 123.913C90.7404 126.977 89.7739 129.375 88.8698 131.093C88.7763 131.263 88.7607 131.403 88.7763 131.48C88.8386 131.619 89.3219 131.681 90.2416 131.681C91.0054 131.681 91.4731 131.635 91.6602 131.557C91.816 131.495 92.081 131.217 92.4552 130.737C92.5019 130.691 92.5487 130.629 92.6111 130.536C92.8293 130.257 92.9852 130.134 93.0631 130.149C93.1566 130.149 93.4217 130.366 93.8893 130.753C94.4661 131.217 94.8558 131.526 95.0584 131.712C95.2299 131.882 95.2767 132.021 95.1832 132.099C95.152 132.13 95.1208 132.145 95.074 132.161C94.9026 132.223 92.7981 132.269 88.7607 132.269C84.7233 132.269 82.6812 132.269 82.3227 132.315C81.8706 132.362 81.6524 132.377 81.6368 132.377H81.3718L81.2627 132.238C81.0132 131.867 80.8885 131.635 80.8729 131.526L80.8418 131.48ZM81.6991 119.024C81.4185 118.544 81.3094 118.296 81.3562 118.25C81.3562 118.25 81.4029 118.234 81.4809 118.25C81.5588 118.265 81.668 118.265 81.7927 118.281C82.463 118.389 83.3515 118.467 84.4271 118.497C85.2377 118.528 85.6898 118.544 85.7989 118.559C86.0951 118.559 86.3289 118.482 86.4692 118.296C86.6874 117.909 86.6563 116.733 86.3757 114.768C86.2977 114.273 86.2665 113.995 86.2977 113.979L86.9836 114.041C87.4357 114.087 87.9189 114.118 88.4022 114.18C88.8854 114.227 89.1816 114.258 89.2595 114.273C89.3219 114.273 89.3531 114.335 89.3531 114.397C89.3531 114.567 89.2284 114.675 89.0101 114.768C88.9478 114.799 88.901 114.83 88.8386 114.877C88.7451 114.969 88.6828 115.527 88.6672 116.532V116.919C88.6672 117.755 88.6983 118.219 88.8231 118.343C88.9166 118.467 89.2595 118.528 89.8207 118.528H90.0545C90.7093 118.528 91.1301 118.497 91.3016 118.42C91.4263 118.358 91.6757 118.126 92.0187 117.708C92.2993 117.337 92.5019 117.12 92.5955 117.058C92.6734 117.058 92.9072 117.229 93.3281 117.569C94.279 118.312 94.7467 118.745 94.7467 118.853C94.7467 118.915 94.7311 118.977 94.6843 119.008C94.5284 119.07 92.5331 119.101 88.7139 119.116H88.6672C84.6609 119.116 82.4474 119.178 82.0265 119.256C81.9485 119.256 81.9018 119.256 81.855 119.24C81.8238 119.209 81.7771 119.147 81.6991 119.055V119.024ZM84.7856 129.84C84.5674 129.669 84.4583 129.345 84.4583 128.818C84.4583 128.261 84.4427 127.673 84.3959 127.07C84.2245 124.3 83.788 122.134 83.0865 120.586C83.0865 120.54 83.0865 120.478 83.1644 120.416L83.2892 120.339L83.4606 120.54C83.9439 121.066 84.4115 121.701 84.8636 122.443C85.8924 124.161 86.438 125.739 86.5004 127.194C86.5471 128.029 86.4224 128.757 86.1107 129.329C85.7989 129.979 85.4092 130.196 84.9727 129.963C84.8948 129.917 84.8324 129.886 84.7856 129.84Z"
                fill="#231815" />
            <path
                d="M78.7217 154.365L77.88 152.416C77.88 152.416 78.145 152.338 78.6594 152.292H78.8153C79.9844 152.215 80.6547 152.106 80.8262 151.967C80.9509 151.874 81.0132 151.596 81.0132 151.116C81.0132 150.636 80.9665 150.358 80.8574 150.249C80.7482 150.157 80.3118 150.218 79.5791 150.435C78.3944 150.745 77.4123 150.977 76.6329 151.131C76.4926 151.162 76.3523 151.178 76.2432 151.193C75.7288 151.286 75.4326 151.317 75.3858 151.271C75.3546 151.24 75.339 151.209 75.3235 151.162C75.3235 151.1 75.5729 150.992 76.0717 150.837C77.8956 150.249 79.47 149.569 80.8106 148.779C81.8862 148.145 82.2447 147.743 81.8706 147.603C81.7927 147.572 81.5121 147.557 81.0132 147.542C78.8776 147.511 77.4123 147.542 76.6329 147.65C76.3679 147.681 76.212 147.681 76.1652 147.665C76.0873 147.665 75.947 147.495 75.7755 147.17C75.6976 147.046 75.6508 146.954 75.604 146.861C75.5417 146.706 75.5885 146.644 75.7132 146.675C76.0093 146.752 76.6797 146.83 77.6929 146.892C77.7708 146.892 77.9423 146.892 78.1606 146.907C81.668 147.015 83.5853 147.046 83.8971 146.984C84.3492 146.923 84.4583 146.489 84.2401 145.7C84.2401 145.654 84.1465 145.375 84.0218 144.849C83.9283 144.354 83.6477 144.044 83.1645 143.905C83.1645 143.905 83.1333 143.905 83.1177 143.89C82.8683 143.828 82.7436 143.781 82.7436 143.704C82.7436 143.611 82.9618 143.565 83.3827 143.58C83.6321 143.58 83.8192 143.58 83.9595 143.565C84.1777 143.503 84.3024 143.255 84.318 142.853C84.318 142.59 84.318 142.404 84.2712 142.265C84.1777 142.079 83.8659 141.986 83.3047 141.986C82.8371 141.986 82.5565 142.033 82.4162 142.126C82.2915 142.25 82.2291 142.636 82.2603 143.302C82.2603 143.426 82.2915 143.673 82.3071 144.029C82.3071 144.338 82.3227 144.555 82.3227 144.679V145.437L82.2291 145.561C82.12 145.669 81.933 145.778 81.6836 145.886C81.0912 146.102 80.6859 146.133 80.4521 145.994C80.4521 145.994 80.4209 145.963 80.4053 145.948C80.3274 145.886 80.2962 145.53 80.3274 144.88C80.3274 144.663 80.3585 144.493 80.3741 144.369C80.4521 143.085 80.4209 142.342 80.2806 142.172C80.2026 142.033 79.9221 141.971 79.4856 141.971C79.0491 141.971 78.7685 142.033 78.6438 142.172C78.5347 142.342 78.5035 142.961 78.5814 144.044C78.6126 144.369 78.5814 144.617 78.5347 144.772C78.4567 144.988 78.145 145.159 77.6305 145.267C77.3032 145.329 77.0694 145.344 76.9602 145.313C76.8355 145.251 76.7732 144.973 76.7888 144.431C76.7888 144.23 76.7888 143.952 76.7888 143.611C76.7108 142.048 76.6017 141.089 76.4614 140.718C76.4614 140.687 76.4458 140.671 76.4458 140.656C76.4458 140.594 76.8044 140.702 77.4747 140.934C77.6929 141.012 77.9111 141.089 78.1138 141.166C79.4388 141.569 80.1871 141.569 80.3585 141.151C80.3897 141.089 80.4053 140.981 80.4209 140.872C80.4676 140.439 80.4053 140.145 80.2338 139.975L80.0779 139.867H78.7685C77.9111 139.867 77.2252 139.882 76.742 139.928L76.0249 139.99L75.9314 139.882C75.6976 139.604 75.5729 139.356 75.5573 139.17C75.5573 139.046 75.6041 139 75.7288 139.031H75.8067C76.3835 139.031 76.9291 137.87 77.4747 135.518C77.5058 135.41 77.5214 135.333 77.537 135.271C77.5838 135.178 77.7085 135.163 77.9111 135.255C77.9579 135.255 78.067 135.302 78.2385 135.364C78.5503 135.488 78.7997 135.58 78.9867 135.627C78.9867 135.627 79.0179 135.627 79.0335 135.642C79.5323 135.812 79.7818 135.936 79.7818 135.983C79.7194 136.122 79.5947 136.215 79.392 136.246C79.2673 136.292 79.1426 136.37 79.0491 136.509C78.8932 136.772 78.9088 136.942 79.1115 137.035C79.3609 137.159 79.5791 137.205 79.7818 137.19C80.3429 137.143 80.4676 136.524 80.1715 135.333C80.1403 135.209 80.1247 135.116 80.1091 135.07C80.1091 135.008 80.1559 134.961 80.265 134.961C80.3118 134.961 80.3741 134.961 80.4832 134.977L82.8059 135.286C82.8059 135.286 82.8059 135.317 82.8215 135.333C82.8527 135.457 82.7592 135.565 82.5565 135.673C82.4162 135.751 82.2915 135.905 82.2136 136.122C82.1044 136.509 82.1668 136.787 82.4318 136.958C82.9462 137.252 83.523 137.05 84.1309 136.339H84.1465C84.4115 136.045 84.5518 135.905 84.583 135.905C84.6298 135.905 84.7701 136.014 85.0195 136.215C85.908 136.88 86.3601 137.252 86.3601 137.329C86.3601 137.36 86.3601 137.391 86.3445 137.437C86.251 137.592 85.4871 137.654 84.053 137.638C83.1956 137.638 82.6656 137.638 82.4786 137.716C82.3071 137.778 82.2136 137.963 82.198 138.288C82.1668 138.598 82.198 138.83 82.2447 138.954C82.3383 139.124 82.65 139.232 83.2112 139.232C83.6321 139.232 83.9127 139.217 84.0686 139.17C84.2245 139.108 84.4895 138.845 84.8636 138.412C85.0039 138.242 85.113 138.134 85.191 138.087C85.2845 138.087 85.5963 138.304 86.1418 138.737C86.2977 138.861 86.4069 138.938 86.438 138.985C86.8745 139.356 87.0304 139.573 86.9369 139.65C86.8433 139.727 86.0483 139.774 84.583 139.789H82.463L82.3539 139.913C82.3071 139.959 82.2759 140.021 82.2291 140.13C82.1044 140.486 82.12 140.795 82.2759 141.043C82.3694 141.197 82.6656 141.275 83.1645 141.29C83.4295 141.29 83.6477 141.29 83.788 141.244C84.0062 141.197 84.2556 141.012 84.5674 140.671C84.6765 140.547 84.7701 140.47 84.848 140.439C84.9415 140.439 85.2845 140.625 85.8613 141.058C86.3289 141.414 86.6095 141.631 86.6874 141.723C86.7342 141.801 86.6563 141.894 86.4692 141.986C86.3601 142.048 86.2666 142.095 86.2042 142.126C86.0639 142.234 85.986 142.544 85.9704 143.07C85.9704 143.472 85.9236 143.766 85.8768 143.921C85.7989 144.137 85.5651 144.416 85.1598 144.756C85.0974 144.818 85.0662 144.865 85.0507 144.942C85.0507 145.112 85.4715 145.22 86.3289 145.282C86.3601 145.282 86.3913 145.282 86.4069 145.298C87.046 145.375 87.1395 145.53 86.6874 145.747C86.5472 145.824 86.438 145.963 86.3913 146.133C86.3133 146.458 86.3913 146.675 86.6563 146.768C86.7342 146.799 87.0616 146.814 87.6539 146.814C90.0701 146.861 91.364 146.814 91.5355 146.737C91.8472 146.567 92.0187 146.396 92.0499 146.211C92.0499 145.994 91.8316 145.886 91.3796 145.901H90.9275L90.8807 145.7C90.8496 145.592 90.8184 145.468 90.7716 145.36C90.5534 144.88 90.0234 144.555 89.1504 144.385C88.9789 144.338 88.8542 144.308 88.7607 144.292C88.6672 144.277 88.636 144.23 88.636 144.153V144.044H89.3063C89.5557 144.075 90.0078 144.091 90.6625 144.091H91.3484L91.4731 143.967C91.4731 143.967 91.551 143.874 91.5822 143.828C91.6602 143.673 91.6758 142.559 91.6758 140.486V139.34C91.6758 137.855 91.5822 136.664 91.4419 135.782C91.3796 135.426 91.364 135.224 91.3952 135.163C91.4575 135.116 91.894 135.163 92.7046 135.24C93.5931 135.348 94.092 135.441 94.2167 135.503C94.2946 135.565 94.1699 135.673 93.8426 135.874C93.749 135.921 93.6867 135.967 93.6555 136.045C93.5931 136.199 93.562 137.623 93.5464 140.331C93.5464 142.389 93.5152 143.611 93.4996 144.044C93.4996 144.462 93.4061 144.818 93.2658 145.112C93.1567 145.313 93.1255 145.484 93.1567 145.607C93.2034 145.762 93.5464 146.102 94.2167 146.629C94.4037 146.783 94.544 146.892 94.622 146.969C94.7623 147.077 94.809 147.17 94.7779 147.232C94.7779 147.232 94.7467 147.263 94.7311 147.294C94.6376 147.387 94.1699 147.433 93.3125 147.433C92.3149 147.433 91.7537 147.495 91.6134 147.603C91.4887 147.727 91.7537 148.006 92.4396 148.439C92.4396 148.439 92.4708 148.47 92.5019 148.485C93.0008 148.81 93.0008 148.981 92.5019 148.981C92.3149 148.981 91.9252 149.12 91.3172 149.367C90.9119 149.553 90.5378 149.723 90.1793 149.863C90.1793 149.863 90.1481 149.863 90.1325 149.878C89.7116 150.033 89.509 150.188 89.5245 150.311C89.5245 150.466 89.8051 150.667 90.3663 150.915C91.6446 151.518 93.1099 151.967 94.7467 152.261C94.7467 152.261 94.7779 152.261 94.809 152.276C95.1364 152.338 95.1208 152.447 94.7623 152.601C94.2479 152.818 93.8426 153.251 93.562 153.901C93.5152 154.025 93.4684 154.102 93.4372 154.149C93.3593 154.211 93.0943 154.149 92.6111 153.963C91.0055 153.344 89.6337 152.57 88.5113 151.642C88.3398 151.472 88.1684 151.348 87.9969 151.24C87.8566 151.147 87.7319 151.023 87.6228 150.868C87.5604 150.791 87.3889 150.559 87.0772 150.172C86.5939 149.522 86.2198 148.95 85.9548 148.454C85.7989 148.145 85.6586 147.944 85.5495 147.836C85.3936 147.758 85.0974 147.851 84.6454 148.145C84.3492 148.315 84.053 148.485 83.788 148.64C83.3671 148.872 83.1177 149.042 83.0086 149.166C82.915 149.306 82.8527 149.692 82.8527 150.342C82.8527 150.776 82.8527 151.039 82.8683 151.131C82.8994 151.41 83.0553 151.58 83.3359 151.596C83.6165 151.642 84.7701 151.518 86.781 151.224C87.2642 151.162 87.5292 151.147 87.5604 151.147C87.6539 151.209 87.6695 151.286 87.6228 151.394C87.5916 151.425 87.4201 151.503 87.0772 151.611C85.2533 152.276 82.9618 152.973 80.2026 153.685C79.6259 153.824 79.2206 153.994 79.0023 154.195C78.862 154.334 78.7373 154.35 78.6282 154.257H78.6126L78.7217 154.365ZM80.3897 139.077C80.5612 138.675 80.5768 138.304 80.4365 137.994C80.3118 137.731 79.9844 137.607 79.47 137.607C78.7529 137.654 78.1606 137.886 77.7085 138.335C77.3344 138.706 77.1629 138.938 77.2097 139.062C77.3032 139.201 77.9423 139.294 79.1738 139.34C79.7038 139.371 79.9844 139.387 80 139.387C80.0468 139.387 80.1247 139.356 80.2338 139.31C80.2962 139.263 80.3429 139.186 80.4053 139.062L80.3897 139.077ZM89.0569 149.522C89.6493 148.981 90.0701 148.516 90.304 148.16C90.4131 147.959 90.4599 147.82 90.4131 147.727C90.3196 147.603 89.6493 147.542 88.3866 147.542H88.2151C87.046 147.542 86.438 147.65 86.3601 147.82C86.2977 147.975 86.5939 148.346 87.2175 148.934C87.311 149.027 87.4201 149.12 87.5136 149.197C88.0748 149.692 88.4957 149.878 88.7919 149.723C88.8387 149.692 88.9166 149.615 89.0569 149.491V149.522ZM87.7319 143.193C87.6228 143.116 87.6072 142.791 87.6383 142.234C87.6383 142.079 87.6695 141.925 87.6851 141.77C87.7786 139.851 87.7007 138.118 87.4513 136.555C87.4045 136.277 87.4045 136.122 87.4513 136.06C87.498 136.029 87.9345 136.06 88.7607 136.168C89.3531 136.23 89.7584 136.308 89.9922 136.37C90.304 136.447 90.2728 136.571 89.8831 136.71C89.7896 136.772 89.696 136.865 89.6025 137.019L89.4778 137.221L89.5245 138.706C89.5245 139.155 89.5401 140.052 89.5869 141.398C89.6337 142.203 89.6337 142.652 89.6025 142.76C89.5401 142.884 89.3531 143.008 89.0257 143.132C88.4334 143.333 88.0281 143.364 87.7942 143.24C87.7942 143.24 87.763 143.209 87.7319 143.193Z"
                fill="#231815" />
            <path
                d="M84.1153 175.533C84.0374 175.456 84.0374 174.915 84.1153 173.924C84.3336 170.443 84.2868 168.632 83.9906 168.462C83.9439 168.462 83.8347 168.431 83.6633 168.416C82.4941 168.369 81.4029 168.369 80.3897 168.431C80.1091 168.477 79.8753 168.493 79.657 168.493H79.47L79.205 168.044C79.0803 167.812 78.9711 167.657 78.8776 167.595C78.7529 167.549 78.41 167.642 77.8488 167.905C77.6461 167.998 77.4435 168.091 77.2252 168.168C76.0249 168.663 75.4014 168.864 75.3234 168.756C75.3234 168.725 75.3079 168.694 75.3079 168.679C75.3079 168.617 75.4637 168.508 75.7599 168.354C77.1317 167.657 78.4567 166.76 79.7506 165.646C81.7615 163.913 83.1177 162.195 83.8192 160.493C83.8815 160.354 83.9127 160.276 83.9439 160.261C84.0218 160.23 84.5674 160.323 85.5807 160.539C86.438 160.725 86.9369 160.864 87.0772 160.926C87.1707 160.988 87.1083 161.066 86.8589 161.189C86.7498 161.251 86.6563 161.298 86.5783 161.375C86.438 161.53 86.6251 161.87 87.1551 162.35C88.8386 163.866 91.3172 165.073 94.622 165.955C94.7934 166.002 94.9493 166.033 95.074 166.079C95.4326 166.218 95.4326 166.358 95.0584 166.512C94.9493 166.559 94.8246 166.621 94.6843 166.729C94.1855 167.116 93.8581 167.518 93.7334 167.967C93.7334 167.998 93.7178 168.029 93.7178 168.075C93.6555 168.199 93.5308 168.214 93.3125 168.122C92.4396 167.781 91.5666 167.348 90.7249 166.837C88.7295 165.599 87.2798 164.176 86.3913 162.551C86.3445 162.489 86.3133 162.427 86.2821 162.365C86.1107 162.071 85.9548 161.917 85.8301 161.932C85.7054 161.948 85.4092 162.211 84.9727 162.752C84.8948 162.845 84.8168 162.953 84.7077 163.062C83.523 164.377 82.0577 165.568 80.3118 166.636C79.735 166.977 79.4388 167.224 79.4076 167.363C79.4076 167.518 79.8753 167.626 80.8262 167.704C80.9197 167.704 81.0444 167.719 81.2003 167.719C82.8839 167.828 83.8036 167.843 83.9595 167.781C83.9595 167.781 84.0062 167.75 84.053 167.719C84.3336 167.441 84.318 166.605 83.9906 165.259C83.9595 165.135 83.9595 165.058 83.975 165.011C84.0218 164.949 84.4895 164.965 85.3936 165.073C86.2042 165.166 86.6563 165.228 86.7498 165.259C86.8433 165.259 86.8745 165.305 86.8745 165.367C86.8745 165.367 86.8745 165.414 86.8277 165.445C86.703 165.615 86.5783 165.708 86.4848 165.708C86.3133 165.708 86.2198 166.064 86.2198 166.744C86.2198 167.147 86.251 167.425 86.3289 167.565C86.4224 167.719 86.703 167.797 87.2174 167.797C87.5292 167.797 87.763 167.781 87.9033 167.735C88.106 167.688 88.371 167.441 88.7295 167.007C88.9634 166.729 89.1192 166.559 89.2284 166.543C89.3219 166.543 89.5869 166.698 90.0078 167.054C90.2728 167.255 90.4443 167.41 90.5534 167.503C91.0366 167.889 91.2237 168.137 91.099 168.23C90.9743 168.323 90.1948 168.385 88.7451 168.385C87.4201 168.385 86.6719 168.431 86.5004 168.462C86.4068 168.493 86.3133 168.586 86.2665 168.741C86.1886 169.143 86.2042 170.752 86.3289 173.568L86.3913 175.054L86.2354 175.178C86.1263 175.27 85.9548 175.363 85.721 175.441C85.0974 175.673 84.6453 175.719 84.3492 175.611C84.2712 175.58 84.2089 175.549 84.1621 175.503L84.1153 175.533ZM80.7482 161.654L80.6391 161.545L80.6859 160.818C80.6859 160.71 80.7015 160.601 80.7015 160.509C80.7326 160.075 80.6703 159.797 80.53 159.673L80.4053 159.534H78.8309C77.8332 159.534 77.1317 159.534 76.7108 159.58C76.3523 159.642 76.1029 159.657 75.9782 159.657H75.7911L75.5573 159.224C75.417 158.961 75.339 158.806 75.3234 158.729C75.3234 158.698 75.6976 158.729 76.4302 158.791C76.6796 158.822 76.9446 158.853 77.2564 158.868C79.205 159.039 80.2962 159.054 80.4832 158.93C80.4832 158.93 80.5144 158.93 80.53 158.915C80.8262 158.683 80.8262 157.94 80.5144 156.671C80.4676 156.501 80.4676 156.393 80.4988 156.346C80.5456 156.3 81.0132 156.315 81.9018 156.423C82.6344 156.501 83.1021 156.578 83.3047 156.656C83.5542 156.733 83.4918 156.872 83.1333 157.042C82.8994 157.166 82.7591 157.445 82.728 157.893C82.6656 158.435 82.7903 158.775 83.0709 158.899C83.1333 158.899 83.3983 158.93 83.8659 158.961C86.0015 159.054 87.1707 159.069 87.3733 158.977C87.7475 158.806 87.763 158.048 87.4357 156.671C87.3889 156.501 87.3889 156.393 87.4201 156.346C87.4669 156.3 87.9501 156.315 88.8698 156.423C89.6648 156.501 90.1481 156.578 90.3195 156.656C90.491 156.733 90.4131 156.872 90.1013 157.042C90.0545 157.073 90.0078 157.104 89.9766 157.12C89.8051 157.259 89.7116 157.553 89.7116 158.017C89.7116 158.373 89.7428 158.605 89.8207 158.729C89.9142 158.884 90.2728 158.946 90.8496 158.946C91.3016 158.946 91.629 158.899 91.8005 158.822C91.9563 158.745 92.2837 158.373 92.7981 157.708C92.8761 157.615 92.9384 157.553 92.9852 157.507C93.0631 157.507 93.3125 157.661 93.7334 158.033C94.2167 158.42 94.5128 158.667 94.5908 158.745C95.0117 159.1 95.1364 159.317 94.9493 159.394C94.809 159.456 93.9517 159.503 92.3772 159.518H89.9766L89.8675 159.657C89.7272 159.781 89.6648 160.091 89.696 160.601C89.696 160.833 89.696 161.019 89.6492 161.158C89.5713 161.36 89.2751 161.514 88.7607 161.607C88.3086 161.685 88.0125 161.7 87.8566 161.654C87.6695 161.592 87.5916 161.267 87.6383 160.679C87.6695 160.307 87.6383 160.013 87.576 159.781C87.5136 159.657 87.3889 159.58 87.1707 159.565C86.9524 159.549 86.2977 159.534 85.2065 159.534H84.8168C83.6945 159.534 83.0553 159.58 82.8994 159.673C82.7747 159.75 82.7124 159.998 82.7436 160.4V161.251L82.6344 161.375C82.5877 161.421 82.5253 161.452 82.4162 161.499C81.933 161.715 81.4341 161.793 80.9509 161.746C80.8574 161.746 80.795 161.7 80.7326 161.638L80.7482 161.654ZM76.9135 174.466C77.2097 174.249 77.5682 173.955 77.9423 173.568C79.1426 172.392 80.0935 171.154 80.7638 169.855C80.7638 169.855 80.7638 169.824 80.7794 169.793C80.8885 169.592 80.9821 169.483 81.06 169.483C81.1224 169.483 81.2782 169.561 81.5588 169.684C82.7436 170.257 83.3515 170.582 83.3515 170.644C83.2892 170.752 83.1644 170.814 82.9462 170.845C82.8371 170.876 82.463 171.154 81.8394 171.681C80.5144 172.949 79.0179 173.94 77.3499 174.682C77.0226 174.822 76.8355 174.899 76.8044 174.915C76.7732 174.915 76.742 174.884 76.7264 174.868C76.6017 174.775 76.6485 174.636 76.8979 174.466H76.9135ZM91.6757 174.543C91.5355 174.481 91.3952 174.327 91.2393 174.079C91.1457 173.909 91.0366 173.723 90.8963 173.506C90.0857 172.33 89.0725 171.278 87.8566 170.334C87.5916 170.133 87.4513 169.978 87.4201 169.886C87.4201 169.762 87.8878 169.839 88.8075 170.087C90.8028 170.659 92.1278 171.479 92.7669 172.578C93.0787 173.151 93.1411 173.661 92.9384 174.125C92.7046 174.59 92.2993 174.744 91.7225 174.574C91.7225 174.574 91.6913 174.574 91.6602 174.559L91.6757 174.543Z"
                fill="#231815" />
            <path
                d="M75.947 195.649C75.947 195.495 76.0249 195.433 76.1652 195.464C77.1005 195.634 79.0335 195.742 81.9797 195.789C82.1044 195.789 82.2915 195.789 82.5409 195.804H82.6968C83.523 195.804 83.9906 195.758 84.1153 195.634C84.24 195.51 84.3024 195.139 84.2868 194.535V194.086C84.2868 193.545 84.2868 193.173 84.2712 192.988C84.2712 192.694 84.1777 192.493 84.0374 192.415C83.9595 192.369 83.6321 192.353 83.0397 192.338C81.0912 192.291 79.6726 192.338 78.7997 192.462C78.7061 192.462 78.6126 192.477 78.5658 192.477C78.4723 192.477 78.332 192.291 78.1761 191.967C78.0514 191.734 77.9891 191.58 77.9891 191.518C77.9891 191.471 78.067 191.471 78.2541 191.502C79.2517 191.673 80.8418 191.765 83.0397 191.781H83.2268C83.7724 191.781 84.0842 191.734 84.1777 191.611C84.2712 191.502 84.3024 191.069 84.3024 190.311V190.063C84.3024 189.444 84.24 189.073 84.1153 188.98C84.0218 188.903 83.6165 188.856 82.9306 188.856C82.463 188.856 82.12 188.856 81.933 188.903C81.6835 188.949 81.5588 189.073 81.5588 189.274C81.5588 189.305 81.5588 189.336 81.5121 189.382C81.3718 189.63 81.0132 189.816 80.4365 189.939C80.2182 189.986 80.0467 190.001 79.8909 190.001C79.6103 189.97 79.47 189.769 79.5012 189.413C79.6259 187.587 79.5635 185.854 79.3141 184.199C79.2673 183.967 79.2673 183.827 79.2985 183.796C79.3297 183.75 79.6259 183.843 80.2026 184.044C80.8574 184.292 81.2626 184.431 81.4497 184.493L81.7771 184.601H88.6048L88.8386 184.493C88.9634 184.431 89.1504 184.276 89.3998 184.029C89.5557 183.874 89.6648 183.781 89.7428 183.719C89.8207 183.688 90.0078 183.765 90.2572 183.951C90.2572 183.951 90.304 183.982 90.3507 184.013C90.8963 184.4 91.2549 184.493 91.4107 184.261C91.4575 184.199 91.5043 184.09 91.5354 183.982C91.7849 183.363 91.8784 182.914 91.816 182.682C91.816 182.62 91.7693 182.574 91.7069 182.543C91.5354 182.481 89.3842 182.435 85.2689 182.435H79.0023L78.8776 182.543C78.7685 182.636 78.6906 182.868 78.6438 183.239C78.5658 183.92 78.332 184.493 77.9111 184.957C77.3811 185.514 76.8199 185.653 76.2276 185.359C75.9626 185.22 75.7911 185.034 75.7132 184.787C75.604 184.323 75.8379 183.889 76.4458 183.487C77.3188 182.899 77.802 182.11 77.8644 181.104C77.8955 180.825 77.9423 180.655 78.0202 180.64C78.0982 180.64 78.2073 180.825 78.3164 181.197C78.3944 181.413 78.4723 181.584 78.5503 181.692C78.7061 181.862 79.1114 181.94 79.7817 181.94C80.0467 181.94 80.2494 181.94 80.4053 181.893C80.7171 181.847 80.8262 181.723 80.7015 181.506C80.6703 181.444 80.6547 181.398 80.6391 181.321C80.6391 181.197 80.5923 181.011 80.4832 180.764C80.1559 179.959 79.7038 179.247 79.1426 178.628C79.0023 178.458 78.9244 178.35 78.9088 178.257C78.9088 178.164 79.1114 178.164 79.5167 178.257C80.4365 178.489 81.1691 178.845 81.7303 179.34C82.4786 180.021 82.6344 180.686 82.2291 181.352C82.1356 181.522 82.0888 181.661 82.1044 181.754C82.1356 181.893 82.4785 181.955 83.1644 181.955C83.523 181.955 83.7724 181.955 83.9127 181.909C84.053 181.862 84.1621 181.738 84.2089 181.506C84.3024 181.042 84.24 180.005 84.0218 178.381C84.0218 178.334 84.0062 178.272 84.0062 178.195C83.9283 177.855 83.9283 177.669 84.0062 177.622C84.0842 177.576 84.5518 177.622 85.4092 177.7C86.1886 177.777 86.6718 177.855 86.8745 177.932C87.0927 178.009 87.0304 178.149 86.6874 178.319C86.4692 178.458 86.3289 178.969 86.251 179.866C86.1886 180.934 86.2821 181.553 86.516 181.738C86.5627 181.769 86.6407 181.8 86.7498 181.816C87.2019 181.893 87.5604 181.878 87.8098 181.754C88.1216 181.584 88.7139 180.439 89.5557 178.303C89.6025 178.179 89.6492 178.102 89.7116 178.087C89.7739 178.087 89.9454 178.133 90.226 178.21C91.6913 178.644 92.4396 178.907 92.4396 178.984C92.3772 179.108 92.2213 179.201 91.9719 179.247C91.8005 179.278 91.4419 179.526 90.8963 179.974C90.7404 180.114 90.4754 180.33 90.1013 180.64C89.9766 180.748 89.8831 180.825 89.8363 180.872C89.3687 181.259 89.1192 181.506 89.1036 181.63C89.1036 181.785 89.5869 181.862 90.569 181.862C91.2393 181.862 91.6757 181.847 91.8472 181.8C92.0031 181.754 92.2681 181.568 92.6266 181.228C92.6266 181.228 92.6734 181.181 92.7046 181.15C92.9384 180.918 93.0943 180.81 93.2034 180.841C93.2969 180.841 93.6399 181.135 94.2011 181.677C94.7623 182.203 95.0584 182.528 95.0896 182.636C95.0896 182.698 94.9961 182.744 94.7934 182.775C94.544 182.837 94.2167 183.007 93.7802 183.301C93.0008 183.843 92.4863 184.199 92.2058 184.338C92.2058 184.338 92.1746 184.338 92.159 184.353C91.7693 184.586 91.629 184.787 91.7225 184.972C91.7693 185.081 91.6602 185.205 91.4263 185.359C91.3484 185.406 91.3016 185.437 91.2549 185.483C91.1457 185.622 91.0834 186.272 91.0834 187.433V187.742C91.0834 188.655 91.0366 189.166 90.9587 189.29C90.8807 189.367 90.6469 189.46 90.2416 189.568C90.1481 189.599 90.039 189.615 89.9454 189.63C89.4154 189.754 89.1504 189.692 89.1504 189.475C89.1504 189.305 89.1192 189.181 89.0569 189.088C88.9634 188.965 88.5113 188.903 87.7163 188.903H86.6095L86.4848 189.011C86.3601 189.135 86.2821 189.584 86.2665 190.357V190.543C86.2665 191.146 86.3289 191.518 86.438 191.626C86.5627 191.734 87.0148 191.796 87.7942 191.796H88.0748C88.9789 191.796 89.5245 191.75 89.7116 191.673C89.8519 191.611 90.1013 191.363 90.4443 190.945C90.4443 190.945 90.4754 190.899 90.5066 190.868C90.7248 190.605 90.8651 190.481 90.9119 190.481C91.0054 190.481 91.2549 190.636 91.6913 190.992C92.2213 191.425 92.5175 191.673 92.5955 191.719C92.9384 192.028 93.0164 192.214 92.8137 192.291C92.6422 192.353 91.6134 192.4 89.7116 192.4H87.4045C86.781 192.431 86.4224 192.539 86.3289 192.74C86.2977 192.833 86.2821 193.235 86.2665 193.947V194.38C86.2665 195.108 86.3289 195.525 86.4536 195.649L86.5627 195.773H91.4107L91.5822 195.649C91.7381 195.556 91.9563 195.324 92.2525 194.953C92.5487 194.566 92.7202 194.365 92.7669 194.334C92.8293 194.334 93.0631 194.504 93.484 194.829C94.4037 195.556 94.8714 195.99 94.8714 196.098C94.8714 196.16 94.8714 196.222 94.7778 196.268C94.5596 196.315 91.6602 196.361 86.0639 196.377H84.6142C79.8129 196.377 77.1473 196.438 76.6173 196.516C76.5393 196.516 76.4614 196.516 76.399 196.469C76.134 196.191 75.9937 195.928 75.9626 195.711L75.947 195.649ZM88.9478 188.191C89.0257 188.114 89.0725 187.634 89.0725 186.736V186.241C89.0725 186.133 89.0881 186.056 89.0881 186.025C89.0881 185.607 88.9945 185.344 88.7919 185.251C88.5736 185.143 87.763 185.096 86.3601 185.112H85.2845C83.5697 185.112 82.6188 185.112 82.4162 185.127C81.9174 185.174 81.6212 185.297 81.5588 185.529C81.5588 185.591 81.5432 185.978 81.5432 186.69V187.154C81.5432 187.232 81.5432 187.293 81.5277 187.324C81.5277 187.773 81.6212 188.052 81.7927 188.145C81.9797 188.253 82.6968 188.315 83.9283 188.33H84.848C85.2689 188.33 85.8612 188.33 86.6095 188.346C87.5604 188.346 88.0904 188.346 88.1839 188.361C88.4489 188.361 88.6516 188.346 88.7919 188.299C88.8698 188.253 88.9166 188.222 88.9633 188.175L88.9478 188.191Z"
                fill="#231815" />
        </g>
        <path
            d="M118.176 30.3903C118.535 30.3903 118.831 30.0963 118.831 29.7404V25.7947C118.831 24.727 117.958 23.8604 116.882 23.8604H82.9618C84.0218 18.4601 84.583 12.936 84.583 7.33453V1.93421C84.583 0.866527 83.71 0 82.6344 0H60.2962C59.9376 0 59.6415 0.294 59.6415 0.649895V11.6053C59.6415 15.7367 59.3297 19.8373 58.7373 23.8759H26.0327C25.6742 23.8759 25.378 24.1699 25.378 24.5258V28.4716C25.378 29.5393 26.251 30.4058 27.3266 30.4058H57.4903C53.032 49.8408 41.7303 67.3261 25.2845 79.6431C24.5362 80.2002 24.926 81.3762 25.8613 81.3762H42.1824C42.4318 81.3762 42.6656 81.3143 42.8683 81.175C61.9797 69.3995 75.5417 51.156 81.3718 30.3903H118.145H118.176Z"
            fill="#231815" />
        <path
            d="M101.637 46.189C91.4887 46.189 83.258 54.3591 83.258 64.4324C83.258 74.5058 91.4887 82.6759 101.637 82.6759C111.785 82.6759 120.016 74.5058 120.016 64.4324C120.016 54.3591 111.785 46.189 101.637 46.189ZM101.637 69.9411C98.5815 69.9411 96.0873 67.4653 96.0873 64.4324C96.0873 61.3996 98.5815 58.9238 101.637 58.9238C104.692 58.9238 107.186 61.3996 107.186 64.4324C107.186 67.4653 104.692 69.9411 101.637 69.9411Z"
            fill="#231815" />
    </g>
    <defs>
        <clipPath id="clip0_771_70">
            <rect width="120" height="310" fill="white" />
        </clipPath>
    </defs>
</svg>