<svg width="210" height="65" viewBox="0 0 210 65" fill="none" xmlns="http://www.w3.org/2000/svg">
    <path
        d="M102 33C102 56.4415 107.364 64 124 64C140.636 64 146 56.4415 146 33C146 9.55852 140.636 2 124 2C107.364 2 102 9.55852 102 33Z"
        fill="#B26445" />
    <path
        d="M206.635 13.7398H196.791V7.35692C196.791 6.6079 196.174 6 195.414 6H183.346C183.093 6 182.884 6.20625 182.884 6.45592V13.7398H168.052V7.35692C168.052 6.6079 167.435 6 166.676 6H154.608C154.354 6 154.145 6.20625 154.145 6.45592V13.7398H142.462C142.209 13.7398 142 13.9461 142 14.1958V16.9639C142 17.7129 142.617 18.3208 143.376 18.3208H154.145V21.534C154.145 22.283 154.762 22.8909 155.522 22.8909H164.341L163.692 23.5313C158.01 29.1327 151.106 33.3554 143.509 35.8738C142.859 36.091 142.914 37.0137 143.575 37.1656L149.3 38.5334C149.443 38.5334 149.587 38.5334 149.73 38.5334L151.359 38.1535C158.12 36.5903 164.44 33.6594 169.968 29.5886L177.246 31.1301C174.923 32.8452 172.534 34.4627 170.089 36.0041C168.658 33.6811 165.597 32.8995 163.196 34.2564C160.796 35.6242 159.948 38.6203 161.258 41.0084C157.955 42.6801 154.564 44.1999 151.106 45.5351L143.101 48.6397C142.484 48.8785 142.529 49.747 143.167 49.9206L151.084 52.0483C151.26 52.0917 151.458 52.0917 151.635 52.0266L154.145 51.1473V62.6431C154.145 63.3921 154.762 64 155.522 64H167.59C167.843 64 168.052 63.7938 168.052 63.5441V62.1654H186.595V62.6431C186.595 63.3921 187.211 64 187.971 64H200.039C200.292 64 200.502 63.7938 200.502 63.5441V42.995C200.502 42.2459 199.885 41.638 199.125 41.638H187.057C186.804 41.638 186.595 41.8443 186.595 42.094V45.2963H169.891C177.995 41.7574 185.648 37.285 192.673 31.9442C193.587 31.2495 193.234 29.8274 192.111 29.5886L189.645 29.0676L174.427 25.8544C174.747 25.5613 175.066 25.2573 175.374 24.9534L175.462 24.8665C176.244 24.0958 175.826 22.7715 174.736 22.5761L168.041 21.3711V18.2991H182.873V21.5123C182.873 22.2613 183.489 22.8692 184.249 22.8692H196.317C196.571 22.8692 196.78 22.6629 196.78 22.4132V18.2991H207.538C207.791 18.2991 208 18.0928 208 17.8432V15.0751C208 14.326 207.383 13.7181 206.624 13.7181L206.635 13.7398ZM186.595 49.8772V57.6062H168.052V49.8772H186.595Z"
        fill="#231815" />
    <g style="mix-blend-mode:multiply">
        <path
            d="M74.2262 51.4349L74.1992 51.4349C74.1364 51.4168 74.0466 51.3987 73.9479 51.3806C73.8402 51.3625 73.7504 51.3535 73.6786 51.3535C73.4273 51.3535 73.2477 51.4078 73.131 51.5253C73.0143 51.6338 72.9605 51.8418 72.9605 52.1312L72.9605 52.2488L74.0107 52.2488L74.0107 52.7461L72.9784 52.7461L72.9784 55.7484L72.395 55.7484L72.395 52.7461L72 52.7461L72 52.2488L72.395 52.2488L72.395 52.1312C72.395 51.7152 72.4937 51.3987 72.7002 51.1726C72.9066 50.9466 73.2028 50.838 73.5888 50.838C73.7235 50.838 73.8402 50.838 73.9389 50.8561C74.0466 50.8652 74.1364 50.8833 74.2262 50.9013L74.2262 51.4349Z"
            fill="#231815" />
        <path
            d="M76.7665 52.8818L76.7396 52.8818C76.6498 52.8637 76.569 52.8456 76.4882 52.8366C76.4074 52.8275 76.3087 52.8185 76.201 52.8185C76.0215 52.8185 75.8509 52.8547 75.6803 52.936C75.5098 53.0174 75.3482 53.1169 75.1956 53.2435L75.1956 55.7303L74.6121 55.7303L74.6121 52.2307L75.1956 52.2307L75.1956 52.7461C75.429 52.5562 75.6355 52.4206 75.806 52.3483C75.9855 52.2669 76.1651 52.2307 76.3446 52.2307C76.4433 52.2307 76.5152 52.2307 76.569 52.2307C76.6139 52.2307 76.6857 52.2488 76.7755 52.2578L76.7755 52.8637L76.7665 52.8818Z"
            fill="#231815" />
        <path
            d="M80.2763 53.9941C80.2763 54.5638 80.1327 55.016 79.8454 55.3415C79.5582 55.6671 79.1632 55.8389 78.6785 55.8389C78.1937 55.8389 77.7988 55.6761 77.5115 55.3415C77.2243 55.0069 77.0807 54.5638 77.0807 53.9941C77.0807 53.4244 77.2243 52.9722 77.5115 52.6467C77.7988 52.3121 78.1937 52.1493 78.6785 52.1493C79.1632 52.1493 79.5582 52.3121 79.8454 52.6467C80.1327 52.9813 80.2763 53.4244 80.2763 53.9941ZM79.6749 53.9941C79.6749 53.5419 79.5851 53.2073 79.4145 52.9813C79.235 52.7642 78.9927 52.6467 78.6785 52.6467C78.3643 52.6467 78.113 52.7552 77.9424 52.9813C77.7629 53.1983 77.6821 53.5419 77.6821 53.9941C77.6821 54.4462 77.7719 54.7627 77.9424 54.9888C78.1219 55.2149 78.3643 55.3325 78.6785 55.3325C78.9927 55.3325 79.235 55.2239 79.4145 54.9979C79.5941 54.7718 79.6838 54.4372 79.6838 53.9941L79.6749 53.9941Z"
            fill="#231815" />
        <path
            d="M86.2456 55.7394L85.6622 55.7394L85.6622 53.7499C85.6622 53.5962 85.6622 53.4515 85.6442 53.3158C85.6263 53.1802 85.5993 53.0626 85.5544 52.9812C85.5096 52.8908 85.4377 52.8275 85.348 52.7733C85.2582 52.719 85.1325 52.7009 84.962 52.7009C84.7914 52.7009 84.6388 52.7461 84.4683 52.8275C84.3067 52.9089 84.1451 53.0174 83.9746 53.144C83.9746 53.1892 83.9836 53.2435 83.9925 53.3068C83.9925 53.3701 83.9925 53.4334 83.9925 53.4967L83.9925 55.7394L83.4091 55.7394L83.4091 53.7499C83.4091 53.5962 83.4091 53.4515 83.3911 53.3068C83.3821 53.1712 83.3462 53.0536 83.3014 52.9722C83.2565 52.8818 83.1847 52.8185 83.0949 52.7733C83.0051 52.728 82.8795 52.7009 82.7089 52.7009C82.5384 52.7009 82.3858 52.7371 82.2332 52.8185C82.0716 52.8999 81.91 52.9993 81.7484 53.1259L81.7484 55.7394L81.165 55.7394L81.165 52.2397L81.7484 52.2397L81.7484 52.6286C81.928 52.4748 82.1165 52.3573 82.296 52.2759C82.4755 52.1945 82.673 52.1493 82.8795 52.1493C83.1128 52.1493 83.3193 52.1945 83.4809 52.303C83.6425 52.4025 83.7681 52.5381 83.8489 52.719C84.0823 52.5201 84.2977 52.3754 84.4952 52.2849C84.6927 52.1945 84.8992 52.1493 85.1236 52.1493C85.5006 52.1493 85.7878 52.2668 85.9674 52.502C86.1469 52.7371 86.2367 53.0626 86.2367 53.4786L86.2367 55.7484L86.2456 55.7394Z"
            fill="#231815" />
        <path
            d="M92.951 51.6338L91.2994 51.6338L91.2994 55.7484L90.68 55.7484L90.68 51.6338L89.0283 51.6338L89.0283 51.0822L92.951 51.0822L92.951 51.6338Z"
            fill="#231815" />
        <path
            d="M96.8558 55.7394L96.2005 55.7394L95.7427 54.4372L93.741 54.4372L93.2832 55.7394L92.6548 55.7394L94.3424 51.0732L95.1592 51.0732L96.8468 55.7394L96.8558 55.7394ZM95.5542 53.9127L94.7463 51.6248L93.9295 53.9127L95.5542 53.9127Z"
            fill="#231815" />
        <path
            d="M99.1897 55.7394L97.3585 55.7394L97.3585 55.2601L97.9689 55.2601L97.9689 51.5525L97.3585 51.5525L97.3585 51.0732L99.1897 51.0732L99.1897 51.5525L98.5793 51.5525L98.5793 55.2601L99.1897 55.2601L99.1897 55.7394Z"
            fill="#231815" />
        <path
            d="M105.617 51.0822L104.414 55.7484L103.723 55.7484L102.753 51.878L101.802 55.7484L101.129 55.7484L99.9078 51.0822L100.536 51.0822L101.506 54.9617L102.466 51.0822L103.094 51.0822L104.064 54.9978L105.033 51.0822L105.635 51.0822L105.617 51.0822Z"
            fill="#231815" />
        <path
            d="M110.024 55.7394L109.369 55.7394L108.911 54.4372L106.909 54.4372L106.452 55.7394L105.823 55.7394L107.511 51.0732L108.328 51.0732L110.015 55.7394L110.024 55.7394ZM108.723 53.9127L107.915 51.6248L107.098 53.9127L108.723 53.9127Z"
            fill="#231815" />
        <path
            d="M114.252 55.7394L113.489 55.7394L111.299 51.5705L111.299 55.7394L110.724 55.7394L110.724 51.0732L111.676 51.0732L113.678 54.8803L113.678 51.0732L114.252 51.0732L114.252 55.7394Z"
            fill="#231815" />
    </g>
    <g style="mix-blend-mode:multiply">
        <path
            d="M75.034 45.2405C75.034 45.4485 74.9981 45.6384 74.9263 45.8192C74.8545 46.0001 74.7558 46.1448 74.6301 46.2804C74.4685 46.4432 74.28 46.5608 74.0646 46.6422C73.8491 46.7235 73.5709 46.7597 73.2388 46.7597L72.6194 46.7597L72.6194 48.496L72 48.496L72 43.8298L73.2567 43.8298C73.535 43.8298 73.7684 43.8569 73.9658 43.9021C74.1543 43.9473 74.3249 44.0197 74.4775 44.1191C74.657 44.2367 74.7917 44.3904 74.8814 44.5623C74.9802 44.7431 75.0251 44.9601 75.0251 45.2314L75.034 45.2405ZM74.3877 45.2586C74.3877 45.0958 74.3608 44.9601 74.3069 44.8426C74.2531 44.725 74.1633 44.6256 74.0556 44.5532C73.9569 44.4899 73.8402 44.4447 73.7145 44.4176C73.5888 44.3904 73.4273 44.3724 73.2298 44.3724L72.6194 44.3724L72.6194 46.2352L73.14 46.2352C73.3914 46.2352 73.5888 46.2171 73.7504 46.1719C73.903 46.1267 74.0287 46.0544 74.1274 45.9549C74.2262 45.8554 74.298 45.7469 74.3339 45.6384C74.3698 45.5299 74.3967 45.4033 74.3967 45.2676L74.3877 45.2586Z"
            fill="#231815" />
        <path
            d="M79.6749 48.496L78.876 48.496L77.332 46.6422L76.4613 46.6422L76.4613 48.496L75.8419 48.496L75.8419 43.8298L77.1345 43.8298C77.4128 43.8298 77.6462 43.8479 77.8347 43.884C78.0232 43.9202 78.1848 43.9835 78.3374 44.083C78.5079 44.1915 78.6336 44.3271 78.7323 44.4899C78.8221 44.6527 78.876 44.8607 78.876 45.1048C78.876 45.4394 78.7952 45.7198 78.6246 45.9458C78.4541 46.1719 78.2297 46.3437 77.9334 46.4613L79.6749 48.496ZM78.2297 45.141C78.2297 45.0054 78.2027 44.8878 78.1578 44.7883C78.113 44.6889 78.0322 44.5984 77.9245 44.5261C77.8347 44.4628 77.727 44.4266 77.6103 44.3995C77.4846 44.3724 77.341 44.3633 77.1794 44.3633L76.4523 44.3633L76.4523 46.1267L77.0717 46.1267C77.2692 46.1267 77.4397 46.1086 77.5834 46.0724C77.727 46.0363 77.8526 45.973 77.9514 45.8825C78.0411 45.7921 78.113 45.6926 78.1578 45.5841C78.2027 45.4666 78.2207 45.3219 78.2207 45.1501L78.2297 45.141Z"
            fill="#231815" />
        <path
            d="M83.7143 44.3633C83.9028 44.5713 84.0464 44.8245 84.1451 45.132C84.2439 45.4304 84.2977 45.774 84.2977 46.1629C84.2977 46.5517 84.2439 46.8863 84.1451 47.1938C84.0464 47.5013 83.9028 47.7545 83.7143 47.9534C83.5258 48.1614 83.3014 48.3242 83.041 48.4327C82.7807 48.5412 82.4845 48.5955 82.1524 48.5955C81.8202 48.5955 81.533 48.5412 81.2637 48.4327C80.9944 48.3242 80.77 48.1614 80.5815 47.9624C80.393 47.7545 80.2494 47.5013 80.1506 47.2028C80.0519 46.9044 79.998 46.5608 79.998 46.1719C79.998 45.7831 80.0519 45.4485 80.1506 45.1501C80.2494 44.8516 80.393 44.5894 80.5815 44.3724C80.761 44.1644 80.9944 44.0106 81.2637 43.9021C81.533 43.7936 81.8292 43.7394 82.1434 43.7394C82.4576 43.7394 82.7717 43.7936 83.041 43.9021C83.3103 44.0106 83.5258 44.1644 83.7143 44.3724L83.7143 44.3633ZM83.6604 46.1629C83.6604 45.557 83.5258 45.0868 83.2565 44.7612C82.9872 44.4357 82.6191 44.2729 82.1524 44.2729C81.6856 44.2729 81.3086 44.4357 81.0483 44.7612C80.779 45.0868 80.6443 45.557 80.6443 46.1629C80.6443 46.7688 80.779 47.239 81.0572 47.5646C81.3265 47.8901 81.6946 48.0529 82.1613 48.0529C82.6281 48.0529 82.9872 47.8901 83.2565 47.5646C83.5258 47.239 83.6694 46.7688 83.6694 46.1629L83.6604 46.1629Z"
            fill="#231815" />
        <path
            d="M91.0929 48.1524C90.9762 48.2066 90.8775 48.2518 90.7877 48.2971C90.6979 48.3423 90.5723 48.3875 90.4287 48.4327C90.303 48.4689 90.1683 48.505 90.0157 48.5322C89.8631 48.5593 89.7016 48.5774 89.522 48.5774C89.1899 48.5774 88.8847 48.5322 88.6064 48.4327C88.3282 48.3423 88.0948 48.1885 87.8883 47.9896C87.6908 47.7907 87.5382 47.5374 87.4215 47.23C87.3138 46.9225 87.251 46.5698 87.251 46.1629C87.251 45.756 87.3048 45.4395 87.4126 45.132C87.5203 44.8245 87.6729 44.5713 87.8793 44.3633C88.0768 44.1644 88.3102 44.0107 88.5885 43.9021C88.8668 43.7936 89.1809 43.7394 89.5131 43.7394C89.7644 43.7394 90.0068 43.7665 90.2581 43.8298C90.5094 43.8931 90.7787 43.9926 91.0839 44.1463L91.0839 44.8788L91.0391 44.8788C90.7877 44.6618 90.5274 44.508 90.2761 44.4086C90.0247 44.3091 89.7554 44.2639 89.4682 44.2639C89.2348 44.2639 89.0194 44.3 88.8398 44.3814C88.6513 44.4538 88.4808 44.5713 88.3371 44.7341C88.1935 44.8878 88.0858 45.0868 88.005 45.3309C87.9242 45.5661 87.8883 45.8464 87.8883 46.1629C87.8883 46.4794 87.9332 46.7688 88.023 47.0039C88.1127 47.239 88.2205 47.4289 88.3641 47.5827C88.5077 47.7364 88.6783 47.854 88.8757 47.9263C89.0732 47.9986 89.2707 48.0348 89.4861 48.0348C89.7824 48.0348 90.0606 47.9806 90.3209 47.8811C90.5813 47.7816 90.8236 47.6279 91.048 47.4199L91.0929 47.4199L91.0929 48.1433L91.0929 48.1524Z"
            fill="#231815" />
        <path
            d="M95.5004 48.496L94.881 48.496L94.881 46.2171L92.574 46.2171L92.574 48.496L91.9547 48.496L91.9547 43.8298L92.574 43.8298L92.574 45.6565L94.881 45.6565L94.881 43.8298L95.5004 43.8298L95.5004 48.496Z"
            fill="#231815" />
        <path
            d="M98.3728 48.496L96.5416 48.496L96.5416 48.0167L97.152 48.0167L97.152 44.3091L96.5416 44.3091L96.5416 43.8298L98.3728 43.8298L98.3728 44.3091L97.7624 44.3091L97.7624 48.0167L98.3728 48.0167L98.3728 48.496Z"
            fill="#231815" />
        <path
            d="M102.951 48.496L102.188 48.496L99.9976 44.3271L99.9976 48.496L99.4231 48.496L99.4231 43.8298L100.375 43.8298L102.376 47.6369L102.376 43.8298L102.951 43.8298L102.951 48.496Z"
            fill="#231815" />
        <path
            d="M108.04 48.1433C107.789 48.2609 107.511 48.3604 107.215 48.4508C106.918 48.5412 106.622 48.5774 106.344 48.5774C105.985 48.5774 105.653 48.5231 105.356 48.4237C105.051 48.3242 104.8 48.1705 104.585 47.9715C104.369 47.7726 104.208 47.5194 104.091 47.2119C103.974 46.9044 103.92 46.5518 103.92 46.1448C103.92 45.4033 104.136 44.8155 104.567 44.3814C104.997 43.9474 105.59 43.7394 106.344 43.7394C106.604 43.7394 106.874 43.7755 107.152 43.8388C107.43 43.9021 107.726 44.0107 108.04 44.1644L108.04 44.8969L107.987 44.8969C107.924 44.8517 107.825 44.7793 107.708 44.6979C107.583 44.6165 107.466 44.5442 107.349 44.4899C107.206 44.4266 107.044 44.3724 106.865 44.3272C106.685 44.282 106.479 44.2639 106.245 44.2639C105.725 44.2639 105.321 44.4357 105.015 44.7703C104.71 45.1049 104.567 45.557 104.567 46.1267C104.567 46.7326 104.728 47.2029 105.042 47.5374C105.356 47.872 105.787 48.0439 106.326 48.0439C106.523 48.0439 106.721 48.0258 106.918 47.9806C107.116 47.9444 107.286 47.8901 107.439 47.8268L107.439 46.6874L106.2 46.6874L106.2 46.1448L108.049 46.1448L108.049 48.1433L108.04 48.1433Z"
            fill="#231815" />
        <path
            d="M114.934 48.1524C114.818 48.2066 114.719 48.2518 114.629 48.2971C114.539 48.3423 114.414 48.3875 114.27 48.4327C114.144 48.4689 114.01 48.505 113.857 48.5322C113.705 48.5593 113.543 48.5774 113.363 48.5774C113.031 48.5774 112.726 48.5322 112.448 48.4327C112.17 48.3423 111.936 48.1885 111.73 47.9896C111.532 47.7907 111.38 47.5374 111.263 47.23C111.155 46.9225 111.092 46.5698 111.092 46.1629C111.092 45.756 111.146 45.4395 111.254 45.132C111.362 44.8245 111.514 44.5713 111.721 44.3633C111.918 44.1644 112.152 44.0107 112.43 43.9021C112.708 43.7936 113.022 43.7394 113.355 43.7394C113.606 43.7394 113.848 43.7665 114.1 43.8298C114.351 43.8931 114.62 43.9926 114.925 44.1463L114.925 44.8788L114.881 44.8788C114.629 44.6618 114.369 44.508 114.118 44.4086C113.866 44.3091 113.597 44.2639 113.31 44.2639C113.076 44.2639 112.861 44.3 112.681 44.3814C112.493 44.4538 112.322 44.5713 112.179 44.7341C112.035 44.8878 111.927 45.0868 111.846 45.3309C111.766 45.5661 111.73 45.8464 111.73 46.1629C111.73 46.4794 111.775 46.7688 111.864 47.0039C111.954 47.239 112.062 47.4289 112.206 47.5827C112.349 47.7364 112.52 47.854 112.717 47.9263C112.915 47.9986 113.112 48.0348 113.328 48.0348C113.624 48.0348 113.902 47.9806 114.162 47.8811C114.423 47.7816 114.665 47.6279 114.889 47.4199L114.934 47.4199L114.934 48.1433L114.934 48.1524Z"
            fill="#231815" />
        <path
            d="M119.342 48.496L118.722 48.496L118.722 46.2171L116.415 46.2171L116.415 48.496L115.796 48.496L115.796 43.8298L116.415 43.8298L116.415 45.6565L118.722 45.6565L118.722 43.8298L119.342 43.8298L119.342 48.496Z"
            fill="#231815" />
        <path
            d="M124.234 48.496L123.579 48.496L123.121 47.1938L121.119 47.1938L120.661 48.496L120.033 48.496L121.721 43.8298L122.537 43.8298L124.225 48.496L124.234 48.496ZM122.932 46.6602L122.125 44.3724L121.308 46.6602L122.932 46.6602Z"
            fill="#231815" />
        <path
            d="M130.535 47.1576C130.535 47.3385 130.491 47.5194 130.41 47.7002C130.329 47.8811 130.212 48.0258 130.06 48.1524C129.898 48.288 129.701 48.3875 129.476 48.4689C129.252 48.5412 128.991 48.5774 128.677 48.5774C128.345 48.5774 128.04 48.5412 127.78 48.487C127.51 48.4237 127.241 48.3332 126.963 48.2066L126.963 47.4289L127.008 47.4289C127.241 47.6279 127.51 47.7726 127.816 47.8811C128.121 47.9896 128.408 48.0439 128.677 48.0439C129.054 48.0439 129.36 47.9715 129.566 47.8268C129.781 47.6821 129.889 47.4922 129.889 47.2481C129.889 47.0401 129.835 46.8863 129.737 46.7959C129.638 46.6964 129.485 46.6241 129.279 46.5698C129.126 46.5246 128.956 46.4975 128.776 46.4704C128.597 46.4432 128.399 46.4071 128.202 46.3709C127.789 46.2805 127.483 46.1358 127.286 45.9187C127.088 45.7108 126.99 45.4304 126.99 45.0868C126.99 44.6979 127.151 44.3724 127.483 44.1282C127.807 43.875 128.228 43.7575 128.731 43.7575C129.054 43.7575 129.351 43.7846 129.629 43.8479C129.898 43.9112 130.14 43.9926 130.347 44.083L130.347 44.8155L130.302 44.8155C130.123 44.6618 129.898 44.5442 129.611 44.4447C129.324 44.3453 129.027 44.3 128.731 44.3C128.399 44.3 128.139 44.3724 127.941 44.508C127.744 44.6437 127.645 44.8245 127.645 45.0416C127.645 45.2315 127.699 45.3852 127.798 45.5028C127.896 45.6113 128.076 45.7017 128.327 45.756C128.462 45.7831 128.65 45.8193 128.893 45.8645C129.135 45.9097 129.342 45.9459 129.512 45.9911C129.853 46.0815 130.114 46.2172 130.293 46.4071C130.464 46.597 130.553 46.8502 130.553 47.1848L130.535 47.1576Z"
            fill="#231815" />
        <path
            d="M135.069 48.496L134.449 48.496L134.449 46.2171L132.142 46.2171L132.142 48.496L131.523 48.496L131.523 43.8298L132.142 43.8298L132.142 45.6565L134.449 45.6565L134.449 43.8298L135.069 43.8298L135.069 48.496Z"
            fill="#231815" />
        <path
            d="M139.763 44.3633C139.952 44.5713 140.095 44.8245 140.194 45.132C140.293 45.4304 140.347 45.774 140.347 46.1629C140.347 46.5517 140.293 46.8863 140.194 47.1938C140.095 47.5013 139.952 47.7545 139.763 47.9534C139.575 48.1614 139.35 48.3242 139.09 48.4327C138.83 48.5412 138.533 48.5955 138.201 48.5955C137.869 48.5955 137.582 48.5412 137.313 48.4327C137.043 48.3242 136.819 48.1614 136.63 47.9624C136.442 47.7545 136.298 47.5013 136.2 47.2028C136.101 46.9044 136.047 46.5608 136.047 46.1719C136.047 45.7831 136.101 45.4485 136.2 45.1501C136.298 44.8516 136.442 44.5894 136.63 44.3724C136.81 44.1644 137.043 44.0106 137.313 43.9021C137.582 43.7936 137.878 43.7394 138.192 43.7394C138.507 43.7394 138.821 43.7936 139.09 43.9021C139.35 44.0106 139.575 44.1644 139.763 44.3724L139.763 44.3633ZM139.7 46.1629C139.7 45.557 139.566 45.0868 139.296 44.7612C139.027 44.4357 138.659 44.2729 138.192 44.2729C137.726 44.2729 137.349 44.4357 137.088 44.7612C136.819 45.0868 136.684 45.557 136.684 46.1629C136.684 46.7688 136.819 47.239 137.097 47.5646C137.367 47.8901 137.735 48.0529 138.201 48.0529C138.668 48.0529 139.027 47.8901 139.296 47.5646C139.566 47.239 139.709 46.7688 139.709 46.1629L139.7 46.1629Z"
            fill="#231815" />
        <path
            d="M144.35 45.2405C144.35 45.4485 144.314 45.6384 144.242 45.8192C144.171 46.0001 144.072 46.1448 143.946 46.2804C143.785 46.4432 143.596 46.5608 143.381 46.6422C143.165 46.7235 142.887 46.7597 142.555 46.7597L141.936 46.7597L141.936 48.496L141.316 48.496L141.316 43.8298L142.573 43.8298C142.851 43.8298 143.085 43.8569 143.282 43.9021C143.471 43.9473 143.641 44.0197 143.794 44.1191C143.973 44.2367 144.108 44.3904 144.198 44.5623C144.296 44.7431 144.341 44.9601 144.341 45.2314L144.35 45.2405ZM143.704 45.2586C143.704 45.0958 143.677 44.9601 143.623 44.8426C143.569 44.725 143.479 44.6256 143.372 44.5532C143.273 44.4899 143.156 44.4447 143.031 44.4176C142.905 44.3904 142.743 44.3724 142.546 44.3724L141.936 44.3724L141.936 46.2352L142.456 46.2352C142.708 46.2352 142.905 46.2171 143.067 46.1719C143.219 46.1267 143.345 46.0544 143.444 45.9549C143.542 45.8554 143.614 45.7469 143.65 45.6384C143.686 45.5299 143.713 45.4033 143.713 45.2676L143.704 45.2586Z"
            fill="#231815" />
    </g>
    <g style="mix-blend-mode:multiply">
        <path
            d="M75.5726 61.6626C75.5726 61.8435 75.5277 62.0244 75.447 62.2052C75.3662 62.3861 75.2495 62.5308 75.0969 62.6574C74.9353 62.793 74.7378 62.8925 74.5134 62.9739C74.289 63.0462 74.0287 63.0824 73.7145 63.0824C73.3824 63.0824 73.0772 63.0462 72.8169 62.992C72.5476 62.9287 72.2783 62.8382 72 62.7116L72 61.9339L72.0449 61.9339C72.2783 62.1329 72.5476 62.2776 72.8528 62.3861C73.158 62.4946 73.4452 62.5489 73.7145 62.5489C74.0915 62.5489 74.3967 62.4765 74.6032 62.3318C74.8186 62.1871 74.9263 61.9972 74.9263 61.7531C74.9263 61.5451 74.8725 61.3914 74.7737 61.3009C74.675 61.2014 74.5224 61.1291 74.3159 61.0748C74.1633 61.0296 73.9928 61.0025 73.8132 60.9754C73.6337 60.9482 73.4362 60.9121 73.2388 60.8759C72.8258 60.7855 72.5206 60.6408 72.3232 60.4237C72.1257 60.2158 72.0269 59.9354 72.0269 59.5918C72.0269 59.2029 72.1885 58.8774 72.5206 58.6332C72.8438 58.38 73.2657 58.2625 73.7684 58.2625C74.0915 58.2625 74.3877 58.2896 74.666 58.3529C74.9353 58.4162 75.1777 58.4976 75.3841 58.588L75.3841 59.3205L75.3392 59.3205C75.1597 59.1668 74.9353 59.0492 74.6481 58.9497C74.3608 58.8503 74.0646 58.796 73.7684 58.796C73.4362 58.796 73.1759 58.8683 72.9784 59.004C72.781 59.1396 72.6822 59.3205 72.6822 59.5375C72.6822 59.7274 72.7361 59.8812 72.8348 59.9987C72.9336 60.1072 73.1131 60.1977 73.3644 60.2519C73.4991 60.2791 73.6876 60.3152 73.9299 60.3604C74.1723 60.4057 74.3788 60.4418 74.5493 60.487C74.8904 60.5775 75.1507 60.7131 75.3303 60.903C75.5008 61.0929 75.5906 61.3461 75.5906 61.6807L75.5726 61.6626Z"
            fill="#231815" />
        <path
            d="M78.1938 62.9919L76.3626 62.9919L76.3626 62.5127L76.973 62.5127L76.973 58.805L76.3626 58.805L76.3626 58.3257L78.1938 58.3257L78.1938 58.805L77.5834 58.805L77.5834 62.5127L78.1938 62.5127L78.1938 62.9919Z"
            fill="#231815" />
        <path
            d="M82.7717 62.9919L82.0087 62.9919L79.8185 58.8231L79.8185 62.9919L79.244 62.9919L79.244 58.3257L80.1955 58.3257L82.1972 62.1329L82.1972 58.3257L82.7717 58.3257L82.7717 62.9919Z"
            fill="#231815" />
        <path
            d="M87.5741 62.6574C87.4575 62.7116 87.3587 62.7568 87.2689 62.8021C87.1792 62.8473 87.0535 62.8925 86.9099 62.9377C86.7842 62.9739 86.6496 63.0101 86.497 63.0372C86.3533 63.0643 86.1828 63.0824 86.0033 63.0824C85.6711 63.0824 85.3659 63.0372 85.0877 62.9377C84.8094 62.8473 84.576 62.6935 84.3696 62.4946C84.1721 62.2957 84.0195 62.0424 83.9028 61.735C83.7951 61.4275 83.7322 61.0748 83.7322 60.6679C83.7322 60.261 83.7861 59.9445 83.8938 59.637C84.0015 59.3386 84.1541 59.0763 84.3606 58.8683C84.5581 58.6694 84.7914 58.5157 85.0697 58.4072C85.348 58.2986 85.6622 58.2444 85.9943 58.2444C86.2456 58.2444 86.488 58.2715 86.7393 58.3348C86.9907 58.3981 87.26 58.4976 87.5652 58.6513L87.5652 59.3838L87.5203 59.3838C87.2689 59.1668 87.0086 59.013 86.7573 58.9136C86.5059 58.8141 86.2367 58.7689 85.9494 58.7689C85.716 58.7689 85.5006 58.805 85.3211 58.8864C85.1326 58.9588 84.962 59.0763 84.8184 59.2391C84.6748 59.3928 84.567 59.5918 84.4862 59.8359C84.4055 60.0711 84.3696 60.3514 84.3696 60.6679C84.3696 60.9844 84.4144 61.2738 84.5042 61.5089C84.594 61.744 84.7017 61.9339 84.8453 62.0877C84.9889 62.2414 85.1595 62.359 85.357 62.4313C85.5544 62.5036 85.7519 62.5398 85.9674 62.5398C86.2636 62.5398 86.5419 62.4856 86.8022 62.3861C87.0625 62.2866 87.3049 62.1329 87.5293 61.9249L87.5741 61.9249L87.5741 62.6483L87.5741 62.6574Z"
            fill="#231815" />
        <path
            d="M91.4969 62.9919L88.4449 62.9919L88.4449 58.3257L91.4969 58.3257L91.4969 58.8774L89.0642 58.8774L89.0642 60.1524L91.4969 60.1524L91.4969 60.7041L89.0642 60.7041L89.0642 62.4403L91.4969 62.4403L91.4969 62.9919Z"
            fill="#231815" />
        <path
            d="M97.4572 62.9919L94.9528 62.9919L94.9528 62.5127L95.9133 62.5127L95.9133 59.3838L94.9528 59.3838L94.9528 58.9588C95.0874 58.9588 95.2221 58.9497 95.3747 58.9226C95.5273 58.9045 95.635 58.8683 95.7158 58.8231C95.8145 58.7688 95.8863 58.7055 95.9402 58.6242C95.9941 58.5428 96.03 58.4343 96.0389 58.2986L96.5237 58.2986L96.5237 62.5036L97.4662 62.5036L97.4662 62.9829L97.4572 62.9919Z"
            fill="#231815" />
        <path
            d="M101.766 60.3785C101.766 60.7855 101.721 61.1562 101.631 61.4908C101.542 61.8254 101.398 62.1058 101.209 62.3409C101.021 62.576 100.787 62.7659 100.5 62.8925C100.213 63.0191 99.8809 63.0824 99.5039 63.0824C99.3961 63.0824 99.2974 63.0824 99.1987 63.0643C99.0999 63.0553 99.0191 63.0372 98.9473 63.0101L98.9473 62.4132L98.9742 62.4132C99.0371 62.4494 99.1179 62.4765 99.2256 62.5036C99.3333 62.5308 99.459 62.5489 99.5936 62.5489C100.051 62.5489 100.41 62.4132 100.671 62.1329C100.931 61.8525 101.084 61.4727 101.12 60.9844C100.931 61.102 100.743 61.1834 100.572 61.2376C100.401 61.2919 100.213 61.31 100.016 61.31C99.827 61.31 99.6565 61.2919 99.4949 61.2557C99.3423 61.2195 99.1897 61.1472 99.0281 61.0387C98.8486 60.9121 98.7049 60.7493 98.6152 60.5503C98.5254 60.3514 98.4805 60.1163 98.4805 59.845C98.4805 59.3657 98.6331 58.9769 98.9473 58.6784C99.2615 58.38 99.6385 58.2263 100.087 58.2263C100.312 58.2263 100.518 58.2625 100.707 58.3348C100.895 58.4072 101.066 58.5066 101.209 58.6513C101.389 58.8231 101.524 59.0492 101.613 59.3205C101.712 59.5918 101.757 59.9445 101.757 60.3785L101.766 60.3785ZM101.138 60.2519C101.138 59.9264 101.102 59.6641 101.039 59.4742C100.976 59.2753 100.877 59.1215 100.77 59.013C100.671 58.9226 100.563 58.8503 100.455 58.8141C100.348 58.7779 100.222 58.7508 100.087 58.7508C99.7911 58.7508 99.5577 58.8412 99.3782 59.0311C99.2076 59.221 99.1179 59.4833 99.1179 59.8269C99.1179 60.0259 99.1448 60.1886 99.1987 60.3152C99.2525 60.4418 99.3513 60.5503 99.4859 60.6408C99.5757 60.7041 99.6834 60.7493 99.7911 60.7674C99.8988 60.7855 100.024 60.8036 100.168 60.8036C100.33 60.8036 100.491 60.7855 100.662 60.7403C100.823 60.695 100.985 60.6317 101.129 60.5503C101.129 60.5051 101.129 60.4599 101.129 60.4237C101.129 60.3785 101.129 60.3243 101.129 60.261L101.138 60.2519Z"
            fill="#231815" />
        <path
            d="M105.805 60.3785C105.805 60.7855 105.76 61.1562 105.671 61.4908C105.581 61.8254 105.437 62.1058 105.249 62.3409C105.06 62.576 104.827 62.7659 104.54 62.8925C104.252 63.0191 103.92 63.0824 103.543 63.0824C103.436 63.0824 103.337 63.0824 103.238 63.0643C103.139 63.0553 103.059 63.0372 102.987 63.0101L102.987 62.4132L103.014 62.4132C103.076 62.4494 103.157 62.4765 103.265 62.5036C103.373 62.5308 103.498 62.5489 103.633 62.5489C104.091 62.5489 104.45 62.4132 104.71 62.1329C104.971 61.8525 105.123 61.4727 105.159 60.9844C104.971 61.102 104.782 61.1834 104.611 61.2376C104.441 61.2919 104.252 61.31 104.055 61.31C103.866 61.31 103.696 61.2919 103.534 61.2557C103.382 61.2195 103.229 61.1472 103.067 61.0387C102.888 60.9121 102.744 60.7493 102.655 60.5503C102.565 60.3514 102.52 60.1163 102.52 59.845C102.52 59.3657 102.673 58.9769 102.987 58.6784C103.301 58.38 103.678 58.2263 104.127 58.2263C104.351 58.2263 104.558 58.2625 104.746 58.3348C104.935 58.4072 105.105 58.5066 105.249 58.6513C105.428 58.8231 105.563 59.0492 105.653 59.3205C105.751 59.5918 105.796 59.9445 105.796 60.3785L105.805 60.3785ZM105.177 60.2519C105.177 59.9264 105.141 59.6641 105.078 59.4742C105.015 59.2753 104.917 59.1215 104.809 59.013C104.71 58.9226 104.602 58.8503 104.495 58.8141C104.387 58.7779 104.261 58.7508 104.127 58.7508C103.83 58.7508 103.597 58.8412 103.418 59.0311C103.247 59.221 103.157 59.4833 103.157 59.8269C103.157 60.0259 103.184 60.1886 103.238 60.3152C103.292 60.4418 103.391 60.5503 103.525 60.6408C103.615 60.7041 103.723 60.7493 103.831 60.7674C103.938 60.7855 104.064 60.8036 104.208 60.8036C104.369 60.8036 104.531 60.7855 104.701 60.7403C104.863 60.695 105.024 60.6317 105.168 60.5503C105.168 60.5051 105.168 60.4599 105.168 60.4237C105.168 60.3785 105.168 60.3243 105.168 60.261L105.177 60.2519Z"
            fill="#231815" />
        <path
            d="M109.97 61.6807L109.279 61.6807L109.279 62.9919L108.687 62.9919L108.687 61.6807L106.47 61.6807L106.47 60.9573L108.714 58.3257L109.288 58.3257L109.288 61.1743L109.979 61.1743L109.979 61.6717L109.97 61.6807ZM108.687 61.1833L108.687 59.0763L106.891 61.1833L108.687 61.1833Z"
            fill="#231815" />
    </g>
    <g style="mix-blend-mode:multiply">
        <path
            d="M91.1198 21.2404L91.1019 21.2404C90.8685 21.1771 90.68 21.1048 90.5454 21.0324C90.1324 20.8154 90.0786 20.4808 89.7105 19.5494C89.4323 18.7446 89.0283 17.5509 88.4897 15.9412C88.3192 15.4439 88.1576 14.9555 87.9871 14.4582C87.8165 13.9608 87.6639 13.5267 87.5382 13.1469C87.4126 12.7671 87.2869 12.4325 87.1882 12.1251C87.0804 11.8266 86.9997 11.5915 86.9458 11.4378L86.8471 11.1846C86.7842 11.1575 86.5419 11.1484 86.1289 11.1665C86.0661 11.1665 86.0212 11.1665 86.0033 11.1846C85.9674 11.2298 85.4377 12.7671 84.4234 15.7875C83.804 17.6413 83.3642 18.9525 83.1039 19.7303C82.8346 20.4356 82.7089 20.933 82.4665 21.0777C82.3409 21.15 82.1434 21.2043 81.8561 21.2314L81.8382 21.2314C81.542 21.2495 81.3983 21.3309 81.3983 21.4665C81.3983 21.6202 81.533 21.6926 81.8113 21.6926C81.8292 21.6926 82.0267 21.6745 82.3858 21.6474C82.7448 21.6202 83.3732 21.6293 83.8579 21.6655C84.3426 21.7016 84.567 21.7288 84.5311 21.7288C84.7555 21.7288 84.8722 21.6564 84.8722 21.5117C84.8722 21.3399 84.6299 21.2224 84.1541 21.15C84.0913 21.141 84.0374 21.1319 84.0105 21.1229C83.6335 21.0686 83.4719 20.9963 83.4719 20.734C83.4719 20.508 83.5706 20.2005 83.7951 19.5494C84.0015 18.9254 84.1182 18.5818 84.1721 18.5185C84.2708 18.3467 84.5042 18.2562 84.8543 18.2381L86.0482 18.2381C86.9638 18.2381 87.4664 18.2472 87.5562 18.2653C87.7716 18.3105 87.9242 18.4552 88.014 18.6813C88.023 18.7084 88.1217 19.0068 88.3012 19.5765C88.4 19.884 88.4718 20.1191 88.5256 20.318C88.5795 20.526 88.6154 20.7159 88.6154 20.8064C88.6154 21.0777 88.4449 21.1048 87.9691 21.15C87.9332 21.15 87.8973 21.1591 87.8704 21.1591C87.4305 21.1862 87.2151 21.3218 87.2151 21.4846C87.2151 21.6474 87.3587 21.7197 87.637 21.7197L88.4718 21.6745C89.0104 21.6474 89.5579 21.6474 90.1145 21.6745C90.662 21.7016 90.9762 21.7197 91.048 21.7197C91.3173 21.7197 91.452 21.6383 91.452 21.4665C91.452 21.3851 91.3443 21.3128 91.1378 21.2495L91.1198 21.2404ZM87.3767 17.578C87.26 17.6413 86.5598 17.6504 85.2851 17.6051C84.9171 17.5961 84.7107 17.578 84.6747 17.5599C84.594 17.5147 84.5581 17.4514 84.567 17.361C84.576 17.2072 84.7825 16.52 85.1774 15.3263C85.5814 14.1055 85.8148 13.4453 85.8686 13.3459C85.9763 13.1379 86.093 13.156 86.2187 13.4001C86.2726 13.5177 86.497 14.1597 86.883 15.3263C87.3048 16.6285 87.5113 17.3339 87.5023 17.4514C87.4844 17.4966 87.4395 17.5418 87.3767 17.578Z"
            fill="#231815" />
        <path
            d="M104.154 21.1771C103.983 21.168 103.857 21.1499 103.777 21.1318C103.507 21.0776 103.418 20.9962 103.328 20.8877C103.211 20.7701 103.148 20.4988 103.139 20.0738L103.139 20.0286C103.094 18.1024 103.103 15.7241 103.166 12.8846C103.175 12.4325 103.184 12.1792 103.193 12.1431C103.256 12.0165 103.364 11.9351 103.516 11.908C103.624 11.8808 103.786 11.8537 103.983 11.8356C104.342 11.7994 104.477 11.7904 104.54 11.709C104.585 11.6457 104.593 11.6005 104.593 11.501C104.593 11.501 104.593 11.3744 104.531 11.3202C104.459 11.2659 104.234 11.2659 104.234 11.2659L103.13 11.2659C102.969 11.2569 102.825 11.2569 102.69 11.2569L102.34 11.2569C102.242 11.2569 102.152 11.2569 102.071 11.2569C101.99 11.2569 101.919 11.2569 101.874 11.2569C101.829 11.2569 101.721 11.2569 101.658 11.3202C101.568 11.4015 101.586 11.3925 101.497 11.6186C101.425 11.7904 101.335 12.0255 101.218 12.333C100.77 13.5086 100.393 14.4671 100.114 15.2267C99.064 17.9577 98.4895 19.3865 98.3997 19.5222C98.3459 19.5764 98.292 19.5945 98.2292 19.5674C98.1664 19.5403 97.9779 19.1424 97.6637 18.3828C97.4482 17.8764 97.0353 16.8545 96.4159 15.3081C96.2454 14.8922 96.0838 14.4671 95.9133 14.0512C95.7427 13.6352 95.5901 13.2644 95.4644 12.9479C95.3388 12.6314 95.2221 12.342 95.1144 12.0888C95.0156 11.8356 94.9259 11.6367 94.863 11.492C94.863 11.492 94.8092 11.3744 94.7373 11.3292C94.6207 11.2478 94.6207 11.2569 94.3514 11.2478C93.9654 11.2297 93.328 11.2297 92.4304 11.2478C92.1342 11.2569 92.0354 11.2478 91.9726 11.3021C91.9008 11.4015 91.9098 11.6457 91.9636 11.7C91.9906 11.7361 92.0265 11.7542 92.0983 11.7723C92.188 11.7904 92.3317 11.8085 92.5202 11.8266C92.951 11.8899 93.2114 11.9622 93.2832 12.0526C93.2921 12.0798 93.3011 12.0979 93.3101 12.1069C93.364 12.2335 93.3729 14.3586 93.337 18.4551C93.337 19.1424 93.3281 19.6669 93.3191 20.0467C93.2742 20.7701 93.1395 21.1138 92.7176 21.1138L92.2868 21.1138C92.0444 21.1138 91.9277 21.2132 91.9277 21.4031C91.9277 21.6111 92.1162 21.7196 92.5022 21.7196C92.5561 21.7196 92.7715 21.7106 93.1665 21.6925C93.5614 21.6744 93.6063 21.6744 94.0372 21.6925C94.4681 21.7106 94.7104 21.7196 94.7553 21.7196C95.1772 21.7196 95.3926 21.6111 95.3926 21.4031C95.3926 21.2132 95.24 21.1138 94.9259 21.1138L94.7463 21.1138C94.7463 21.1138 94.3783 21.1138 94.2347 20.8696C94.127 20.6887 94.0821 20.327 94.0731 19.8839C94.0731 19.5041 94.0641 18.8168 94.0551 17.795C94.0551 17.2162 94.0551 16.5199 94.0372 15.6879C94.0282 14.2591 94.0372 13.5267 94.0641 13.4995L94.0821 13.4814C94.0821 13.4814 94.0821 13.4634 94.1 13.4543C94.1449 13.382 94.1988 13.391 94.2526 13.4814C94.3603 13.6713 94.9438 15.0459 95.9851 17.6231L95.9851 17.6503L96.003 17.6684L96.003 17.6865L96.021 17.7045L96.021 17.7226C97.0892 20.3451 97.6457 21.6654 97.6727 21.6835C97.7355 21.7287 97.906 21.7377 98.1843 21.7016C98.2202 21.6925 98.2471 21.6835 98.2651 21.6744C98.292 21.6473 98.8037 20.3451 99.8001 17.7769C100.859 15.0368 101.461 13.59 101.586 13.4181C101.658 13.3277 101.712 13.3548 101.739 13.5176C101.748 13.5447 101.757 13.5809 101.766 13.6261C101.811 13.8884 101.811 15.8959 101.766 19.6578L101.766 20.1009C101.766 20.5531 101.694 20.8515 101.55 20.9781C101.407 21.1047 101.209 21.168 100.725 21.168C100.5 21.168 100.393 21.2494 100.393 21.4212C100.393 21.6111 100.545 21.7016 100.85 21.7016C100.868 21.7016 101.147 21.6835 101.676 21.6473C102.215 21.6111 102.843 21.6111 103.355 21.6473C103.866 21.6835 104.136 21.7016 104.163 21.7016C104.459 21.7016 104.611 21.6111 104.611 21.4212C104.611 21.2675 104.459 21.1861 104.163 21.168L104.154 21.1771Z"
            fill="#231815" />
        <path
            d="M109.845 21.159C109.665 21.15 109.557 21.1319 109.513 21.1138C109.243 21.0505 108.938 20.9601 108.875 20.8516C108.803 20.734 108.768 20.4446 108.768 19.9834L108.768 12.6586C108.786 12.3963 108.812 12.2245 108.857 12.1431C108.92 12.0256 109.091 11.9351 109.351 11.8809C109.36 11.8809 109.531 11.8718 109.548 11.8718C109.719 11.8447 109.818 11.8357 109.845 11.8357L109.863 11.8357C110.114 11.7995 110.24 11.7091 110.24 11.5644C110.24 11.3654 110.105 11.266 109.836 11.266L109.073 11.3202C108.687 11.3564 108.444 11.3745 108.058 11.3745C107.592 11.3745 106.999 11.3383 106.29 11.266C106.021 11.266 105.886 11.3654 105.886 11.5644C105.886 11.7362 106.012 11.8266 106.272 11.8357C106.452 11.8447 106.559 11.8628 106.604 11.8809C106.874 11.9442 107.179 12.0346 107.242 12.1431C107.313 12.2607 107.349 12.5501 107.349 13.0113L107.349 20.1372C107.349 20.5079 107.313 20.7521 107.251 20.8606C107.188 20.9782 107.017 21.0686 106.757 21.1229C106.748 21.1229 106.577 21.1319 106.559 21.1319C106.389 21.159 106.29 21.1681 106.263 21.1681L106.245 21.1681C105.994 21.2042 105.868 21.2947 105.868 21.4394C105.868 21.6383 106.003 21.7378 106.272 21.7378L107.035 21.6835C107.421 21.6474 107.663 21.6293 108.049 21.6293C108.516 21.6293 109.109 21.6654 109.818 21.7378C110.087 21.7378 110.222 21.6383 110.222 21.4394C110.222 21.2676 110.096 21.1771 109.836 21.1681L109.845 21.159Z"
            fill="#231815" />
        <path
            d="M121.11 11.2478C121.11 11.2478 120.904 11.2568 120.572 11.2749C120.239 11.293 119.997 11.3021 119.844 11.3021C119.719 11.3021 119.467 11.293 119.099 11.2749C118.731 11.2568 118.507 11.2478 118.435 11.2478C118.085 11.2478 117.915 11.3382 117.915 11.5281C117.915 11.718 118.031 11.7994 118.274 11.7994C118.956 11.7994 119.467 11.9532 119.539 12.2697C119.548 12.3239 119.566 12.4143 119.575 12.5048C119.611 13.1468 119.62 14.6118 119.611 16.8997C119.611 18.0662 119.593 18.6812 119.566 18.7535C119.521 18.8439 119.485 18.8892 119.467 18.8801C119.387 18.8801 118.983 18.3918 118.274 17.4151C118.04 17.0896 117.448 16.2576 116.487 14.9193C116.29 14.6389 116.092 14.3676 115.895 14.0963C115.697 13.8251 115.518 13.5719 115.347 13.3458C115.177 13.1107 115.015 12.8936 114.863 12.6766C114.701 12.4596 114.566 12.2697 114.45 12.1069C114.333 11.9351 114.225 11.7904 114.135 11.6728C114.073 11.5914 114.028 11.5372 113.983 11.4739C113.839 11.3021 113.624 11.2659 113.624 11.2659C113.426 11.2659 113.112 11.2568 112.645 11.2568L111.676 11.2568L111.676 11.2749C111.676 11.2749 111.469 11.2749 111.469 11.51C111.469 11.7452 111.676 11.8085 111.757 11.8175C112.259 11.8718 112.547 11.9712 112.627 12.125C112.645 12.1521 112.663 12.1792 112.672 12.1973C112.726 12.351 112.699 19.1785 112.699 19.1785C112.699 19.2599 112.699 19.3413 112.699 19.4137C112.69 20.1461 112.636 20.6254 112.529 20.8515C112.412 21.0957 112.295 21.1499 111.936 21.1499L111.757 21.1499C111.514 21.1499 111.389 21.2403 111.389 21.4122C111.389 21.6292 111.55 21.7377 111.882 21.7377C111.945 21.7377 112.143 21.7287 112.475 21.7015C112.807 21.6744 113.031 21.6654 113.148 21.6654C113.283 21.6654 113.534 21.6744 113.893 21.7015C114.252 21.7287 114.459 21.7377 114.521 21.7377C114.872 21.7377 115.051 21.6292 115.051 21.4122C115.051 21.2403 114.925 21.1499 114.665 21.1499L114.405 21.1499C114.037 21.1499 113.651 21.0414 113.534 20.8244C113.426 20.6073 113.363 20.11 113.363 19.3504C113.363 19.1152 113.363 18.4189 113.363 17.8402L113.363 16.6827C113.363 14.6661 113.39 13.599 113.444 13.4814C113.471 13.4362 113.525 13.4362 113.615 13.4814C113.678 13.5085 113.857 13.7165 114.144 14.1054C114.369 14.4129 115.222 15.5975 116.721 17.6683C118.345 19.9201 119.279 21.2132 119.548 21.584C119.548 21.584 119.575 21.6202 119.584 21.6292C119.638 21.7015 119.755 21.8101 119.952 21.8101C120.239 21.8101 120.248 21.5297 120.248 21.5116C120.257 20.96 120.266 19.4589 120.266 16.9811C120.266 15.4076 120.275 14.2139 120.293 13.4091C120.311 12.7942 120.356 12.3691 120.455 12.1521C120.554 11.926 120.733 11.8085 121.065 11.8085L121.317 11.8085C121.487 11.8085 121.577 11.7271 121.577 11.5553C121.577 11.3563 121.424 11.2568 121.119 11.2568L121.11 11.2478Z"
            fill="#231815" />
        <path
            d="M131.9 16.746C131.9 16.746 131.819 16.7551 131.693 16.7731C131.182 16.8545 129.458 16.8636 129.009 16.8184C128.561 16.7731 128.354 16.746 128.39 16.746C128.202 16.746 128.112 16.8274 128.112 16.9902C128.112 17.1529 128.246 17.2524 128.525 17.2615C128.65 17.2615 129.144 17.2886 129.279 17.3157C129.503 17.3609 129.638 17.4333 129.692 17.5328C129.746 17.6322 129.772 17.8493 129.772 18.1839L129.772 18.7445C129.772 19.7031 129.772 20.5169 129.701 20.7159C129.638 20.9148 129.485 21.0414 129.261 21.1047C129.198 21.1138 129.099 21.1319 128.974 21.159C127.501 21.4574 126.317 21.1409 125.41 20.2095C124.737 19.5041 124.324 18.5365 124.18 17.3157C123.983 15.688 124.27 14.3225 125.024 13.2283C125.697 12.2426 126.595 11.7181 127.708 11.6548C128.067 11.6367 128.426 11.6729 128.785 11.7543C129.225 11.8447 129.503 11.9622 129.62 12.1069C129.728 12.2697 129.853 12.6676 129.979 13.3097C130.015 13.4905 130.051 13.6262 130.078 13.7347C130.114 13.8522 130.23 14.0783 130.544 14.0783C130.859 14.0783 130.912 13.807 130.921 13.6533C130.921 13.4905 130.921 13.2916 130.921 13.0203L130.921 12.9118C130.912 12.2064 130.895 11.8266 130.868 11.7633C130.832 11.7181 130.751 11.6638 130.634 11.6096C129.674 11.1212 128.579 10.9313 127.349 11.0218C127.106 11.0399 126.882 11.076 126.658 11.1212C125.123 11.4378 123.992 12.2607 123.247 13.5809C122.591 14.7656 122.385 16.0678 122.627 17.4785C122.87 18.8983 123.498 20.0196 124.512 20.8335C125.302 21.4755 126.245 21.8372 127.322 21.9096C128.202 21.9638 129.126 21.8372 130.105 21.5207C130.383 21.4303 130.598 21.3308 130.787 21.2313C130.903 21.1409 131.146 20.9148 131.146 20.4717L131.146 18.2019C131.146 17.8673 131.164 17.6413 131.227 17.5508C131.388 17.2795 131.666 17.2795 131.783 17.2795C132.026 17.2705 132.151 17.1801 132.151 17.0083C132.151 16.8364 132.07 16.7641 131.9 16.7641L131.9 16.746Z"
            fill="#231815" />
        <path
            d="M81.0483 13.9698C80.3571 12.4597 79.0555 11.5734 77.1435 11.2931C77.0627 11.275 76.8114 11.266 76.4164 11.2569C76.1651 11.2569 75.7252 11.2298 75.0879 11.2841C74.4506 11.3293 74.0825 11.3564 73.9658 11.3564C73.8222 11.3564 73.5439 11.3383 73.14 11.3022C72.7361 11.266 72.4937 11.2117 72.4039 11.2117C72.1346 11.2117 72 11.3293 72 11.4921C72 11.6096 72.1257 11.7543 72.377 11.7905L72.395 11.7905C72.395 11.7905 72.6553 11.7995 72.8258 11.8176C72.8438 11.8176 72.8617 11.8176 72.8707 11.8176C73.131 11.8628 73.2657 11.9352 73.3375 12.0256C73.4003 12.1251 73.4721 12.3602 73.4721 12.74C73.4721 12.7943 73.4721 12.8395 73.4721 12.9028C73.4811 13.2826 73.4901 13.8613 73.4901 14.6481C73.4901 15.3173 73.4901 15.9051 73.4901 16.4657C73.4901 17.0264 73.4901 17.6142 73.4901 18.2834C73.4901 19.0611 73.4901 19.6489 73.4721 20.0287C73.4721 20.092 73.4721 20.1372 73.4632 20.1915C73.4632 20.5713 73.4003 20.8064 73.3375 20.9059C73.2747 21.0053 73.14 21.0686 72.8707 21.1138C72.8617 21.1138 72.8438 21.1138 72.8258 21.1138C72.6553 21.1319 72.4219 21.141 72.395 21.141L72.377 21.141C72.1257 21.1681 72 21.3218 72 21.4394C72 21.6022 72.1346 21.7197 72.4039 21.7197C72.4847 21.7197 72.7271 21.6655 73.14 21.6293C73.544 21.5931 73.8222 21.575 73.9658 21.575C74.0825 21.575 74.4506 21.6022 75.0879 21.6474C75.7252 21.6926 76.1651 21.6745 76.4164 21.6745C76.8114 21.6655 77.0627 21.6474 77.1435 21.6383C79.0555 21.358 80.3571 20.4627 81.0483 18.9616C81.3804 18.2382 81.5509 17.4062 81.5509 16.4657C81.5509 15.5253 81.3894 14.6933 81.0483 13.9698ZM77.0717 21.0053C76.8383 21.0596 76.5959 21.0777 76.3536 21.0958C75.8329 21.0958 75.3213 21.0144 75.1418 20.8154C74.9622 20.6165 74.8904 20.2367 74.8904 19.667C74.8725 18.9254 74.8725 17.8584 74.8725 16.4657C74.8725 15.0731 74.8725 14.006 74.8904 13.2645C74.8904 12.6948 74.9622 12.315 75.1418 12.116C75.3213 11.9171 75.8329 11.8357 76.3536 11.8357C76.5959 11.8447 76.8383 11.8719 77.0717 11.9261C78.9747 12.3512 79.9262 13.8613 79.9352 16.4657C79.9262 19.0611 78.9657 20.5713 77.0717 21.0053Z"
            fill="#231815" />
    </g>
    <g style="mix-blend-mode:multiply">
        <path d="M72 39L139 39" stroke="#231815" stroke-width="0.25" stroke-miterlimit="10" />
    </g>
    <path
        d="M64.9222 27.8246C65.1679 27.8246 65.3709 27.6231 65.3709 27.3792V24.6754C65.3709 23.9438 64.7727 23.35 64.0356 23.35H40.7921C41.5185 19.6495 41.903 15.8642 41.903 12.0259V8.32539C41.903 7.59378 41.3048 7 40.5678 7H25.2608C25.0151 7 24.8122 7.20146 24.8122 7.44533V14.9523C24.8122 17.7834 24.5985 20.5932 24.1926 23.3606H1.78225C1.53657 23.3606 1.33362 23.5621 1.33362 23.806V26.5098C1.33362 27.2414 1.9318 27.8352 2.66884 27.8352H23.3381C20.2831 41.1527 12.5388 53.1342 1.26952 61.5743C0.756799 61.956 1.02384 62.7619 1.66475 62.7619H12.8486C13.0195 62.7619 13.1797 62.7195 13.3186 62.624C26.4144 54.555 35.7076 42.054 39.7026 27.8246H64.9009H64.9222Z"
        fill="#231815" />
    <path
        d="M53.5889 38.6504C46.635 38.6504 40.995 44.2488 40.995 51.1515C40.995 58.0541 46.635 63.6526 53.5889 63.6526C60.5427 63.6526 66.1827 58.0541 66.1827 51.1515C66.1827 44.2488 60.5427 38.6504 53.5889 38.6504ZM53.5889 54.9262C51.4952 54.9262 49.7861 53.2297 49.7861 51.1515C49.7861 49.0733 51.4952 47.3768 53.5889 47.3768C55.6825 47.3768 57.3916 49.0733 57.3916 51.1515C57.3916 53.2297 55.6825 54.9262 53.5889 54.9262Z"
        fill="#231815" />
    <path
        d="M77.0912 35.1033C77.037 35.0584 77.0189 34.8879 77.037 34.6096C77.0822 33.9902 77.1003 33.5414 77.1003 33.2721C77.1003 32.9131 77.046 32.7066 76.9285 32.6527C76.9013 32.6527 76.8471 32.6438 76.7657 32.6438C76.0513 32.6168 75.4816 32.6258 75.0656 32.6797L74.8305 32.7156L74.7672 32.6438C74.7672 32.6438 74.731 32.5989 74.7039 32.554C74.5501 32.2937 74.4868 32.159 74.514 32.1411H74.6044C74.6044 32.1411 74.6587 32.1411 74.6948 32.1411C74.731 32.1411 74.7672 32.1411 74.8033 32.1501C74.8486 32.1501 74.8847 32.159 74.9299 32.168C76.2593 32.3296 76.9827 32.3296 77.0822 32.159C77.1003 32.1231 77.1093 31.9256 77.1093 31.5576C77.1455 30.0406 77.1364 29.2058 77.0822 29.0711C77.0822 29.0711 77.0822 29.0532 77.0731 29.0352C77.0098 28.9006 76.8471 29.0083 76.5939 29.3584C75.5901 30.7138 74.3241 31.8359 72.7777 32.7245C72.7777 32.7245 72.7596 32.7246 72.7506 32.7335C72.3346 32.9669 72.0995 33.0746 72.0543 33.0387C72 32.9938 72.0723 32.8861 72.2803 32.7156C72.5788 32.4912 72.8862 32.2308 73.1937 31.9346C74.4145 30.7497 75.3731 29.3943 76.0694 27.8593C76.1146 27.7695 76.1417 27.6798 76.1688 27.608C76.2321 27.4105 76.2141 27.2848 76.1055 27.222C76.0603 27.1951 75.8071 27.1861 75.364 27.1771C73.9533 27.1502 72.9947 27.1771 72.4883 27.2489H72.4793C72.3888 27.2669 72.3255 27.2579 72.2894 27.2399C72.2532 27.222 72.1989 27.1412 72.1266 27.0065C72.0543 26.8719 72.009 26.7821 72 26.7373C72 26.7014 72.0181 26.6834 72.0723 26.6924C72.2442 26.7283 72.633 26.7732 73.2389 26.827C73.3745 26.827 73.6097 26.845 73.9533 26.854C75.8252 26.9078 76.8109 26.9168 76.9194 26.8629C76.9646 26.836 77.0098 26.818 77.046 26.7911C77.1003 26.7283 77.1184 26.2525 77.1184 25.3728C77.1184 24.4931 77.1184 24.0712 77.1455 24.0264C77.1455 24.0264 77.2178 24.0264 77.3535 24.0264C77.4982 24.0264 77.6519 24.0443 77.8328 24.0533C78.0046 24.0623 78.1854 24.0802 78.3572 24.0982C78.5291 24.1161 78.6557 24.1341 78.7371 24.152C78.7551 24.152 78.7732 24.179 78.8004 24.1969C78.8184 24.2867 78.7461 24.3675 78.5743 24.4572C78.5019 24.4931 78.4386 24.538 78.4025 24.5739C78.3392 24.6637 78.303 25.0317 78.303 25.687C78.303 26.0461 78.303 26.2884 78.312 26.4231C78.312 26.6206 78.3663 26.7462 78.4477 26.7911L78.5381 26.854H81.1515L81.2781 26.7911C81.3505 26.7552 81.4861 26.6206 81.676 26.3692C81.8207 26.1987 81.9112 26.082 81.9654 26.0281C82.0197 25.9563 82.0739 25.9294 82.1192 25.9473L82.1553 25.9743C82.1553 25.9743 82.2096 26.0191 82.2458 26.055C82.2819 26.082 82.3181 26.1179 82.3633 26.1538C82.4085 26.1897 82.4537 26.2256 82.508 26.2705C82.5623 26.3154 82.6075 26.3602 82.6617 26.3962C82.716 26.441 82.7702 26.4859 82.8336 26.5308C82.8878 26.5757 82.9421 26.6116 82.9963 26.6565C83.0415 26.6924 83.0958 26.7373 83.132 26.7642C83.1772 26.8001 83.2134 26.827 83.2405 26.854C83.3309 26.9437 83.3852 27.0155 83.3942 27.0694C83.3761 27.1412 83.2676 27.1771 83.0777 27.1951C82.8788 27.204 82.2096 27.213 81.0702 27.213H79.6323C79.0355 27.213 78.719 27.2758 78.6918 27.3746C78.6738 27.4195 78.7551 27.581 78.927 27.8503C79.135 28.1735 79.3701 28.4966 79.6233 28.8198C80.6632 30.0944 81.9021 31.0639 83.3219 31.7282C83.3761 31.7551 83.4304 31.782 83.4756 31.809C83.6203 31.8897 83.6022 31.9616 83.4213 32.0244C83.4213 32.0244 83.3942 32.0244 83.3761 32.0334C82.9963 32.177 82.725 32.4463 82.5532 32.8412C82.5532 32.8682 82.5351 32.8861 82.517 32.9131C82.4718 32.9579 82.3724 32.931 82.2186 32.8143C80.7717 31.8 79.6323 30.3368 78.7823 28.4248C78.7099 28.2543 78.6466 28.1196 78.5924 28.0388C78.5019 27.8773 78.4206 27.8503 78.3572 27.976C78.3392 28.0299 78.3301 28.371 78.3211 29.0083C78.2939 31.028 78.3211 32.0782 78.3753 32.168C78.3934 32.2039 78.4206 32.2308 78.4477 32.2578C78.6828 32.4822 79.0174 32.3116 79.4515 31.7371C79.5781 31.5666 79.6594 31.4678 79.7047 31.4499C79.7499 31.4499 79.8674 31.5307 80.0664 31.7102C80.3105 31.9167 80.4552 32.0423 80.5185 32.0962C80.8079 32.3565 80.9164 32.5181 80.8441 32.572C80.7808 32.6168 80.3648 32.6438 79.6142 32.6527C79.135 32.6527 78.8637 32.6527 78.7732 32.6617C78.52 32.6886 78.3753 32.7694 78.3392 32.922C78.312 33.0118 78.3211 33.3798 78.3663 34.0351C78.3844 34.3134 78.3934 34.5109 78.3934 34.6365V34.852L78.303 34.9238C78.2216 34.9866 78.104 35.0495 77.9684 35.1033C77.5886 35.2469 77.3263 35.2649 77.1817 35.1751C77.1545 35.1572 77.1364 35.1392 77.1184 35.1302L77.0912 35.1033Z"
        fill="#231815" />
    <path
        d="M86.2452 35.0816C86.2 35.0277 86.2 34.7135 86.2452 34.139C86.2723 33.7261 86.2904 33.1965 86.3085 32.5323C86.3628 30.3599 86.3628 29.202 86.2814 29.0584C86.2633 29.0225 86.2362 28.9955 86.209 28.9776C86.1457 28.9506 85.9558 29.1033 85.6574 29.4174C85.6031 29.4803 85.5489 29.5431 85.4946 29.597C85.0606 30.0548 84.8074 30.2433 84.735 30.1804C84.7169 30.1535 84.7893 30.0099 84.934 29.7316C85.0153 29.597 85.1058 29.4444 85.2053 29.2828C86.0553 27.8106 86.7064 26.1859 87.1676 24.4265C87.2309 24.1842 87.2761 24.0495 87.2942 24.0405C87.2942 24.0405 87.3304 24.0405 87.4117 24.0585C87.4931 24.0764 87.5836 24.1034 87.7011 24.1393C87.8096 24.1752 87.9362 24.2021 88.0719 24.238C88.2075 24.2739 88.3341 24.3098 88.4517 24.3457C88.5693 24.3816 88.6687 24.4086 88.7501 24.4445C88.8315 24.4714 88.8767 24.4894 88.8858 24.4983C88.9038 24.5163 88.8948 24.5432 88.8767 24.5791C88.8134 24.6689 88.723 24.7138 88.6235 24.7138C88.6235 24.7138 88.6054 24.7138 88.5964 24.7227C88.4969 24.7766 88.4065 24.9023 88.3251 25.0997C88.1533 25.5486 87.9182 26.0423 87.6378 26.5898C87.4931 26.8771 87.4208 27.0656 87.4117 27.1554C87.4117 27.2631 87.4841 27.3528 87.665 27.4247C87.7102 27.4426 87.7373 27.4606 87.7554 27.4695C87.8729 27.5593 87.8368 27.6221 87.6559 27.667C87.6197 27.6939 87.5836 27.7299 87.5474 27.8017C87.5474 27.8376 87.5293 28.0351 87.5203 28.4121C87.466 30.5754 87.466 32.2001 87.5203 33.2953V33.5107C87.5384 33.6453 87.5474 33.7351 87.5474 33.7979C87.5474 33.8608 87.5474 33.9326 87.5474 34.0313C87.5474 34.1301 87.5474 34.2198 87.5474 34.2916L87.5836 34.8212L87.4931 34.8841C87.4208 34.9469 87.3123 35.0098 87.1766 35.0636C86.7968 35.2162 86.5346 35.2521 86.3628 35.1803C86.3085 35.1534 86.2723 35.1354 86.2362 35.1085L86.2452 35.0816ZM87.9182 34.2198C87.9182 34.166 88.0628 34.157 88.3341 34.1929C88.3974 34.1929 88.515 34.2109 88.6687 34.2288C88.8315 34.2468 88.94 34.2557 88.9852 34.2647C89.2475 34.2916 89.781 34.3006 90.5768 34.3006C91.1736 34.3006 91.5715 34.3006 91.7614 34.3006C91.9785 34.3006 92.1232 34.2557 92.1865 34.1839C92.2136 34.148 92.2498 34.0223 92.3131 33.7979C92.6205 32.5951 92.9551 30.8537 93.2988 28.5826C93.3892 28.0081 93.4435 27.7029 93.4615 27.676L93.5881 27.7029C93.6695 27.7029 93.778 27.7298 93.9046 27.7568C94.0312 27.7837 94.1669 27.8106 94.3025 27.8465C94.4472 27.8825 94.5738 27.9094 94.7004 27.9453C94.818 27.9812 94.9265 27.9991 95.0079 28.0261C95.0893 28.044 95.1345 28.062 95.1435 28.071C95.1797 28.1248 95.1164 28.1966 94.9717 28.2684C94.8903 28.3043 94.818 28.3313 94.7728 28.3762C94.7185 28.43 94.601 28.7173 94.4382 29.2379C94.3839 29.4174 94.3206 29.6149 94.2483 29.8303C93.6605 31.6077 93.0998 32.999 92.5753 33.9954C92.5211 34.0942 92.512 34.1749 92.5211 34.2198C92.5572 34.3006 92.8376 34.3365 93.3711 34.3365C93.8142 34.3365 94.0855 34.3096 94.194 34.2647C94.2845 34.2288 94.4382 34.0672 94.6552 33.789C94.6823 33.762 94.7095 33.7261 94.7456 33.6723C94.8723 33.5107 94.9627 33.4389 95.0079 33.4479C95.0622 33.4479 95.2159 33.5735 95.4872 33.7979C95.8218 34.0672 96.0478 34.2468 96.1654 34.3545C96.2649 34.4532 96.292 34.534 96.2377 34.5789C96.2197 34.5968 96.2016 34.6058 96.1744 34.6148C96.075 34.6507 94.8542 34.6776 92.512 34.6776C90.1699 34.6776 88.9852 34.6776 88.7772 34.7046C88.515 34.7315 88.3884 34.7405 88.3794 34.7405H88.2256L88.1623 34.6597C88.0176 34.4442 87.9453 34.3096 87.9362 34.2468L87.9182 34.2198ZM88.4155 26.9938C88.2528 26.7155 88.1894 26.5719 88.2166 26.545C88.2166 26.545 88.2437 26.536 88.2889 26.545C88.3341 26.5539 88.3974 26.5539 88.4698 26.5629C88.8586 26.6258 89.3741 26.6706 89.9981 26.6886C90.4683 26.7065 90.7305 26.7155 90.7938 26.7245C90.9657 26.7245 91.1013 26.6796 91.1827 26.5719C91.3093 26.3475 91.2912 25.6653 91.1284 24.5253C91.0832 24.238 91.0651 24.0764 91.0832 24.0675L91.4811 24.1034C91.7434 24.1303 92.0237 24.1482 92.304 24.1842C92.5844 24.2111 92.7562 24.229 92.8014 24.238C92.8376 24.238 92.8557 24.2739 92.8557 24.3098C92.8557 24.4086 92.7833 24.4714 92.6567 24.5253C92.6205 24.5432 92.5934 24.5612 92.5572 24.5881C92.503 24.642 92.4668 24.9651 92.4578 25.5486V25.773C92.4578 26.2577 92.4758 26.527 92.5482 26.5988C92.6024 26.6706 92.8014 26.7065 93.1269 26.7065H93.2626C93.6424 26.7065 93.8866 26.6886 93.986 26.6437C94.0584 26.6078 94.2031 26.4731 94.402 26.2308C94.5648 26.0153 94.6823 25.8897 94.7366 25.8538C94.7818 25.8538 94.9175 25.9525 95.1616 26.15C95.7133 26.5809 95.9845 26.8322 95.9845 26.895C95.9845 26.9309 95.9755 26.9669 95.9484 26.9848C95.8579 27.0207 94.7004 27.0387 92.4849 27.0476H92.4578C90.1337 27.0476 88.8496 27.0835 88.6054 27.1284C88.5602 27.1284 88.5331 27.1284 88.506 27.1195C88.4879 27.1015 88.4607 27.0656 88.4155 27.0117V26.9938ZM90.206 33.2683C90.0794 33.1696 90.0161 32.9811 90.0161 32.6759C90.0161 32.3527 90.0071 32.0116 89.98 31.6615C89.8805 30.0548 89.6273 28.7981 89.2204 27.9004C89.2204 27.8735 89.2204 27.8376 89.2656 27.8017L89.3379 27.7568L89.4374 27.8735C89.7177 28.1787 89.989 28.5467 90.2513 28.9776C90.8481 29.974 91.1646 30.8896 91.2008 31.7333C91.2279 32.2181 91.1556 32.64 90.9747 32.9721C90.7938 33.3491 90.5678 33.4748 90.3146 33.3401C90.2693 33.3132 90.2332 33.2953 90.206 33.2683Z"
        fill="#231815" />
    <path
        d="M99.3968 35.2565L98.9085 34.1254C98.9085 34.1254 99.0622 34.0806 99.3607 34.0536H99.4511C100.129 34.0087 100.518 33.9459 100.618 33.8651C100.69 33.8113 100.726 33.6497 100.726 33.3714C100.726 33.0931 100.699 32.9316 100.636 32.8687C100.572 32.8149 100.319 32.8508 99.8942 32.9765C99.2069 33.156 98.6372 33.2906 98.1851 33.3804C98.1037 33.3983 98.0223 33.4073 97.959 33.4163C97.6606 33.4702 97.4887 33.4881 97.4616 33.4612C97.4435 33.4432 97.4345 33.4253 97.4254 33.3983C97.4254 33.3624 97.5701 33.2996 97.8595 33.2098C98.9175 32.8687 99.8309 32.4738 100.609 32.016C101.233 31.6479 101.441 31.4145 101.224 31.3338C101.178 31.3158 101.016 31.3068 100.726 31.2979C99.4873 31.2799 98.6372 31.2979 98.1851 31.3607C98.0313 31.3786 97.9409 31.3786 97.9138 31.3697C97.8686 31.3697 97.7872 31.2709 97.6877 31.0824C97.6425 31.0106 97.6154 30.9568 97.5882 30.9029C97.5521 30.8131 97.5792 30.7772 97.6515 30.7952C97.8233 30.8401 98.2122 30.8849 98.8 30.9208C98.8452 30.9208 98.9447 30.9208 99.0713 30.9298C101.106 30.9927 102.218 31.0106 102.399 30.9747C102.661 30.9388 102.725 30.6875 102.598 30.2297C102.598 30.2027 102.544 30.0412 102.471 29.736C102.417 29.4487 102.254 29.2692 101.974 29.1884C101.974 29.1884 101.956 29.1884 101.947 29.1794C101.802 29.1435 101.73 29.1166 101.73 29.0717C101.73 29.0178 101.857 28.9909 102.101 28.9999C102.245 28.9999 102.354 28.9999 102.435 28.9909C102.562 28.955 102.634 28.8114 102.643 28.578C102.643 28.4254 102.643 28.3177 102.616 28.2369C102.562 28.1292 102.381 28.0753 102.055 28.0753C101.784 28.0753 101.621 28.1022 101.54 28.1561C101.468 28.2279 101.432 28.4523 101.45 28.8383C101.45 28.9101 101.468 29.0537 101.477 29.2602C101.477 29.4397 101.486 29.5654 101.486 29.6372V30.0771L101.432 30.1489C101.368 30.2117 101.26 30.2745 101.115 30.3374C100.771 30.463 100.536 30.481 100.401 30.4002C100.401 30.4002 100.383 30.3823 100.373 30.3733C100.328 30.3374 100.31 30.1309 100.328 29.7539C100.328 29.6282 100.346 29.5295 100.355 29.4577C100.401 28.7126 100.383 28.2818 100.301 28.183C100.256 28.1022 100.093 28.0663 99.8399 28.0663C99.5867 28.0663 99.424 28.1022 99.3516 28.183C99.2883 28.2818 99.2702 28.6408 99.3154 29.2692C99.3335 29.4577 99.3154 29.6013 99.2883 29.6911C99.2431 29.8167 99.0622 29.9155 98.7638 29.9783C98.5739 30.0142 98.4383 30.0232 98.375 30.0052C98.3026 29.9693 98.2664 29.8078 98.2755 29.4936C98.2755 29.3769 98.2755 29.2153 98.2755 29.0178C98.2303 28.1112 98.167 27.5547 98.0856 27.3392C98.0856 27.3213 98.0765 27.3123 98.0765 27.3033C98.0765 27.2674 98.2845 27.3303 98.6734 27.4649C98.8 27.5098 98.9266 27.5547 99.0442 27.5996C99.8128 27.8329 100.247 27.8329 100.346 27.5906C100.364 27.5547 100.373 27.4918 100.383 27.429C100.41 27.1777 100.373 27.0071 100.274 26.9084L100.184 26.8455H99.424C98.9266 26.8455 98.5287 26.8545 98.2484 26.8814L97.8324 26.9173L97.7781 26.8545C97.6425 26.6929 97.5701 26.5493 97.5611 26.4416C97.5611 26.3698 97.5882 26.3429 97.6606 26.3608H97.7058C98.0404 26.3608 98.3569 25.6876 98.6734 24.3232C98.6915 24.2603 98.7005 24.2154 98.7096 24.1795C98.7367 24.1257 98.809 24.1167 98.9266 24.1706C98.9537 24.1706 99.017 24.1975 99.1165 24.2334C99.2974 24.3052 99.442 24.3591 99.5506 24.386C99.5506 24.386 99.5686 24.386 99.5777 24.395C99.8671 24.4937 100.012 24.5655 100.012 24.5924C99.9756 24.6732 99.9032 24.7271 99.7857 24.745C99.7133 24.772 99.641 24.8169 99.5867 24.8976C99.4963 25.0502 99.5053 25.149 99.6229 25.2028C99.7676 25.2747 99.8942 25.3016 100.012 25.2926C100.337 25.2657 100.41 24.9066 100.238 24.2154C100.22 24.1436 100.211 24.0898 100.202 24.0628C100.202 24.0269 100.229 24 100.292 24C100.319 24 100.355 24 100.419 24.009L101.766 24.1885C101.766 24.1885 101.766 24.2065 101.775 24.2154C101.793 24.2872 101.739 24.3501 101.621 24.4129C101.54 24.4578 101.468 24.5476 101.422 24.6732C101.359 24.8976 101.395 25.0592 101.549 25.158C101.847 25.3285 102.182 25.2118 102.535 24.7989H102.544C102.698 24.6284 102.779 24.5476 102.797 24.5476C102.824 24.5476 102.906 24.6104 103.05 24.7271C103.566 25.1131 103.828 25.3285 103.828 25.3734C103.828 25.3913 103.828 25.4093 103.819 25.4362C103.765 25.526 103.322 25.5619 102.49 25.5529C101.992 25.5529 101.685 25.5529 101.576 25.5978C101.477 25.6337 101.422 25.7414 101.413 25.9299C101.395 26.1095 101.413 26.2441 101.441 26.3159C101.495 26.4147 101.676 26.4775 102.001 26.4775C102.245 26.4775 102.408 26.4685 102.499 26.4416C102.589 26.4057 102.743 26.2531 102.96 26.0017C103.041 25.903 103.104 25.8402 103.15 25.8132C103.204 25.8132 103.385 25.9389 103.701 26.1903C103.792 26.2621 103.855 26.3069 103.873 26.3339C104.126 26.5493 104.217 26.675 104.163 26.7199C104.108 26.7647 103.647 26.7917 102.797 26.8006H101.567L101.504 26.8725C101.477 26.8994 101.459 26.9353 101.432 26.9981C101.359 27.2046 101.368 27.3841 101.459 27.5277C101.513 27.6175 101.685 27.6624 101.974 27.6714C102.128 27.6714 102.254 27.6714 102.336 27.6444C102.462 27.6175 102.607 27.5098 102.788 27.3123C102.851 27.2405 102.906 27.1956 102.951 27.1777C103.005 27.1777 103.204 27.2854 103.539 27.5367C103.81 27.7432 103.973 27.8688 104.018 27.9227C104.045 27.9676 104 28.0215 103.891 28.0753C103.828 28.1112 103.774 28.1381 103.737 28.1561C103.656 28.2189 103.611 28.3985 103.602 28.7037C103.602 28.937 103.575 29.1076 103.548 29.1974C103.502 29.323 103.367 29.4846 103.132 29.6821C103.095 29.718 103.077 29.7449 103.068 29.7898C103.068 29.8886 103.312 29.9514 103.81 29.9873C103.828 29.9873 103.846 29.9873 103.855 29.9963C104.226 30.0412 104.28 30.1309 104.018 30.2566C103.936 30.3015 103.873 30.3823 103.846 30.481C103.801 30.6695 103.846 30.7952 104 30.849C104.045 30.867 104.235 30.876 104.578 30.876C105.98 30.9029 106.731 30.876 106.83 30.8311C107.011 30.7323 107.111 30.6336 107.129 30.5259C107.129 30.4002 107.002 30.3374 106.74 30.3464H106.478L106.45 30.2297C106.432 30.1668 106.414 30.095 106.387 30.0322C106.26 29.7539 105.953 29.5654 105.447 29.4667C105.347 29.4397 105.275 29.4218 105.221 29.4128C105.166 29.4038 105.148 29.3769 105.148 29.332V29.2692H105.537C105.682 29.2871 105.944 29.2961 106.324 29.2961H106.722L106.794 29.2243C106.794 29.2243 106.839 29.1704 106.857 29.1435C106.903 29.0537 106.912 28.4074 106.912 27.2046V26.5403C106.912 25.6786 106.857 24.9874 106.776 24.4758C106.74 24.2693 106.731 24.1526 106.749 24.1167C106.785 24.0898 107.038 24.1167 107.508 24.1616C108.024 24.2244 108.313 24.2783 108.386 24.3142C108.431 24.3501 108.358 24.4129 108.169 24.5296C108.114 24.5565 108.078 24.5835 108.06 24.6283C108.024 24.7181 108.006 25.544 107.997 27.1148C107.997 28.3087 107.979 29.0178 107.97 29.2692C107.97 29.5115 107.915 29.718 107.834 29.8886C107.771 30.0052 107.753 30.104 107.771 30.1758C107.798 30.2656 107.997 30.463 108.386 30.7682C108.494 30.858 108.576 30.9208 108.621 30.9657C108.702 31.0286 108.729 31.0824 108.711 31.1183C108.711 31.1183 108.693 31.1363 108.684 31.1542C108.63 31.2081 108.358 31.235 107.861 31.235C107.282 31.235 106.957 31.2709 106.875 31.3338C106.803 31.4056 106.957 31.5671 107.355 31.8185C107.355 31.8185 107.373 31.8364 107.391 31.8454C107.68 32.0339 107.68 32.1327 107.391 32.1327C107.282 32.1327 107.056 32.2135 106.704 32.3571C106.468 32.4648 106.251 32.5635 106.043 32.6443C106.043 32.6443 106.025 32.6443 106.016 32.6533C105.772 32.7431 105.655 32.8328 105.664 32.9046C105.664 32.9944 105.826 33.1111 106.152 33.2547C106.894 33.6048 107.744 33.8651 108.693 34.0357C108.693 34.0357 108.711 34.0357 108.729 34.0447C108.919 34.0806 108.91 34.1434 108.702 34.2332C108.404 34.3588 108.169 34.6102 108.006 34.9872C107.979 35.059 107.952 35.1039 107.933 35.1308C107.888 35.1667 107.735 35.1308 107.454 35.0231C106.523 34.664 105.727 34.2152 105.076 33.6766C104.976 33.5779 104.877 33.5061 104.777 33.4432C104.696 33.3894 104.624 33.3176 104.56 33.2278C104.524 33.1829 104.425 33.0483 104.244 32.8239C103.964 32.4468 103.747 32.1147 103.593 31.8275C103.502 31.6479 103.421 31.5312 103.358 31.4684C103.267 31.4235 103.095 31.4774 102.833 31.6479C102.661 31.7467 102.49 31.8454 102.336 31.9352C102.092 32.0698 101.947 32.1686 101.884 32.2404C101.829 32.3212 101.793 32.5456 101.793 32.9226C101.793 33.1739 101.793 33.3265 101.802 33.3804C101.82 33.542 101.911 33.6407 102.074 33.6497C102.236 33.6766 102.906 33.6048 104.072 33.4343C104.352 33.3983 104.506 33.3894 104.524 33.3894C104.578 33.4253 104.588 33.4702 104.56 33.533C104.542 33.5509 104.443 33.5958 104.244 33.6587C103.186 34.0447 101.857 34.4486 100.256 34.8615C99.9213 34.9423 99.6862 35.041 99.5596 35.1577C99.4782 35.2385 99.4059 35.2475 99.3426 35.1936H99.3335L99.3968 35.2565ZM100.364 26.3877C100.464 26.1543 100.473 25.9389 100.392 25.7594C100.319 25.6068 100.129 25.535 99.8309 25.535C99.4149 25.5619 99.0713 25.6965 98.809 25.9569C98.592 26.1723 98.4925 26.3069 98.5197 26.3788C98.5739 26.4595 98.9447 26.5134 99.6591 26.5403C99.9665 26.5583 100.129 26.5673 100.138 26.5673C100.165 26.5673 100.211 26.5493 100.274 26.5224C100.31 26.4955 100.337 26.4506 100.373 26.3788L100.364 26.3877ZM105.392 32.4468C105.736 32.1327 105.98 31.8634 106.116 31.6569C106.179 31.5402 106.206 31.4594 106.179 31.4056C106.125 31.3338 105.736 31.2979 105.004 31.2979H104.904C104.226 31.2979 103.873 31.3607 103.828 31.4594C103.792 31.5492 103.964 31.7646 104.325 32.1057C104.38 32.1596 104.443 32.2135 104.497 32.2583C104.823 32.5456 105.067 32.6533 105.239 32.5635C105.266 32.5456 105.311 32.5007 105.392 32.4289V32.4468ZM104.624 28.7755C104.56 28.7306 104.551 28.5421 104.569 28.2189C104.569 28.1292 104.588 28.0394 104.597 27.9496C104.651 26.8366 104.606 25.8312 104.461 24.9246C104.434 24.763 104.434 24.6732 104.461 24.6373C104.488 24.6194 104.741 24.6373 105.221 24.7002C105.564 24.7361 105.799 24.7809 105.935 24.8169C106.116 24.8617 106.098 24.9335 105.872 25.0143C105.817 25.0502 105.763 25.1041 105.709 25.1939L105.637 25.3106L105.664 26.1723C105.664 26.4326 105.673 26.9532 105.7 27.7342C105.727 28.201 105.727 28.4613 105.709 28.5241C105.673 28.5959 105.564 28.6678 105.374 28.7396C105.031 28.8563 104.796 28.8742 104.66 28.8024C104.66 28.8024 104.642 28.7844 104.624 28.7755Z"
        fill="#231815" />
    <path
        d="M115.135 35.1622C115.09 35.1173 115.09 34.8031 115.135 34.2287C115.261 32.209 115.234 31.1587 115.062 31.06C115.035 31.06 114.972 31.042 114.872 31.033C114.194 31.0061 113.561 31.0061 112.973 31.042C112.811 31.0689 112.675 31.0779 112.548 31.0779H112.44L112.286 30.8176C112.214 30.683 112.151 30.5932 112.096 30.5573C112.024 30.5304 111.825 30.5842 111.499 30.7368C111.382 30.7907 111.264 30.8445 111.138 30.8894C110.441 31.1767 110.08 31.2934 110.034 31.2305C110.034 31.2126 110.025 31.1946 110.025 31.1856C110.025 31.1497 110.116 31.0869 110.288 30.9971C111.083 30.5932 111.852 30.0726 112.603 29.4263C113.769 28.4209 114.556 27.4245 114.963 26.4371C114.999 26.3563 115.017 26.3114 115.035 26.3024C115.08 26.2845 115.397 26.3384 115.985 26.464C116.482 26.5717 116.772 26.6525 116.853 26.6884C116.907 26.7243 116.871 26.7692 116.726 26.841C116.663 26.8769 116.609 26.9039 116.564 26.9488C116.482 27.0385 116.591 27.236 116.898 27.5143C117.875 28.394 119.313 29.0941 121.23 29.6058C121.329 29.6327 121.42 29.6507 121.492 29.6776C121.7 29.7584 121.7 29.8392 121.483 29.9289C121.42 29.9559 121.347 29.9918 121.266 30.0546C120.977 30.279 120.787 30.5124 120.714 30.7727C120.714 30.7907 120.705 30.8086 120.705 30.8356C120.669 30.9074 120.597 30.9163 120.47 30.8625C119.964 30.665 119.457 30.4137 118.969 30.1174C117.811 29.3993 116.97 28.5735 116.455 27.631C116.428 27.5951 116.41 27.5592 116.392 27.5232C116.292 27.3527 116.202 27.2629 116.129 27.2719C116.057 27.2809 115.885 27.4335 115.632 27.7477C115.587 27.8015 115.542 27.8643 115.478 27.9272C114.791 28.6902 113.941 29.3814 112.928 30.0007C112.594 30.1982 112.422 30.3419 112.404 30.4226C112.404 30.5124 112.675 30.5752 113.227 30.6201C113.281 30.6201 113.353 30.6291 113.444 30.6291C114.42 30.6919 114.954 30.7009 115.044 30.665C115.044 30.665 115.071 30.647 115.099 30.6291C115.261 30.4675 115.252 29.9828 115.062 29.2018C115.044 29.13 115.044 29.0851 115.053 29.0582C115.08 29.0223 115.352 29.0313 115.876 29.0941C116.346 29.148 116.609 29.1839 116.663 29.2018C116.717 29.2018 116.735 29.2288 116.735 29.2647C116.735 29.2647 116.735 29.2916 116.708 29.3096C116.636 29.4083 116.564 29.4622 116.509 29.4622C116.41 29.4622 116.356 29.6686 116.356 30.0636C116.356 30.297 116.374 30.4585 116.419 30.5393C116.473 30.6291 116.636 30.674 116.934 30.674C117.115 30.674 117.251 30.665 117.332 30.6381C117.45 30.6111 117.603 30.4675 117.811 30.2162C117.947 30.0546 118.038 29.9559 118.101 29.9469C118.155 29.9469 118.309 30.0366 118.553 30.2431C118.707 30.3598 118.806 30.4496 118.869 30.5034C119.15 30.7278 119.258 30.8715 119.186 30.9253C119.114 30.9792 118.662 31.0151 117.821 31.0151C117.052 31.0151 116.618 31.042 116.518 31.06C116.464 31.0779 116.41 31.1318 116.383 31.2215C116.337 31.4549 116.346 32.3885 116.419 34.0222L116.455 34.8839L116.365 34.9557C116.301 35.0096 116.202 35.0635 116.066 35.1083C115.704 35.243 115.442 35.2699 115.27 35.2071C115.225 35.1891 115.189 35.1712 115.162 35.1443L115.135 35.1622ZM113.181 27.1103L113.118 27.0475L113.145 26.6256C113.145 26.5628 113.154 26.4999 113.154 26.4461C113.172 26.1947 113.136 26.0332 113.055 25.9613L112.982 25.8806H112.069C111.49 25.8806 111.083 25.8806 110.839 25.9075C110.631 25.9434 110.487 25.9524 110.414 25.9524H110.306L110.17 25.701C110.089 25.5484 110.043 25.4587 110.034 25.4138C110.034 25.3958 110.251 25.4138 110.677 25.4497C110.821 25.4676 110.975 25.4856 111.156 25.4946C112.286 25.5933 112.919 25.6023 113.028 25.5305C113.028 25.5305 113.046 25.5305 113.055 25.5215C113.227 25.3868 113.227 24.956 113.046 24.2199C113.019 24.1212 113.019 24.0583 113.037 24.0314C113.064 24.0045 113.335 24.0134 113.851 24.0763C114.276 24.1212 114.547 24.166 114.664 24.2109C114.809 24.2558 114.773 24.3366 114.565 24.4353C114.429 24.5072 114.348 24.6687 114.33 24.929C114.294 25.2432 114.366 25.4407 114.529 25.5125C114.565 25.5125 114.719 25.5305 114.99 25.5484C116.229 25.6023 116.907 25.6113 117.025 25.5574C117.242 25.4587 117.251 25.0188 117.061 24.2199C117.034 24.1212 117.034 24.0583 117.052 24.0314C117.079 24.0045 117.359 24.0134 117.893 24.0763C118.354 24.1212 118.634 24.166 118.734 24.2109C118.833 24.2558 118.788 24.3366 118.607 24.4353C118.58 24.4533 118.553 24.4713 118.535 24.4802C118.435 24.561 118.381 24.7316 118.381 25.0009C118.381 25.2073 118.399 25.342 118.444 25.4138C118.499 25.5035 118.707 25.5394 119.041 25.5394C119.304 25.5394 119.493 25.5125 119.593 25.4676C119.683 25.4228 119.873 25.2073 120.172 24.8213C120.217 24.7675 120.253 24.7316 120.28 24.7046C120.325 24.7046 120.47 24.7944 120.714 25.0098C120.995 25.2342 121.166 25.3779 121.212 25.4228C121.456 25.6292 121.528 25.7549 121.42 25.7998C121.338 25.8357 120.841 25.8626 119.928 25.8716H118.535L118.472 25.9524C118.39 26.0242 118.354 26.2037 118.372 26.4999C118.372 26.6346 118.372 26.7423 118.345 26.8231C118.3 26.9398 118.128 27.0295 117.83 27.0834C117.567 27.1283 117.395 27.1373 117.305 27.1103C117.197 27.0744 117.151 26.8859 117.178 26.5448C117.197 26.3294 117.178 26.1588 117.142 26.0242C117.106 25.9524 117.034 25.9075 116.907 25.8985C116.781 25.8895 116.401 25.8806 115.768 25.8806H115.542C114.891 25.8806 114.52 25.9075 114.429 25.9613C114.357 26.0062 114.321 26.1499 114.339 26.3832V26.8769L114.276 26.9488C114.249 26.9757 114.212 26.9936 114.149 27.0206C113.869 27.1462 113.579 27.1911 113.299 27.1642C113.245 27.1642 113.209 27.1373 113.172 27.1013L113.181 27.1103ZM110.957 34.5428C111.129 34.4172 111.337 34.2466 111.554 34.0222C112.25 33.34 112.802 32.6219 113.19 31.8678C113.19 31.8678 113.19 31.8499 113.2 31.8319C113.263 31.7153 113.317 31.6524 113.362 31.6524C113.398 31.6524 113.489 31.6973 113.652 31.7691C114.339 32.1012 114.692 32.2897 114.692 32.3256C114.655 32.3885 114.583 32.4244 114.456 32.4423C114.393 32.4603 114.176 32.6219 113.814 32.9271C113.046 33.6631 112.178 34.2376 111.21 34.6685C111.02 34.7493 110.912 34.7942 110.894 34.8031C110.875 34.8031 110.857 34.7852 110.848 34.7762C110.776 34.7224 110.803 34.6416 110.948 34.5428H110.957ZM119.521 34.5877C119.439 34.5518 119.358 34.462 119.267 34.3184C119.213 34.2197 119.15 34.112 119.068 33.9863C118.598 33.3041 118.01 32.6937 117.305 32.1461C117.151 32.0294 117.07 31.9397 117.052 31.8858C117.052 31.814 117.323 31.8589 117.857 32.0025C119.014 32.3346 119.783 32.8104 120.154 33.4477C120.334 33.7798 120.371 34.0761 120.253 34.3453C120.117 34.6146 119.882 34.7044 119.548 34.6057C119.548 34.6057 119.53 34.6057 119.512 34.5967L119.521 34.5877Z"
        fill="#231815" />
    <path
        d="M122.958 34.6111C122.958 34.5214 123.003 34.4855 123.084 34.5034C123.627 34.6022 124.748 34.665 126.457 34.6919C126.53 34.6919 126.638 34.6919 126.783 34.7009H126.873C127.353 34.7009 127.624 34.674 127.696 34.6022C127.769 34.5303 127.805 34.3149 127.796 33.9648V33.7045C127.796 33.3903 127.796 33.1749 127.787 33.0672C127.787 32.8966 127.732 32.7799 127.651 32.7351C127.606 32.7081 127.416 32.6992 127.072 32.6902C125.942 32.6632 125.119 32.6902 124.613 32.762C124.558 32.762 124.504 32.771 124.477 32.771C124.423 32.771 124.341 32.6632 124.251 32.4747C124.179 32.3401 124.142 32.2503 124.142 32.2144C124.142 32.1875 124.188 32.1875 124.296 32.2054C124.875 32.3042 125.797 32.358 127.072 32.367H127.181C127.497 32.367 127.678 32.3401 127.732 32.2683C127.787 32.2054 127.805 31.9541 127.805 31.5143V31.3706C127.805 31.0116 127.769 30.7961 127.696 30.7423C127.642 30.6974 127.407 30.6705 127.009 30.6705C126.738 30.6705 126.539 30.6705 126.43 30.6974C126.286 30.7243 126.213 30.7961 126.213 30.9128C126.213 30.9308 126.213 30.9487 126.186 30.9757C126.105 31.1193 125.897 31.227 125.562 31.2988C125.436 31.3258 125.336 31.3347 125.246 31.3347C125.083 31.3168 125.001 31.2001 125.02 30.9936C125.092 29.9344 125.056 28.929 124.911 27.9686C124.884 27.8339 124.884 27.7531 124.902 27.7352C124.92 27.7082 125.092 27.7621 125.427 27.8788C125.806 28.0224 126.041 28.1032 126.15 28.1391L126.34 28.2019H130.301L130.436 28.1391C130.509 28.1032 130.617 28.0134 130.762 27.8698C130.852 27.7801 130.916 27.7262 130.961 27.6903C131.006 27.6723 131.115 27.7172 131.259 27.8249C131.259 27.8249 131.286 27.8429 131.314 27.8608C131.63 28.0853 131.838 28.1391 131.928 28.0045C131.956 27.9686 131.983 27.9057 132.001 27.8429C132.145 27.4838 132.2 27.2235 132.164 27.0889C132.164 27.053 132.136 27.026 132.1 27.0081C132.001 26.9722 130.753 26.9452 128.365 26.9452H124.73L124.658 27.0081C124.595 27.0619 124.549 27.1966 124.522 27.412C124.477 27.807 124.341 28.1391 124.097 28.4084C123.79 28.7316 123.464 28.8123 123.121 28.6418C122.967 28.561 122.867 28.4533 122.822 28.3097C122.759 28.0404 122.894 27.789 123.247 27.5556C123.754 27.2145 124.034 26.7567 124.07 26.1733C124.088 26.0117 124.115 25.9129 124.16 25.904C124.206 25.904 124.269 26.0117 124.332 26.2271C124.378 26.3528 124.423 26.4515 124.468 26.5144C124.558 26.6131 124.793 26.658 125.182 26.658C125.336 26.658 125.454 26.658 125.544 26.6311C125.725 26.6041 125.788 26.5323 125.716 26.4067C125.698 26.3708 125.689 26.3438 125.68 26.2989C125.68 26.2271 125.653 26.1194 125.589 25.9758C125.399 25.509 125.137 25.0961 124.812 24.737C124.73 24.6383 124.685 24.5755 124.676 24.5216C124.676 24.4677 124.793 24.4677 125.029 24.5216C125.562 24.6562 125.987 24.8627 126.313 25.15C126.747 25.5449 126.837 25.9309 126.602 26.3169C126.548 26.4156 126.521 26.4964 126.53 26.5503C126.548 26.6311 126.747 26.667 127.145 26.667C127.353 26.667 127.497 26.667 127.579 26.64C127.66 26.6131 127.723 26.5413 127.751 26.4067C127.805 26.1374 127.769 25.5359 127.642 24.5934C127.642 24.5665 127.633 24.5306 127.633 24.4857C127.588 24.2882 127.588 24.1805 127.633 24.1536C127.678 24.1266 127.95 24.1536 128.447 24.1984C128.899 24.2433 129.179 24.2882 129.297 24.3331C129.424 24.378 129.387 24.4588 129.188 24.5575C129.062 24.6383 128.98 24.9345 128.935 25.4552C128.899 26.0745 128.953 26.4336 129.089 26.5413C129.116 26.5593 129.161 26.5772 129.225 26.5862C129.487 26.6311 129.695 26.6221 129.84 26.5503C130.02 26.4515 130.364 25.7873 130.852 24.5485C130.879 24.4767 130.907 24.4318 130.943 24.4229C130.979 24.4229 131.078 24.4498 131.241 24.4947C132.091 24.746 132.525 24.8986 132.525 24.9435C132.489 25.0153 132.399 25.0692 132.254 25.0961C132.155 25.114 131.947 25.2577 131.63 25.518C131.54 25.5988 131.386 25.7244 131.169 25.904C131.096 25.9668 131.042 26.0117 131.015 26.0386C130.744 26.263 130.599 26.4067 130.59 26.4785C130.59 26.5682 130.87 26.6131 131.44 26.6131C131.829 26.6131 132.082 26.6041 132.182 26.5772C132.272 26.5503 132.426 26.4426 132.634 26.2451C132.634 26.2451 132.661 26.2182 132.679 26.2002C132.815 26.0656 132.905 26.0027 132.968 26.0207C133.023 26.0207 133.222 26.1912 133.547 26.5054C133.873 26.8106 134.045 26.9991 134.063 27.0619C134.063 27.0978 134.008 27.1248 133.891 27.1427C133.746 27.1786 133.556 27.2774 133.303 27.4479C132.851 27.7621 132.552 27.9686 132.39 28.0493C132.39 28.0493 132.372 28.0493 132.363 28.0583C132.136 28.193 132.055 28.3097 132.109 28.4174C132.136 28.4802 132.073 28.552 131.937 28.6418C131.892 28.6687 131.865 28.6867 131.838 28.7136C131.775 28.7944 131.739 29.1714 131.739 29.8446V30.0242C131.739 30.5538 131.711 30.85 131.666 30.9218C131.621 30.9667 131.485 31.0206 131.25 31.0834C131.196 31.1013 131.133 31.1103 131.078 31.1193C130.771 31.1911 130.617 31.1552 130.617 31.0295C130.617 30.9308 130.599 30.859 130.563 30.8051C130.509 30.7333 130.246 30.6974 129.785 30.6974H129.143L129.071 30.7602C128.999 30.832 128.953 31.0924 128.944 31.5412V31.6489C128.944 31.999 128.98 32.2144 129.044 32.2773C129.116 32.3401 129.378 32.376 129.83 32.376H129.993C130.518 32.376 130.834 32.3491 130.943 32.3042C131.024 32.2683 131.169 32.1247 131.368 31.8823C131.368 31.8823 131.386 31.8554 131.404 31.8374C131.531 31.6848 131.612 31.613 131.639 31.613C131.693 31.613 131.838 31.7028 132.091 31.9092C132.399 32.1606 132.571 32.3042 132.616 32.3311C132.815 32.5106 132.86 32.6184 132.742 32.6632C132.643 32.6991 132.046 32.7261 130.943 32.7261H129.604C129.243 32.744 129.035 32.8069 128.98 32.9236C128.962 32.9774 128.953 33.2108 128.944 33.6237V33.8751C128.944 34.297 128.98 34.5393 129.053 34.6111L129.116 34.6829H131.928L132.028 34.6111C132.118 34.5573 132.245 34.4226 132.417 34.2072C132.589 33.9828 132.688 33.8661 132.715 33.8481C132.751 33.8481 132.887 33.9469 133.131 34.1354C133.665 34.5573 133.936 34.8086 133.936 34.8715C133.936 34.9074 133.936 34.9433 133.882 34.9702C133.755 34.9971 132.073 35.0241 128.827 35.033H127.986C125.2 35.033 123.654 35.0689 123.347 35.1138C123.301 35.1138 123.256 35.1138 123.22 35.0869C123.066 34.9253 122.985 34.7727 122.967 34.647L122.958 34.6111ZM130.5 30.2845C130.545 30.2396 130.572 29.9613 130.572 29.4407V29.1535C130.572 29.0906 130.581 29.0457 130.581 29.0278C130.581 28.7854 130.527 28.6328 130.409 28.579C130.283 28.5161 129.812 28.4892 128.999 28.4982H128.375C127.38 28.4982 126.828 28.4982 126.711 28.5071C126.421 28.5341 126.249 28.6059 126.213 28.7405C126.213 28.7764 126.204 29.0009 126.204 29.4138V29.6831C126.204 29.7279 126.204 29.7638 126.195 29.7818C126.195 30.0421 126.249 30.2037 126.349 30.2576C126.457 30.3204 126.873 30.3563 127.588 30.3653H128.121C128.365 30.3653 128.709 30.3653 129.143 30.3742C129.695 30.3742 130.002 30.3743 130.057 30.3832C130.21 30.3832 130.328 30.3742 130.409 30.3473C130.454 30.3204 130.482 30.3024 130.509 30.2755L130.5 30.2845Z"
        fill="#231815" />
</svg>
    