<svg width="50" height="50" viewBox="0 0 50 50" fill="none" xmlns="http://www.w3.org/2000/svg">
<circle cx="25" cy="25" r="24.5" fill="#CCCCCC" fill-opacity="0.1" stroke="#414535"/>
<path d="M18.48 24.12L18.36 24.03C19.01 23.23 19.64 21.94 19.96 20.59L21.14 20.99C21.1 21.11 20.98 21.19 20.76 21.18C20.6 21.57 20.41 21.92 20.2 22.26H23.12L23.64 21.59C23.64 21.59 24.23 22.06 24.6 22.4C24.57 22.51 24.47 22.56 24.33 22.56H20.01C19.57 23.2 19.05 23.73 18.48 24.12ZM18.87 24.72L18.91 24.85C18.52 25.06 18.05 25.33 17.48 25.63V28.74C17.48 29.36 17.36 29.7 16.4 29.8C16.37 29.56 16.32 29.36 16.21 29.24C16.08 29.11 15.86 29.02 15.46 28.96V28.81C15.46 28.81 16.32 28.87 16.5 28.87C16.67 28.87 16.71 28.82 16.71 28.68V26.03C16.42 26.18 16.13 26.33 15.8 26.49C15.77 26.61 15.67 26.71 15.57 26.74L15.23 25.73C15.54 25.66 16.07 25.53 16.71 25.35V23.19H15.46L15.38 22.9H16.71V20.58L17.85 20.7C17.82 20.85 17.72 20.95 17.48 20.98V22.9H17.71L18.15 22.28C18.15 22.28 18.65 22.72 18.94 23.03C18.92 23.14 18.82 23.19 18.68 23.19H17.48V25.13C17.93 25 18.4 24.86 18.87 24.72ZM24.21 27.46L24.24 28.77C24.52 28.86 24.61 28.95 24.61 29.09C24.61 29.47 24.18 29.58 22.1 29.58H20.65C19.64 29.58 19.35 29.41 19.35 28.74V25.92L18.5 26.24L18.31 26L19.35 25.6V23.63L20.44 23.75C20.42 23.87 20.33 23.98 20.1 24.01V25.32L21.28 24.87V22.87L22.36 22.98C22.34 23.12 22.25 23.22 22 23.25V24.59L23.22 24.13L23.32 24.09L23.74 23.65L24.48 24.43C24.4 24.5 24.29 24.52 24.09 24.53C23.87 25.47 23.47 26.8 22.98 27.7L22.84 27.62C23.06 26.69 23.25 25.35 23.33 24.41L22 24.91V27.76C22 27.85 21.68 28 21.42 28H21.28V25.19L20.1 25.63V28.58C20.1 28.82 20.19 28.89 20.72 28.89H22.14C22.75 28.89 23.23 28.89 23.44 28.87C23.58 28.86 23.64 28.82 23.7 28.73C23.8 28.56 23.94 28.08 24.09 27.46H24.21ZM27.33 25.63H29.78C29.67 25.15 29.58 24.64 29.52 24.1H27.33V25.63ZM29.38 22.33H27.33V23.8H29.48C29.43 23.33 29.4 22.84 29.38 22.33ZM32.55 22.33H30.19C30.2 22.84 30.23 23.33 30.27 23.8H32.55V22.33ZM30.58 25.63H32.55V24.1H30.3C30.37 24.65 30.46 25.16 30.58 25.63ZM34.37 27.43L34.23 28.93C34.6 29.24 34.64 29.37 34.57 29.51C34.4 29.94 33.74 29.8 33.08 29.56C32.22 29.27 31.55 28.82 31.03 28.23C29.59 29.02 27.7 29.59 25.62 29.78L25.58 29.61C27.51 29.27 29.3 28.6 30.65 27.73C30.31 27.21 30.05 26.61 29.86 25.93H27.33V26.41C27.33 26.48 26.98 26.68 26.64 26.68H26.53V21.66L27.39 22.04H29.37C29.36 21.58 29.35 21.1 29.35 20.6L30.53 20.73C30.51 20.86 30.44 20.98 30.18 21.02C30.18 21.37 30.18 21.71 30.18 22.04H32.47L32.87 21.58L33.76 22.27C33.69 22.34 33.55 22.42 33.37 22.46V26.04C33.36 26.11 32.96 26.31 32.68 26.31H32.55V25.93H30.67C30.83 26.43 31.03 26.87 31.3 27.26C31.72 26.93 32.08 26.58 32.36 26.2L33.26 26.79C33.19 26.89 33.08 26.92 32.86 26.85C32.55 27.19 32.17 27.51 31.74 27.8C32.15 28.22 32.68 28.55 33.33 28.75C33.57 28.84 33.65 28.83 33.74 28.65C33.88 28.39 34.1 27.84 34.25 27.41L34.37 27.43Z" fill="#414535"/>
</svg>
